<svg width="349" height="270" viewBox="0 0 349 270" fill="none" xmlns="http://www.w3.org/2000/svg">
<rect y="15" width="333" height="211" rx="105.5" fill="white"/>
<path fill-rule="evenodd" clip-rule="evenodd" d="M110.5 10C49.4725 10 0 59.4725 0 120.5C0 181.527 49.4725 231 110.5 231H195.5C197.709 231 199.5 229.209 199.5 227C199.5 224.791 197.709 223 195.5 223H110.5C53.8908 223 8 177.109 8 120.5C8 63.8908 53.8908 18 110.5 18H222.5C279.109 18 325 63.8908 325 120.5V124C325 178.676 280.676 223 226 223C223.791 223 222 224.791 222 227C222 229.209 223.791 231 226 231H227C227.08 231 227.16 230.998 227.239 230.993C285.763 230.329 333 182.681 333 124V120.5C333 59.4725 283.527 10 222.5 10H110.5ZM221.339 210.689C223.216 211.852 223.795 214.318 222.631 216.196L197.097 257.391C195.933 259.268 193.468 259.847 191.59 258.683C189.712 257.519 189.134 255.054 190.298 253.176L215.832 211.981C216.995 210.103 219.461 209.525 221.339 210.689Z" fill="#4D3A3B"/>
</svg>
