<svg width="100" height="100" viewBox="0 0 100 100" fill="none" xmlns="http://www.w3.org/2000/svg">
<path d="M39.2349 18.6046C50.3013 12.252 63.0838 10.4848 72.5556 16.4292C88.045 26.1425 88.8228 52.7771 77.6174 70.6276C66.412 88.478 47.4641 90.7837 31.9703 81.0704C16.4809 71.357 10.3155 53.3025 21.5209 35.452C23.7542 31.9001 26.5045 28.6218 29.6024 25.7256" fill="white"/>
<path d="M50.6792 89.5202C43.8708 89.5202 36.8843 87.436 30.4886 83.4282C22.1117 78.1742 16.2722 70.5712 14.039 62.0172C11.6406 52.8293 13.4133 43.1333 19.1616 33.9758C21.4817 30.2763 24.358 26.8199 27.6992 23.6936C28.8245 22.6428 30.5842 22.7036 31.6357 23.8282C32.6871 24.9528 32.6263 26.7114 31.501 27.7622C28.5074 30.5585 25.9439 33.6414 23.8758 36.9328C18.9617 44.7573 17.4236 52.9465 19.4266 60.6104C21.2992 67.7879 26.2785 74.2186 33.4475 78.7127C48.8109 88.3478 65.6125 84.5051 75.2537 69.147C80.4502 60.8709 83.0267 50.4932 82.3141 40.6757C81.5885 30.654 77.5956 22.8773 71.0696 18.787C63.1185 13.8023 51.735 14.6359 40.6165 21.0189C39.2826 21.7831 37.5794 21.3228 36.8147 19.9898C36.05 18.6567 36.5106 16.9546 37.8445 16.1904C50.7791 8.76539 64.309 7.97078 74.0328 14.0715C82.1012 19.13 87.0152 28.4396 87.8712 40.2762C88.6619 51.2444 85.7856 62.8465 79.9722 72.1083C74.224 81.2658 66.2555 87.0756 56.9358 88.9167C54.8807 89.3205 52.7864 89.5246 50.6748 89.5246L50.6792 89.5202Z" fill="#4D3A3B"/>
<path d="M53.0337 47.5188L55.4016 60.0458L68.0104 56.9108L68.9098 68.5173L79.4678 64.0927" fill="white"/>
<path d="M68.9102 71.3004C68.4062 71.3004 67.9022 71.1615 67.459 70.8922C66.6943 70.4276 66.2033 69.6243 66.1338 68.7299L65.4908 60.4017L56.0755 62.7421C55.3325 62.9288 54.5461 62.7985 53.8987 62.386C53.2513 61.9735 52.8081 61.3135 52.6648 60.558L50.2968 48.031C50.01 46.5199 51.005 45.0653 52.517 44.7787C54.029 44.4921 55.4846 45.4865 55.7713 46.9975L57.5918 56.6284L67.3417 54.2055C68.1368 54.0101 68.9797 54.1707 69.6445 54.6484C70.3092 55.126 70.7307 55.8728 70.7915 56.6892L71.3911 64.4529L78.3907 61.5176C79.8071 60.9227 81.4407 61.5914 82.036 63.0069C82.6312 64.4225 81.9621 66.0551 80.5457 66.65L69.9921 71.0746C69.6445 71.2179 69.2795 71.2917 68.9145 71.2917L68.9102 71.3004Z" fill="#4D3A3B"/>
</svg>
