<svg width="100" height="100" viewBox="0 0 100 100" fill="none" xmlns="http://www.w3.org/2000/svg">
<path d="M82.6369 44.0701C82.7075 43.6645 82.7427 43.2501 82.7427 42.818C82.7427 39.1853 80.0975 36.2403 76.8439 36.2403C76.8175 36.2403 76.791 36.2403 76.7646 36.2403C76.3325 33.0837 73.8901 30.6677 70.9363 30.6677C70.8657 30.6677 70.804 30.6677 70.7423 30.6765C70.081 27.855 67.7797 25.7652 65.0375 25.7652C64.4379 25.7652 63.8559 25.8711 63.3093 26.0562C62.4363 23.6315 60.3202 21.9121 57.8337 21.9121C56.5728 21.9121 55.4177 22.3529 54.4566 23.1024C53.3721 21.7357 51.7938 20.8628 50.0303 20.8628C49.995 20.8628 49.9686 20.8628 49.9333 20.8628C49.898 20.8628 49.8716 20.8628 49.8363 20.8628C48.0728 20.8628 46.4945 21.7269 45.41 23.1024C44.4489 22.3529 43.2938 21.9121 42.0329 21.9121C39.5464 21.9121 37.4214 23.6315 36.5573 26.0562C36.0107 25.8711 35.4287 25.7652 34.8291 25.7652C32.0869 25.7652 29.7856 27.855 29.1243 30.6765C29.0626 30.6765 28.992 30.6677 28.9303 30.6677C25.9765 30.6677 23.5341 33.0837 23.102 36.2403C23.0756 36.2403 23.0491 36.2403 23.0227 36.2403C19.7603 36.2403 17.1239 39.1853 17.1239 42.818C17.1239 43.2501 17.1591 43.6645 17.2297 44.0701C14.7432 44.8461 12.918 47.3766 12.918 50.3922C12.918 54.0249 15.5632 56.9699 18.8168 56.9699C19.0901 56.9699 19.3547 56.9435 19.6104 56.8994L22.4848 62.4102H75.5037L78.4575 56.2998C79.2334 56.723 80.1063 56.9611 81.0322 56.9611C84.2946 56.9611 86.931 54.0161 86.931 50.3834C86.931 47.3678 85.1058 44.8284 82.6193 44.0613L82.6369 44.0701Z" fill="white"/>
<path d="M75.5131 65.0557H22.5119C21.3744 65.0557 20.334 64.4297 19.8137 63.4157L17.821 59.589C13.4211 59.0335 10 55.0039 10 50.1279C10 46.8038 11.64 43.7618 14.1794 42.0512C14.4087 37.9247 17.098 34.4859 20.6955 33.4366C21.78 30.5886 24.0813 28.4989 26.8764 27.82C28.3754 24.7339 31.3645 22.7235 34.7151 22.7235C34.7239 22.7235 34.2654 22.7235 34.283 22.7235C36.073 20.1312 38.8945 18.5617 42.0159 18.5617C43.1004 18.5617 44.1497 18.7557 45.1549 19.126C46.7067 18.0327 48.5407 17.4331 50.4365 17.4331C50.4894 17.4331 49.978 17.4331 50.0485 17.4331C51.8032 17.4331 53.5049 17.9886 54.9421 19.0026C55.868 18.6587 56.8467 18.4824 57.8519 18.4824C60.744 18.4824 63.3627 19.9372 65.0204 22.3356C68.3798 22.3179 71.4483 24.3547 72.9737 27.4761C75.7952 28.1638 78.1142 30.2712 79.2164 33.1456C82.8403 34.2125 85.556 37.669 85.7853 41.8396C88.3512 43.5678 90 46.6362 90 49.9957C90 55.2949 85.9881 59.6066 81.0592 59.6066C80.7329 59.6066 80.4155 59.5889 80.0981 59.5537L78.2641 63.3363C77.7527 64.3856 76.6946 65.0557 75.5219 65.0557H75.5131ZM24.3459 58.8835H73.6085L75.7335 54.4925C76.095 53.743 76.7475 53.1787 77.5411 52.923C78.3346 52.6673 79.1899 52.7467 79.9218 53.1435C80.2833 53.3374 80.6624 53.4432 81.0416 53.4432C82.6199 53.4432 83.8984 51.8561 83.8984 49.9163C83.8984 48.3027 83.0078 46.8919 81.7293 46.4952C80.2744 46.0455 79.3751 44.573 79.6308 43.074C79.6749 42.8271 79.6925 42.5802 79.6925 42.3422C79.6925 40.42 78.4492 38.8593 76.8974 38.8152C76.8357 38.8152 76.8004 38.8152 76.7563 38.8152C75.2397 38.8152 73.9524 37.6954 73.7408 36.1876C73.5115 34.53 72.33 33.2779 70.9809 33.2426H70.8487C69.4203 33.3308 68.0977 32.2375 67.7538 30.8531C67.3129 29.072 65.7434 27.9698 64.2797 28.4636C62.7102 29.0015 60.9909 28.1727 60.4354 26.612C59.9769 25.3247 58.9452 24.487 57.8254 24.487C57.2876 24.487 56.785 24.6722 56.3176 25.0337C54.995 26.0653 53.0993 25.8272 52.0589 24.5223C51.7502 24.1255 51.0889 23.473 50.0926 23.4465C50.0397 23.4465 49.978 23.4465 49.9251 23.4465C49.8721 23.4465 49.8281 23.4465 49.7575 23.4465C48.77 23.473 48.0999 24.1343 47.7913 24.5223C46.7508 25.836 44.8551 26.0653 43.5325 25.0337C43.0651 24.6722 42.5626 24.487 42.0247 24.487C40.8961 24.487 39.8733 25.3247 39.4059 26.612C38.8416 28.1727 37.1311 29.0015 35.5616 28.4636C34.0802 27.961 32.4931 29.0897 32.0699 30.906C31.7348 32.3256 30.4563 33.322 28.9926 33.2515C28.9662 33.2515 28.9044 33.2515 28.8515 33.2515C27.5025 33.2867 26.3298 34.5388 26.1005 36.1965C25.8889 37.7395 24.5575 38.8417 22.988 38.824C22.9792 38.824 22.9615 38.824 22.9527 38.824C21.4097 38.8681 20.1576 40.4376 20.1576 42.351C20.1576 42.589 20.1841 42.8359 20.2193 43.0828C20.4839 44.5906 19.5845 46.0543 18.1296 46.5128C16.8511 46.9096 15.9605 48.3203 15.9605 49.9339C15.9605 51.8826 17.2391 53.4609 18.8174 53.4609C18.8967 53.4609 19.0025 53.4521 19.1348 53.4344C20.4309 53.2493 21.7007 53.8665 22.3091 55.0216L24.337 58.91L24.3459 58.8835ZM71.0779 33.6306H71.0515C71.0515 33.6306 71.0691 33.6306 71.0779 33.6306Z" fill="#4D3A3B"/>
<path d="M86.6577 53.3545C86.6577 72.0121 70.2133 87.1338 49.9333 87.1338C29.6534 87.1338 13.209 72.0121 13.209 53.3545C24.3453 57.7632 39.4054 58.5391 49.9333 58.5391C60.4613 58.5391 76.3766 57.1371 86.6577 53.3545Z" fill="#20457F"/>
<path d="M49.9338 90.1762C28.005 90.1762 10.1675 73.6612 10.1675 53.3548C10.1675 52.3497 10.6701 51.4062 11.4989 50.8419C12.3365 50.2776 13.3946 50.1541 14.3293 50.5245C22.6617 53.8222 34.6445 55.4975 49.9338 55.4975C60.1267 55.4975 75.5836 54.1925 85.6089 50.498C86.5436 50.1541 87.584 50.2864 88.404 50.8595C89.224 51.4327 89.709 52.3585 89.709 53.3548C89.709 73.6524 71.8714 90.1762 49.9426 90.1762H49.9338ZM16.5953 57.7371C18.9319 72.6208 32.9868 84.0922 49.9338 84.0922C66.8808 84.0922 81.0062 72.5591 83.2899 57.6313C72.9295 60.5146 59.6858 61.5903 49.9338 61.5903C36.3815 61.5903 25.2011 60.2941 16.5953 57.7371V57.7371Z" fill="#4D3A3B"/>
<path d="M61.758 22.2469C61.758 26.5233 56.4676 28.5248 49.934 28.5248C43.4003 28.5248 38.1099 26.5233 38.1099 22.2469C38.1099 17.9705 43.4003 13.0327 49.934 13.0327C56.4676 13.0327 61.758 17.9616 61.758 22.2469Z" fill="#FFB515"/>
<path d="M49.9335 31.5761C40.7634 31.5761 35.0674 28.0051 35.0674 22.2562C35.0674 15.8459 42.1566 10 49.9335 10C57.7104 10 64.7996 15.8371 64.7996 22.2562C64.7996 28.0051 59.1035 31.5761 49.9335 31.5761V31.5761ZM49.9335 16.084C44.9252 16.084 41.1514 19.8226 41.1514 22.2473C41.1514 24.1254 44.8458 25.4833 49.9335 25.4833C55.0211 25.4833 58.7156 24.1254 58.7156 22.2473C58.7156 19.8226 54.9417 16.084 49.9335 16.084Z" fill="#4D3A3B"/>
</svg>
