<svg width="350" height="350" viewBox="0 0 350 350" fill="none" xmlns="http://www.w3.org/2000/svg">
<path d="M309.624 228.294C309.624 298.21 235.761 335.754 156.776 335.754C77.7915 335.754 13.9556 305.877 13.9556 235.952C13.9556 166.028 77.7915 82.5542 156.776 82.5542C235.761 82.5542 309.624 158.369 309.624 228.294Z" fill="white"/>
<path d="M309.625 220.902C307.164 220.902 305.075 219.008 304.882 216.512C302.065 180.729 285.757 147.576 258.945 123.151C231.45 98.1022 195.934 85.4515 158.947 87.5314C147.931 88.148 136.923 90.0645 126.211 93.2216C123.691 93.9645 121.038 92.5234 120.295 90.0051C119.551 87.4794 120.993 84.8349 123.521 84.092C134.93 80.7269 146.667 78.6915 158.412 78.0304C197.978 75.8019 235.962 89.3366 265.368 116.124C279.349 128.864 290.715 143.928 299.151 160.91C307.751 178.226 312.88 196.686 314.382 215.769C314.59 218.392 312.628 220.687 310.004 220.888C309.877 220.895 309.751 220.902 309.625 220.902V220.902Z" fill="#4D3A3B"/>
<path d="M34.5457 297.921C33.1557 297.921 31.7731 297.312 30.8291 296.145C17.7988 279.974 10.5217 259.813 9.19862 236.22C6.25509 183.886 36.233 130.765 85.5669 100.88C87.8191 99.5209 90.7478 100.234 92.1081 102.485C93.4683 104.736 92.7548 107.663 90.5025 109.022C44.1419 137.102 15.9628 186.82 18.7131 235.685C19.9247 257.242 26.503 275.576 38.2548 290.173C39.905 292.223 39.5779 295.217 37.5264 296.866C36.6493 297.572 35.5938 297.921 34.5383 297.921H34.5457Z" fill="#4D3A3B"/>
<path d="M305.284 120.641C305.306 120.195 305.321 119.757 305.321 119.303C305.321 104.751 294.03 92.7838 279.743 91.6844C279.847 90.6295 279.907 89.5598 279.907 88.4753C279.907 71.0258 265.702 56.8225 248.234 56.8225C230.766 56.8225 216.562 71.0183 216.562 88.4753C216.562 105.932 230.766 120.128 248.234 120.128C248.784 120.128 249.334 120.113 249.877 120.083C250.256 133.566 260.306 144.672 273.329 146.685C273.002 148.497 272.823 150.362 272.823 152.264C272.823 169.713 287.028 183.916 304.496 183.916C321.964 183.916 336.169 169.721 336.169 152.264C336.169 134.807 322.387 121.057 305.291 120.633L305.284 120.641Z" fill="#FFE978"/>
<path fill-rule="evenodd" clip-rule="evenodd" d="M211.73 88.4749C211.73 68.3513 228.098 51.9937 248.234 51.9937C268.065 51.9937 284.24 67.8655 284.727 87.5599C298.282 90.5981 308.667 102.099 310.006 116.205C327.51 118.829 341 133.742 341 152.263C341 172.387 324.632 188.745 304.496 188.745C284.359 188.745 267.992 172.379 267.992 152.263C267.992 151.642 268.008 151.025 268.04 150.412C256.452 146.855 247.608 137.001 245.51 124.856C226.642 123.46 211.73 107.683 211.73 88.4749ZM305.417 125.467C304.712 125.487 303.998 125.352 303.326 125.054C301.498 124.245 300.358 122.394 300.458 120.399C300.478 120.004 300.489 119.651 300.489 119.303C300.489 107.296 291.165 97.4057 279.372 96.4983C278.077 96.3986 276.876 95.7816 276.041 94.7866C275.206 93.7917 274.808 92.5025 274.935 91.2103C275.026 90.2937 275.075 89.3831 275.075 88.4749C275.075 73.6914 263.033 61.6507 248.234 61.6507C233.435 61.6507 221.393 73.6847 221.393 88.4749C221.393 103.265 233.435 115.299 248.234 115.299C248.698 115.299 249.16 115.287 249.613 115.262C250.914 115.191 252.19 115.648 253.149 116.53C254.108 117.413 254.67 118.645 254.707 119.947C255.019 131.072 263.321 140.252 274.067 141.913C275.354 142.112 276.506 142.821 277.262 143.881C278.018 144.941 278.315 146.261 278.083 147.541C277.805 149.086 277.655 150.664 277.655 152.263C277.655 167.047 289.697 179.088 304.496 179.088C319.295 179.088 331.337 167.054 331.337 152.263C331.337 137.546 319.815 125.951 305.417 125.467Z" fill="#4D3A3B"/>
<path d="M145.894 23.7205C164.826 12.8526 186.695 9.8292 202.899 19.9988C229.398 36.6163 230.729 82.1826 211.559 112.721C192.389 143.26 159.973 147.204 133.466 130.587C106.967 113.969 96.419 83.0815 115.589 52.543C119.41 46.4665 124.115 40.858 129.415 35.9032" fill="white"/>
<path d="M165.473 145.043C153.825 145.043 141.873 141.477 130.931 134.621C116.6 125.632 106.61 112.625 102.789 97.9907C98.6861 82.2721 101.719 65.6843 111.553 50.0176C115.522 43.6885 120.443 37.7755 126.159 32.4269C128.084 30.6293 131.095 30.7333 132.894 32.6572C134.692 34.5812 134.588 37.5897 132.663 39.3874C127.542 44.1714 123.156 49.4456 119.618 55.0764C111.211 68.4625 108.58 82.4726 112.006 95.5839C115.21 107.863 123.728 118.865 135.993 126.553C162.277 143.037 191.021 136.463 207.515 110.188C216.405 96.0296 220.813 78.2755 219.594 61.4797C218.353 44.3348 211.521 31.0304 200.357 24.0328C186.754 15.5049 167.279 16.9311 148.258 27.851C145.976 29.1584 143.062 28.371 141.754 26.0905C140.446 23.8099 141.234 20.8979 143.515 19.5905C165.644 6.88783 188.791 5.52842 205.426 15.9654C219.23 24.6196 227.637 40.5463 229.101 60.7963C230.454 79.5607 225.533 99.4096 215.587 115.255C205.753 130.921 192.121 140.86 176.177 144.01C172.661 144.701 169.078 145.05 165.466 145.05L165.473 145.043Z" fill="#4D3A3B"/>
<path d="M169.501 73.1873L173.553 94.6184L195.124 89.2551L196.662 109.111L214.725 101.542" fill="white"/>
<path d="M196.663 113.873C195.801 113.873 194.938 113.635 194.18 113.174C192.872 112.38 192.032 111.005 191.913 109.475L190.813 95.2272L174.705 99.2311C173.434 99.5505 172.089 99.3277 170.981 98.622C169.874 97.9163 169.115 96.7871 168.87 95.4946L164.819 74.0634C164.329 71.4783 166.031 68.9898 168.617 68.4995C171.204 68.0092 173.694 69.7103 174.185 72.2954L177.299 88.7718L193.979 84.6267C195.34 84.2924 196.782 84.5673 197.919 85.3844C199.056 86.2016 199.777 87.4792 199.881 88.8758L200.907 102.158L212.882 97.1363C215.305 96.1186 218.1 97.2626 219.118 99.6842C220.137 102.106 218.992 104.899 216.569 105.917L198.514 113.486C197.919 113.732 197.295 113.858 196.67 113.858L196.663 113.873Z" fill="#4D3A3B"/>
<path d="M179.678 339.639C177.247 339.639 175.174 337.789 174.943 335.331C174.69 332.716 176.616 330.391 179.24 330.138C186.033 329.492 192.723 328.608 199.116 327.508C208.772 325.852 217.996 323.66 226.537 321.001C259.384 310.765 299.62 287.974 304.741 237.52C305.009 234.905 307.35 232.996 309.967 233.263C312.583 233.531 314.493 235.863 314.226 238.478C309.751 282.507 280.412 314.189 229.376 330.094C220.442 332.879 210.808 335.167 200.736 336.898C194.106 338.035 187.178 338.956 180.146 339.617C179.99 339.632 179.842 339.639 179.693 339.639H179.678Z" fill="#4D3A3B"/>
<path d="M149.113 340.516C149.046 340.516 148.979 340.516 148.913 340.516C108.885 338.837 67.3485 327.382 47.9182 312.651C45.822 311.062 45.4132 308.076 47.0039 305.981C48.5946 303.886 51.5827 303.477 53.6789 305.067C71.4293 318.52 111.65 329.425 149.314 331C151.945 331.111 153.982 333.332 153.878 335.955C153.774 338.51 151.663 340.516 149.121 340.516H149.113Z" fill="#4D3A3B"/>
</svg>
