<svg width="350" height="350" viewBox="0 0 350 350" fill="none" xmlns="http://www.w3.org/2000/svg">
<path d="M309.624 228.294C309.624 298.21 235.761 335.754 156.776 335.754C77.7915 335.754 13.9556 305.877 13.9556 235.952C13.9556 166.028 77.7915 82.5542 156.776 82.5542C235.761 82.5542 309.624 158.369 309.624 228.294Z" fill="white"/>
<path d="M309.625 220.902C307.164 220.902 305.075 219.008 304.882 216.512C302.065 180.729 285.757 147.576 258.945 123.151C231.45 98.1022 195.934 85.4515 158.947 87.5314C147.931 88.148 136.923 90.0645 126.211 93.2216C123.691 93.9645 121.038 92.5234 120.295 90.0051C119.551 87.4794 120.993 84.8349 123.521 84.092C134.93 80.7269 146.667 78.6915 158.412 78.0304C197.978 75.8019 235.962 89.3366 265.368 116.124C279.349 128.864 290.715 143.928 299.151 160.91C307.751 178.226 312.88 196.686 314.382 215.769C314.59 218.392 312.628 220.687 310.004 220.888C309.877 220.895 309.751 220.902 309.625 220.902V220.902Z" fill="#4D3A3B"/>
<path d="M34.5457 297.921C33.1557 297.921 31.7731 297.312 30.8291 296.145C17.7988 279.974 10.5217 259.813 9.19862 236.22C6.25509 183.886 36.233 130.765 85.5669 100.88C87.8191 99.5209 90.7478 100.234 92.1081 102.485C93.4683 104.736 92.7548 107.663 90.5025 109.022C44.1419 137.102 15.9628 186.82 18.7131 235.685C19.9247 257.242 26.503 275.576 38.2548 290.173C39.905 292.223 39.5779 295.217 37.5264 296.866C36.6493 297.572 35.5938 297.921 34.5383 297.921H34.5457Z" fill="#4D3A3B"/>
<path d="M305.284 120.641C305.306 120.195 305.321 119.757 305.321 119.303C305.321 104.751 294.03 92.7838 279.743 91.6844C279.847 90.6295 279.907 89.5598 279.907 88.4753C279.907 71.0258 265.702 56.8225 248.234 56.8225C230.766 56.8225 216.562 71.0183 216.562 88.4753C216.562 105.932 230.766 120.128 248.234 120.128C248.784 120.128 249.334 120.113 249.877 120.083C250.256 133.566 260.306 144.672 273.329 146.685C273.002 148.497 272.823 150.362 272.823 152.264C272.823 169.713 287.028 183.916 304.496 183.916C321.964 183.916 336.169 169.721 336.169 152.264C336.169 134.807 322.387 121.057 305.291 120.633L305.284 120.641Z" fill="#FFA200"/>
<path fill-rule="evenodd" clip-rule="evenodd" d="M211.73 88.4749C211.73 68.3513 228.098 51.9937 248.234 51.9937C268.065 51.9937 284.24 67.8655 284.727 87.5599C298.282 90.5981 308.667 102.099 310.006 116.205C327.51 118.829 341 133.742 341 152.263C341 172.387 324.632 188.745 304.496 188.745C284.359 188.745 267.992 172.379 267.992 152.263C267.992 151.642 268.008 151.025 268.04 150.412C256.452 146.855 247.608 137.001 245.51 124.856C226.642 123.46 211.73 107.683 211.73 88.4749ZM305.417 125.467C304.712 125.487 303.998 125.352 303.326 125.054C301.498 124.245 300.358 122.394 300.458 120.399C300.478 120.004 300.489 119.651 300.489 119.303C300.489 107.296 291.165 97.4057 279.372 96.4983C278.077 96.3986 276.876 95.7816 276.041 94.7866C275.206 93.7917 274.808 92.5025 274.935 91.2103C275.026 90.2937 275.075 89.3831 275.075 88.4749C275.075 73.6914 263.033 61.6507 248.234 61.6507C233.435 61.6507 221.393 73.6847 221.393 88.4749C221.393 103.265 233.435 115.299 248.234 115.299C248.698 115.299 249.16 115.287 249.613 115.262C250.914 115.191 252.19 115.648 253.149 116.53C254.108 117.413 254.67 118.645 254.707 119.947C255.019 131.072 263.321 140.252 274.067 141.913C275.354 142.112 276.506 142.821 277.262 143.881C278.018 144.941 278.315 146.261 278.083 147.541C277.805 149.086 277.655 150.664 277.655 152.263C277.655 167.047 289.697 179.088 304.496 179.088C319.295 179.088 331.337 167.054 331.337 152.263C331.337 137.546 319.815 125.951 305.417 125.467Z" fill="#4D3A3B"/>
<path d="M179.678 339.639C177.247 339.639 175.174 337.789 174.943 335.331C174.69 332.716 176.616 330.391 179.24 330.138C186.033 329.492 192.723 328.608 199.116 327.508C208.772 325.852 217.996 323.66 226.537 321.001C259.384 310.765 299.62 287.974 304.741 237.52C305.009 234.905 307.35 232.996 309.967 233.263C312.583 233.531 314.493 235.863 314.226 238.478C309.751 282.507 280.412 314.189 229.376 330.094C220.442 332.879 210.808 335.167 200.736 336.898C194.106 338.035 187.178 338.956 180.146 339.617C179.99 339.632 179.842 339.639 179.693 339.639H179.678Z" fill="#4D3A3B"/>
<path d="M149.113 340.516C149.046 340.516 148.979 340.516 148.913 340.516C108.885 338.837 67.3485 327.382 47.9182 312.651C45.822 311.062 45.4132 308.076 47.0039 305.981C48.5946 303.886 51.5827 303.477 53.6789 305.067C71.4293 318.52 111.65 329.425 149.314 331C151.945 331.111 153.982 333.332 153.878 335.955C153.774 338.51 151.663 340.516 149.121 340.516H149.113Z" fill="#4D3A3B"/>
<path d="M59.2676 33.9485L76.9452 51.6262" stroke="#4D3A3B" stroke-width="8" stroke-linecap="round"/>
<path d="M82.5 18.7163L89.8305 42.6174" stroke="#4D3A3B" stroke-width="8" stroke-linecap="round"/>
<path d="M43.5 58.7163L68.1346 62.9749" stroke="#4D3A3B" stroke-width="8" stroke-linecap="round"/>
</svg>
