<svg width="350" height="350" viewBox="0 0 350 350" fill="none" xmlns="http://www.w3.org/2000/svg">
<path d="M296.605 212.52C296.605 275.495 230.118 309.311 159.02 309.311C87.9225 309.311 30.4609 282.4 30.4609 219.418C30.4609 156.437 87.9225 81.2512 159.02 81.2512C230.118 81.2512 296.605 149.539 296.605 212.52Z" fill="white"/>
<path d="M296.605 205.863C294.391 205.863 292.511 204.156 292.337 201.908C289.801 169.678 275.121 139.817 250.987 117.817C226.237 95.2552 194.268 83.8606 160.974 85.7341C151.058 86.2894 141.149 88.0157 131.507 90.8593C129.239 91.5284 126.85 90.2304 126.181 87.9622C125.512 85.6872 126.81 83.3053 129.085 82.6362C139.356 79.6052 149.921 77.7719 160.492 77.1764C196.108 75.1691 230.299 87.36 256.768 111.487C269.353 122.962 279.584 136.531 287.178 151.827C294.919 167.423 299.536 184.05 300.888 201.239C301.075 203.601 299.309 205.669 296.947 205.849C296.833 205.856 296.719 205.863 296.605 205.863V205.863Z" fill="#4D3A3B"/>
<path d="M48.9948 275.234C47.7436 275.234 46.4991 274.685 45.6493 273.635C33.9269 259.069 27.3698 240.903 26.1788 219.659C23.5292 172.515 50.5136 124.668 94.9279 97.7576C96.9552 96.5332 99.5914 97.1755 100.816 99.2028C102.04 101.23 101.398 103.866 99.3706 105.091C57.6327 130.376 32.2675 175.158 34.7431 219.171C35.8338 238.588 41.7552 255.101 52.3335 268.249C53.8189 270.095 53.5245 272.792 51.6778 274.277C50.8883 274.913 49.9382 275.227 48.9881 275.227L48.9948 275.234Z" fill="#4D3A3B"/>
<path d="M292.698 115.555C292.718 115.154 292.731 114.759 292.731 114.351C292.731 101.244 282.568 90.4645 269.708 89.4743C269.801 88.5242 269.855 87.5607 269.855 86.5838C269.855 70.8669 257.069 58.0739 241.345 58.0739C225.621 58.0739 212.835 70.8602 212.835 86.5838C212.835 102.307 225.621 115.094 241.345 115.094C241.84 115.094 242.335 115.08 242.824 115.054C243.165 127.198 252.211 137.201 263.933 139.014C263.639 140.646 263.478 142.326 263.478 144.039C263.478 159.756 276.265 172.549 291.988 172.549C307.712 172.549 320.498 159.762 320.498 144.039C320.498 128.315 308.093 115.93 292.704 115.549L292.698 115.555Z" fill="#F7004C"/>
<path fill-rule="evenodd" clip-rule="evenodd" d="M208.486 86.5838C208.486 68.4582 223.219 53.7247 241.345 53.7247C259.196 53.7247 273.755 68.0207 274.194 85.7596C286.395 88.4961 295.743 98.8549 296.948 111.56C312.704 113.924 324.847 127.356 324.847 144.039C324.847 162.164 310.114 176.898 291.988 176.898C273.862 176.898 259.129 162.157 259.129 144.039C259.129 143.479 259.144 142.923 259.173 142.371C248.742 139.167 240.781 130.292 238.892 119.352C221.909 118.095 208.486 103.884 208.486 86.5838ZM292.818 119.903C292.182 119.921 291.538 119.799 290.932 119.53C289.289 118.8 288.264 117.134 288.354 115.338C288.372 114.982 288.382 114.664 288.382 114.351C288.382 103.536 279.988 94.6279 269.374 93.8105C268.208 93.7207 267.127 93.165 266.375 92.2688C265.624 91.3726 265.265 90.2115 265.38 89.0475C265.461 88.222 265.506 87.4018 265.506 86.5838C265.506 73.2681 254.666 62.4229 241.345 62.4229C228.023 62.4229 217.184 73.2621 217.184 86.5838C217.184 99.9055 228.023 110.745 241.345 110.745C241.762 110.745 242.178 110.733 242.586 110.711C243.757 110.647 244.905 111.059 245.769 111.854C246.632 112.648 247.138 113.758 247.171 114.931C247.453 124.952 254.925 133.22 264.598 134.716C265.757 134.895 266.794 135.534 267.474 136.489C268.155 137.443 268.422 138.632 268.213 139.786C267.963 141.177 267.828 142.598 267.828 144.039C267.828 157.354 278.667 168.199 291.988 168.199C305.31 168.199 316.149 157.36 316.149 144.039C316.149 130.783 305.778 120.339 292.818 119.903Z" fill="#4D3A3B"/>
<path d="M149.225 28.2591C166.266 18.4703 185.951 15.7471 200.537 24.907C224.39 39.8746 225.588 80.9166 208.332 108.423C191.076 135.929 161.897 139.482 138.037 124.515C114.184 109.547 104.69 81.7262 121.946 54.2199C125.385 48.7467 129.62 43.6951 134.391 39.2322" fill="white"/>
<path d="M166.849 137.535C156.364 137.535 145.605 134.323 135.756 128.148C122.856 120.052 113.863 108.336 110.424 95.1549C106.731 80.9969 109.461 66.0561 118.313 51.945C121.886 46.2443 126.315 40.9183 131.46 36.1009C133.193 34.4817 135.903 34.5754 137.522 36.3083C139.142 38.0413 139.048 40.7511 137.315 42.3703C132.705 46.6792 128.757 51.4298 125.572 56.5015C118.005 68.5585 115.636 81.1775 118.721 92.987C121.605 104.047 129.273 113.956 140.313 120.881C163.972 135.729 189.845 129.807 204.692 106.141C212.695 93.3885 216.662 77.3972 215.565 62.269C214.448 46.8264 208.299 34.843 198.249 28.5402C186.005 20.859 168.475 22.1437 151.353 31.9793C149.298 33.1569 146.676 32.4477 145.498 30.3935C144.32 28.3394 145.03 25.7166 147.084 24.539C167.003 13.0975 187.838 11.8731 202.812 21.2738C215.237 29.0687 222.805 43.4141 224.123 61.6535C225.341 78.5547 220.911 96.4328 211.959 110.705C203.107 124.816 190.836 133.768 176.484 136.605C173.319 137.227 170.094 137.542 166.842 137.542L166.849 137.535Z" fill="#4D3A3B"/>
<path d="M170.475 72.8139L174.122 92.1172L193.539 87.2863L194.924 105.171L211.183 98.3531" fill="white"/>
<path d="M194.923 109.46C194.147 109.46 193.371 109.246 192.689 108.831C191.511 108.115 190.755 106.877 190.648 105.499L189.658 92.6658L175.158 96.2722C174.014 96.56 172.803 96.3592 171.806 95.7236C170.809 95.088 170.127 94.0709 169.906 92.9067L166.259 73.6034C165.818 71.275 167.35 69.0335 169.678 68.5919C172.007 68.1503 174.248 69.6826 174.69 72.011L177.493 86.8514L192.508 83.1179C193.732 82.8168 195.03 83.0644 196.054 83.8004C197.078 84.5364 197.727 85.6872 197.82 86.9451L198.744 98.9085L209.523 94.3854C211.704 93.4688 214.22 94.4992 215.137 96.6804C216.053 98.8616 215.023 101.377 212.842 102.294L196.589 109.112C196.054 109.333 195.492 109.447 194.93 109.447L194.923 109.46Z" fill="#4D3A3B"/>
<path d="M154.577 204.852C157.896 201.748 161.743 199.868 165.851 199.868C178.276 199.868 188.346 217.05 188.346 233.416C188.346 249.782 178.276 259.136 165.851 259.136C153.426 259.136 143.356 249.782 143.356 233.416C143.356 227.876 144.514 222.242 146.521 217.21" fill="#FFA200"/>
<path d="M165.858 262.762C150.476 262.762 139.73 250.692 139.73 233.416C139.73 227.541 140.914 221.473 143.156 215.866C143.898 214.005 146.013 213.096 147.873 213.838C149.733 214.581 150.643 216.695 149.893 218.555C147.993 223.313 146.99 228.451 146.99 233.416C146.99 246.63 154.57 255.503 165.858 255.503C177.146 255.503 184.726 246.624 184.726 233.416C184.726 218.314 175.379 203.494 165.858 203.494C162.124 203.494 159.013 205.675 157.066 207.502C155.601 208.874 153.306 208.8 151.934 207.335C150.563 205.869 150.636 203.574 152.101 202.203C156.27 198.295 161.027 196.234 165.858 196.234C172.99 196.234 179.728 200.604 184.82 208.539C189.377 215.631 191.986 224.698 191.986 233.409C191.986 250.692 181.24 262.755 165.858 262.755V262.762Z" fill="#4D3A3B"/>
<path d="M207.75 229.502C214.538 229.502 220.041 223.999 220.041 217.21C220.041 210.422 214.538 204.919 207.75 204.919C200.962 204.919 195.459 210.422 195.459 217.21C195.459 223.999 200.962 229.502 207.75 229.502Z" fill="#4D3A3B"/>
<path d="M123.806 229.502C130.594 229.502 136.097 223.999 136.097 217.21C136.097 210.422 130.594 204.919 123.806 204.919C117.018 204.919 111.515 210.422 111.515 217.21C111.515 223.999 117.018 229.502 123.806 229.502Z" fill="#4D3A3B"/>
<path d="M89.508 269.654C78.0198 269.654 68.599 262.702 68.2979 253.836C68.1975 250.866 69.1275 247.922 70.9876 245.326C71.9444 243.994 73.7978 243.686 75.1293 244.636C76.4608 245.593 76.7686 247.447 75.8185 248.778C74.7145 250.324 74.1792 251.956 74.2394 253.636C74.4334 259.377 81.78 263.993 90.2708 263.706C98.7683 263.418 105.787 258.326 105.593 252.585C105.506 249.936 103.914 247.433 101.11 245.54C98.0189 243.445 93.9107 242.375 89.5549 242.522C86.8986 242.609 84.2891 243.164 82.0008 244.128C80.4887 244.764 78.7491 244.054 78.1134 242.542C77.4778 241.03 78.187 239.29 79.6992 238.655C82.69 237.397 85.9351 236.701 89.3542 236.587C94.9611 236.4 100.314 237.832 104.435 240.622C108.851 243.613 111.367 247.788 111.521 252.385C111.829 261.498 102.381 269.239 90.4649 269.64C90.1437 269.654 89.8225 269.654 89.5014 269.654H89.508Z" fill="#4D3A3B"/>
<path d="M179.635 312.81C177.447 312.81 175.58 311.144 175.373 308.929C175.145 306.574 176.878 304.48 179.24 304.252C185.355 303.67 191.377 302.874 197.131 301.884C205.823 300.392 214.126 298.418 221.814 296.023C251.381 286.803 287.599 266.275 292.209 220.83C292.45 218.475 294.558 216.755 296.913 216.996C299.268 217.237 300.988 219.338 300.747 221.693C296.719 261.35 270.31 289.887 224.37 304.212C216.328 306.721 207.656 308.782 198.59 310.341C192.622 311.365 186.386 312.195 180.056 312.79C179.916 312.803 179.782 312.81 179.648 312.81H179.635Z" fill="#4D3A3B"/>
<path d="M152.122 313.6C152.062 313.6 152.001 313.6 151.941 313.6C115.911 312.087 78.5218 301.77 61.0318 288.502C59.145 287.07 58.777 284.38 60.2088 282.494C61.6407 280.607 64.3304 280.239 66.2173 281.671C82.1951 293.788 118.4 303.61 152.302 305.029C154.671 305.129 156.504 307.13 156.411 309.491C156.317 311.793 154.417 313.6 152.129 313.6H152.122Z" fill="#4D3A3B"/>
<path d="M249.742 264.268C244.497 264.268 239.519 262.842 235.638 260.213C231.222 257.222 228.706 253.047 228.552 248.45C228.244 239.337 237.692 231.596 249.609 231.194C261.525 230.786 271.474 237.885 271.776 246.998C272.083 256.111 262.636 263.853 250.719 264.254C250.391 264.268 250.063 264.274 249.742 264.274V264.268ZM250.559 237.116C250.311 237.116 250.063 237.116 249.809 237.129C241.312 237.417 234.293 242.509 234.487 248.25C234.574 250.899 236.166 253.402 238.97 255.295C242.061 257.389 246.163 258.453 250.525 258.313C259.023 258.025 266.041 252.933 265.847 247.192C265.66 241.619 258.735 237.116 250.559 237.116V237.116Z" fill="#4D3A3B"/>
<path d="M129.728 305.31C137.435 308.013 145.043 316.43 143.879 323.114C142.708 329.798 133.213 332.214 125.499 329.511C117.791 326.807 114.787 320.003 115.951 313.319C117.122 306.634 122.013 302.606 129.728 305.31Z" fill="white"/>
<path d="M131.942 334.261C129.573 334.261 127.158 333.86 124.883 333.063C120.674 331.585 117.376 328.848 115.355 325.148C113.341 321.455 112.659 316.945 113.448 312.442C114.231 307.946 116.319 304.4 119.316 302.466C122.32 300.526 126.141 300.285 130.35 301.757C134.538 303.229 138.713 306.206 141.804 309.933C145.551 314.449 147.177 319.441 146.381 323.991C145.585 328.54 142.5 331.879 137.703 333.398C135.89 333.973 133.929 334.254 131.935 334.254L131.942 334.261ZM125.157 308.12C123.752 308.12 122.501 308.454 121.457 309.13C119.898 310.134 118.868 311.887 118.46 314.202C118.058 316.517 118.393 318.758 119.437 320.672C120.735 323.054 123.05 324.887 126.114 325.964C129.506 327.155 133.414 327.269 136.572 326.265C139.202 325.436 141.082 323.857 141.363 322.238C141.644 320.625 140.5 317.982 138.452 315.507C135.983 312.536 132.491 310.047 129.098 308.862C127.68 308.367 126.355 308.12 125.144 308.12H125.157Z" fill="#4D3A3B"/>
<path d="M215.598 304.386C207.891 307.089 200.283 315.507 201.447 322.191C202.618 328.875 212.112 331.29 219.827 328.587C227.535 325.884 230.539 319.08 229.375 312.395C228.204 305.711 223.313 301.683 215.598 304.386Z" fill="white"/>
<path d="M213.384 333.338C215.752 333.338 218.168 332.936 220.443 332.14C224.651 330.661 227.95 327.925 229.97 324.225C231.984 320.531 232.667 316.022 231.877 311.519C231.095 307.023 229.007 303.476 226.009 301.543C223.005 299.602 219.185 299.361 214.976 300.833C210.788 302.305 206.613 305.283 203.521 309.01C199.774 313.526 198.149 318.517 198.945 323.067C199.741 327.617 202.825 330.956 207.623 332.475C209.436 333.05 211.397 333.331 213.39 333.331L213.384 333.338ZM220.168 307.196C221.573 307.196 222.825 307.531 223.868 308.207C225.427 309.21 226.458 310.963 226.866 313.278C227.267 315.594 226.933 317.835 225.889 319.749C224.591 322.131 222.276 323.964 219.211 325.041C215.819 326.232 211.912 326.346 208.754 325.342C206.124 324.513 204.244 322.933 203.963 321.314C203.682 319.702 204.826 317.059 206.873 314.583C209.342 311.612 212.835 309.123 216.227 307.939C217.646 307.444 218.971 307.196 220.182 307.196H220.168Z" fill="#4D3A3B"/>
<path d="M165.268 233.884C165.826 234.022 166.411 233.996 166.954 233.812C181.151 228.98 189.039 229.311 193.261 231.665C197.202 233.862 198.987 238.491 198.987 245.723C198.987 252.113 195.576 258.115 189.631 262.62C183.684 267.126 175.335 270 165.987 270C156.64 270 148.29 267.126 142.343 262.62C136.398 258.115 132.987 252.113 132.987 245.723C132.987 238.61 134.808 234.701 138.732 232.784C143.164 230.619 151.214 230.415 165.268 233.884Z" fill="#FFF3AA" stroke="#4D3A3B" stroke-width="6" stroke-linejoin="round"/>
<path d="M173.987 258.5C173.987 262.642 170.629 266 166.487 266C162.345 266 158.987 262.642 158.987 258.5C158.987 254.358 162.345 251 166.487 251C170.629 251 173.987 254.358 173.987 258.5ZM166.487 276C176.152 276 183.987 268.165 183.987 258.5C183.987 248.835 176.152 241 166.487 241C156.822 241 148.987 248.835 148.987 258.5C148.987 268.165 156.822 276 166.487 276Z" fill="#FBB03B" stroke="#4D3A3B" stroke-width="4"/>
<circle cx="166.487" cy="247.5" r="12.5" fill="#FFF3AA" stroke="#4D3A3B" stroke-width="6"/>
</svg>
