<svg width="350" height="350" viewBox="0 0 350 350" fill="none" xmlns="http://www.w3.org/2000/svg">
<path d="M296.605 212.52C296.605 275.495 230.118 309.311 159.02 309.311C87.9225 309.311 30.4609 282.4 30.4609 219.418C30.4609 156.437 87.9225 81.2511 159.02 81.2511C230.118 81.2511 296.605 149.539 296.605 212.52Z" fill="white"/>
<path d="M296.605 205.863C294.391 205.863 292.511 204.156 292.337 201.908C289.801 169.678 275.121 139.817 250.987 117.817C226.237 95.2552 194.268 83.8606 160.974 85.7341C151.058 86.2894 141.149 88.0157 131.507 90.8593C129.239 91.5284 126.85 90.2304 126.181 87.9622C125.512 85.6872 126.81 83.3053 129.085 82.6362C139.356 79.6052 149.921 77.7719 160.492 77.1764C196.108 75.1691 230.299 87.36 256.768 111.487C269.353 122.962 279.584 136.531 287.178 151.827C294.919 167.423 299.536 184.05 300.888 201.239C301.075 203.601 299.309 205.669 296.947 205.849C296.833 205.856 296.719 205.863 296.605 205.863V205.863Z" fill="#4D3A3B"/>
<path d="M48.9948 275.234C47.7436 275.234 46.4991 274.685 45.6493 273.635C33.9269 259.069 27.3698 240.903 26.1788 219.659C23.5292 172.515 50.5136 124.668 94.9279 97.7576C96.9552 96.5332 99.5914 97.1755 100.816 99.2028C102.04 101.23 101.398 103.866 99.3706 105.091C57.6327 130.376 32.2675 175.158 34.7431 219.171C35.8338 238.588 41.7552 255.101 52.3335 268.249C53.8189 270.095 53.5245 272.792 51.6778 274.277C50.8883 274.913 49.9382 275.227 48.9881 275.227L48.9948 275.234Z" fill="#4D3A3B"/>
<path d="M292.698 115.555C292.718 115.154 292.731 114.759 292.731 114.351C292.731 101.244 282.568 90.4645 269.708 89.4743C269.801 88.5242 269.855 87.5607 269.855 86.5838C269.855 70.8669 257.069 58.0739 241.345 58.0739C225.621 58.0739 212.835 70.8602 212.835 86.5838C212.835 102.307 225.621 115.094 241.345 115.094C241.84 115.094 242.335 115.08 242.824 115.054C243.165 127.198 252.211 137.201 263.933 139.014C263.639 140.646 263.478 142.326 263.478 144.039C263.478 159.756 276.265 172.549 291.988 172.549C307.712 172.549 320.498 159.762 320.498 144.039C320.498 128.315 308.093 115.93 292.704 115.549L292.698 115.555Z" fill="#F7004C"/>
<path fill-rule="evenodd" clip-rule="evenodd" d="M208.486 86.5838C208.486 68.4582 223.219 53.7247 241.345 53.7247C259.196 53.7247 273.755 68.0207 274.194 85.7596C286.395 88.4961 295.743 98.8549 296.948 111.56C312.704 113.924 324.847 127.356 324.847 144.039C324.847 162.164 310.114 176.898 291.988 176.898C273.862 176.898 259.129 162.157 259.129 144.039C259.129 143.479 259.144 142.923 259.173 142.371C248.742 139.167 240.781 130.292 238.892 119.352C221.909 118.095 208.486 103.884 208.486 86.5838ZM292.818 119.903C292.182 119.921 291.538 119.799 290.932 119.53C289.289 118.8 288.264 117.134 288.354 115.338C288.372 114.982 288.382 114.664 288.382 114.351C288.382 103.536 279.988 94.6279 269.374 93.8105C268.208 93.7207 267.127 93.165 266.375 92.2688C265.624 91.3726 265.265 90.2115 265.38 89.0475C265.461 88.222 265.506 87.4018 265.506 86.5838C265.506 73.2681 254.666 62.4229 241.345 62.4229C228.023 62.4229 217.184 73.2621 217.184 86.5838C217.184 99.9055 228.023 110.745 241.345 110.745C241.762 110.745 242.178 110.733 242.586 110.711C243.757 110.647 244.905 111.059 245.769 111.854C246.632 112.648 247.138 113.758 247.171 114.931C247.453 124.952 254.925 133.22 264.598 134.716C265.757 134.895 266.794 135.534 267.474 136.489C268.155 137.443 268.422 138.632 268.213 139.786C267.963 141.177 267.828 142.598 267.828 144.039C267.828 157.354 278.667 168.199 291.988 168.199C305.31 168.199 316.149 157.36 316.149 144.039C316.149 130.783 305.778 120.339 292.818 119.903Z" fill="#4D3A3B"/>
<path d="M149.225 28.2591C166.266 18.4703 185.951 15.7471 200.537 24.907C224.39 39.8746 225.588 80.9166 208.332 108.423C191.076 135.929 161.897 139.482 138.037 124.515C114.184 109.547 104.69 81.7262 121.946 54.2199C125.385 48.7467 129.62 43.6951 134.391 39.2322" fill="white"/>
<path d="M166.849 137.535C156.364 137.535 145.605 134.323 135.756 128.148C122.856 120.052 113.863 108.336 110.424 95.1549C106.731 80.9969 109.461 66.0561 118.313 51.945C121.886 46.2443 126.315 40.9183 131.46 36.1009C133.193 34.4817 135.903 34.5754 137.522 36.3083C139.142 38.0413 139.048 40.7511 137.315 42.3703C132.705 46.6792 128.757 51.4298 125.572 56.5015C118.005 68.5585 115.636 81.1775 118.721 92.987C121.605 104.047 129.273 113.956 140.313 120.881C163.972 135.729 189.845 129.807 204.692 106.141C212.695 93.3885 216.662 77.3972 215.565 62.269C214.448 46.8264 208.299 34.843 198.249 28.5402C186.005 20.859 168.475 22.1437 151.353 31.9793C149.298 33.1569 146.676 32.4477 145.498 30.3935C144.32 28.3394 145.03 25.7166 147.084 24.539C167.003 13.0975 187.838 11.8731 202.812 21.2738C215.237 29.0687 222.805 43.4141 224.123 61.6535C225.341 78.5547 220.911 96.4328 211.959 110.705C203.107 124.816 190.836 133.768 176.484 136.605C173.319 137.227 170.094 137.542 166.842 137.542L166.849 137.535Z" fill="#4D3A3B"/>
<path d="M170.475 72.814L174.122 92.1172L193.539 87.2864L194.924 105.171L211.183 98.3532" fill="white"/>
<path d="M194.923 109.46C194.147 109.46 193.371 109.246 192.689 108.831C191.511 108.115 190.755 106.877 190.648 105.499L189.658 92.6658L175.158 96.2722C174.014 96.56 172.803 96.3592 171.806 95.7236C170.809 95.088 170.127 94.0709 169.906 92.9067L166.259 73.6034C165.818 71.275 167.35 69.0335 169.678 68.5919C172.007 68.1503 174.248 69.6826 174.69 72.011L177.493 86.8514L192.508 83.1179C193.732 82.8168 195.03 83.0644 196.054 83.8004C197.078 84.5364 197.727 85.6872 197.82 86.9451L198.744 98.9085L209.523 94.3854C211.704 93.4688 214.22 94.4992 215.137 96.6804C216.053 98.8616 215.023 101.377 212.842 102.294L196.589 109.112C196.054 109.333 195.492 109.447 194.93 109.447L194.923 109.46Z" fill="#4D3A3B"/>
<path d="M154.577 204.852C157.896 201.748 161.743 199.868 165.851 199.868C178.276 199.868 188.346 217.05 188.346 233.416C188.346 249.782 178.276 259.136 165.851 259.136C153.426 259.136 143.356 249.782 143.356 233.416C143.356 227.876 144.514 222.242 146.521 217.21" fill="#FFA200"/>
<path d="M165.858 262.762C150.476 262.762 139.73 250.692 139.73 233.416C139.73 227.541 140.914 221.472 143.156 215.865C143.898 214.005 146.013 213.095 147.873 213.838C149.733 214.581 150.643 216.695 149.893 218.555C147.993 223.312 146.99 228.451 146.99 233.416C146.99 246.63 154.57 255.502 165.858 255.502C177.146 255.502 184.726 246.624 184.726 233.416C184.726 218.314 175.379 203.494 165.858 203.494C162.124 203.494 159.013 205.675 157.066 207.502C155.601 208.873 153.306 208.8 151.934 207.335C150.563 205.869 150.636 203.574 152.101 202.203C156.27 198.295 161.027 196.234 165.858 196.234C172.99 196.234 179.728 200.604 184.82 208.539C189.377 215.631 191.986 224.697 191.986 233.409C191.986 250.692 181.24 262.755 165.858 262.755V262.762Z" fill="#4D3A3B"/>
<path d="M207.75 229.502C214.538 229.502 220.041 223.999 220.041 217.21C220.041 210.422 214.538 204.919 207.75 204.919C200.962 204.919 195.459 210.422 195.459 217.21C195.459 223.999 200.962 229.502 207.75 229.502Z" fill="#4D3A3B"/>
<path d="M123.806 229.502C130.594 229.502 136.097 223.999 136.097 217.21C136.097 210.422 130.594 204.919 123.806 204.919C117.018 204.919 111.515 210.422 111.515 217.21C111.515 223.999 117.018 229.502 123.806 229.502Z" fill="#4D3A3B"/>
<path d="M89.508 269.654C78.0198 269.654 68.599 262.702 68.2979 253.837C68.1975 250.866 69.1275 247.922 70.9876 245.326C71.9444 243.994 73.7978 243.686 75.1293 244.637C76.4608 245.593 76.7686 247.447 75.8185 248.778C74.7145 250.324 74.1792 251.956 74.2394 253.636C74.4334 259.377 81.78 263.993 90.2708 263.706C98.7683 263.418 105.787 258.326 105.593 252.585C105.506 249.936 103.914 247.433 101.11 245.54C98.0189 243.446 93.9107 242.375 89.5549 242.522C86.8986 242.609 84.2891 243.165 82.0008 244.128C80.4887 244.764 78.7491 244.054 78.1134 242.542C77.4778 241.03 78.187 239.29 79.6992 238.655C82.69 237.397 85.9351 236.701 89.3542 236.587C94.9611 236.4 100.314 237.832 104.435 240.622C108.851 243.613 111.367 247.788 111.521 252.385C111.829 261.498 102.381 269.239 90.4649 269.64C90.1437 269.654 89.8225 269.654 89.5014 269.654H89.508Z" fill="#4D3A3B"/>
<path d="M179.635 312.81C177.447 312.81 175.58 311.144 175.373 308.929C175.145 306.574 176.878 304.48 179.24 304.252C185.355 303.67 191.377 302.874 197.131 301.884C205.823 300.392 214.126 298.418 221.814 296.023C251.381 286.803 287.599 266.275 292.209 220.83C292.45 218.475 294.558 216.755 296.913 216.996C299.268 217.237 300.988 219.338 300.747 221.693C296.719 261.35 270.31 289.887 224.37 304.212C216.328 306.721 207.656 308.782 198.59 310.341C192.622 311.365 186.386 312.195 180.056 312.79C179.916 312.803 179.782 312.81 179.648 312.81H179.635Z" fill="#4D3A3B"/>
<path d="M152.122 313.6C152.062 313.6 152.001 313.6 151.941 313.6C115.911 312.087 78.5218 301.77 61.0318 288.502C59.145 287.07 58.777 284.38 60.2088 282.494C61.6407 280.607 64.3304 280.239 66.2173 281.671C82.1951 293.788 118.4 303.61 152.302 305.029C154.671 305.129 156.504 307.13 156.411 309.491C156.317 311.793 154.417 313.6 152.129 313.6H152.122Z" fill="#4D3A3B"/>
<path d="M249.742 264.268C244.497 264.268 239.519 262.842 235.638 260.213C231.222 257.222 228.706 253.047 228.552 248.45C228.244 239.337 237.692 231.596 249.609 231.194C261.525 230.786 271.474 237.885 271.776 246.998C272.083 256.111 262.636 263.853 250.719 264.254C250.391 264.268 250.063 264.274 249.742 264.274V264.268ZM250.559 237.116C250.311 237.116 250.063 237.116 249.809 237.129C241.312 237.417 234.293 242.509 234.487 248.249C234.574 250.899 236.166 253.402 238.97 255.295C242.061 257.389 246.163 258.453 250.525 258.313C259.023 258.025 266.041 252.933 265.847 247.192C265.66 241.619 258.735 237.116 250.559 237.116V237.116Z" fill="#4D3A3B"/>
<g clip-path="url(#clip0_3276_1544)">
<rect width="107" height="51" transform="translate(118 274)" fill="white"/>
<g opacity="0.5">
<path d="M223.838 275.155H119.162V323.845H223.838V275.155Z" fill="#C69C87"/>
<path d="M223.838 325H119.162C118.521 325 118 324.483 118 323.845V275.155C118 274.517 118.521 274 119.162 274H223.838C224.479 274 225 274.517 225 275.155V323.845C225 324.483 224.479 325 223.838 325ZM120.324 322.691H222.676V276.309H120.324V322.691Z" fill="black"/>
<path d="M168.235 287.914C172.682 285.376 177.821 284.669 181.629 287.043C187.856 290.925 188.167 301.567 183.662 308.7C179.158 315.834 171.541 316.756 165.316 312.874C159.089 308.991 156.611 301.779 161.116 294.646C162.013 293.225 163.119 291.916 164.363 290.759" fill="#C7B299"/>
<path d="M172.835 316.252C170.097 316.252 167.289 315.418 164.721 313.818C161.355 311.719 159.005 308.682 158.108 305.262C157.143 301.59 157.857 297.715 160.167 294.057C161.102 292.579 162.255 291.198 163.6 289.948C164.051 289.528 164.76 289.554 165.183 290.002C165.606 290.45 165.581 291.154 165.13 291.574C163.926 292.692 162.896 293.925 162.066 295.239C160.093 298.366 159.472 301.638 160.276 304.701C161.03 307.569 163.031 310.137 165.913 311.934C172.089 315.783 178.842 314.248 182.716 308.112C184.806 304.805 185.84 300.657 185.554 296.736C185.264 292.731 183.658 289.623 181.036 287.988C177.84 285.995 173.263 286.33 168.795 288.879C168.258 289.184 167.575 289.002 167.266 288.468C166.959 287.935 167.143 287.256 167.68 286.949C172.879 283.981 178.319 283.665 182.226 286.101C185.468 288.122 187.444 291.842 187.788 296.572C188.107 300.955 186.949 305.592 184.613 309.292C182.303 312.95 179.1 315.273 175.355 316.007C174.53 316.169 173.688 316.25 172.84 316.25L172.835 316.252Z" fill="black"/>
</g>
<path d="M217.729 304.107C217.729 311.978 209.366 316.204 200.424 316.204C191.482 316.204 184.253 312.841 184.253 304.971C184.253 297.101 191.48 287.704 200.424 287.704C209.368 287.704 217.729 296.237 217.729 304.107Z" fill="white"/>
<path d="M217.729 303.276C217.45 303.276 217.213 303.063 217.192 302.782C216.874 298.754 215.026 295.022 211.993 292.274C208.88 289.454 204.859 288.032 200.67 288.265C199.425 288.334 198.176 288.549 196.965 288.905C196.679 288.988 196.38 288.826 196.296 288.542C196.212 288.258 196.375 287.96 196.661 287.877C197.953 287.498 199.283 287.27 200.612 287.196C205.091 286.944 209.392 288.468 212.723 291.484C214.305 292.918 215.593 294.613 216.549 296.526C217.522 298.475 218.104 300.553 218.273 302.701C218.297 302.996 218.076 303.255 217.778 303.278C217.764 303.278 217.75 303.278 217.736 303.278L217.729 303.276Z" fill="black"/>
<path d="M186.584 311.943C186.426 311.943 186.271 311.874 186.164 311.742C184.688 309.922 183.865 307.652 183.714 304.996C183.381 299.105 186.775 293.126 192.361 289.764C192.616 289.611 192.946 289.692 193.102 289.944C193.256 290.198 193.174 290.526 192.921 290.681C187.672 293.84 184.481 299.438 184.792 304.936C184.929 307.363 185.673 309.426 187.005 311.07C187.191 311.301 187.156 311.638 186.924 311.823C186.824 311.904 186.705 311.941 186.587 311.941L186.584 311.943Z" fill="black"/>
<path d="M217.234 291.99C217.237 291.939 217.241 291.888 217.241 291.838C217.241 290.2 215.963 288.854 214.345 288.732C214.357 288.611 214.364 288.491 214.364 288.369C214.364 286.404 212.755 284.806 210.777 284.806C208.799 284.806 207.19 286.404 207.19 288.369C207.19 290.334 208.799 291.932 210.777 291.932C210.84 291.932 210.903 291.925 210.965 291.923C211.007 293.443 212.144 294.692 213.622 294.918C213.585 295.124 213.562 295.334 213.562 295.549C213.562 297.514 215.17 299.112 217.148 299.112C219.126 299.112 220.735 297.514 220.735 295.549C220.735 293.584 219.173 292.036 217.234 291.99Z" fill="#F7004C"/>
<path fill-rule="evenodd" clip-rule="evenodd" d="M206.609 288.369C206.609 286.085 208.478 284.228 210.777 284.228C213.033 284.228 214.874 286.015 214.943 288.24C216.472 288.591 217.642 289.88 217.803 291.462C219.789 291.771 221.316 293.456 221.316 295.549C221.316 297.833 219.447 299.689 217.148 299.689C214.849 299.689 212.981 297.833 212.981 295.549C212.981 295.486 212.982 295.424 212.985 295.362C211.682 294.954 210.689 293.854 210.442 292.496C208.299 292.327 206.609 290.541 206.609 288.369ZM210.777 285.383C209.12 285.383 207.772 286.723 207.772 288.369C207.772 290.015 209.12 291.355 210.777 291.355C210.807 291.355 210.816 291.354 210.83 291.353C210.847 291.351 210.871 291.349 210.944 291.346C211.099 291.34 211.25 291.397 211.363 291.502C211.476 291.607 211.542 291.753 211.546 291.907C211.58 293.145 212.506 294.163 213.711 294.348C213.865 294.371 214.004 294.456 214.095 294.583C214.186 294.71 214.222 294.867 214.194 295.02C214.162 295.2 214.143 295.375 214.143 295.549C214.143 297.195 215.491 298.535 217.148 298.535C218.805 298.535 220.154 297.195 220.154 295.549C220.154 293.902 218.848 292.606 217.22 292.567C217.064 292.563 216.916 292.497 216.809 292.384C216.703 292.27 216.647 292.119 216.654 291.964C216.656 291.922 216.657 291.9 216.658 291.884C216.66 291.866 216.66 291.856 216.66 291.838C216.66 290.505 215.618 289.407 214.301 289.307C214.145 289.295 214.001 289.222 213.9 289.103C213.8 288.985 213.752 288.831 213.767 288.676C213.777 288.571 213.783 288.469 213.783 288.369C213.783 286.723 212.434 285.383 210.777 285.383Z" fill="black"/>
<path d="M199.19 281.081C201.333 279.857 203.808 279.517 205.645 280.66C208.646 282.531 208.797 287.66 206.626 291.096C204.455 294.533 200.784 294.978 197.784 293.108C194.783 291.237 193.588 287.762 195.759 284.323C196.191 283.639 196.724 283.007 197.323 282.45" fill="white"/>
<path d="M201.407 294.736C200.089 294.736 198.734 294.334 197.497 293.563C195.875 292.551 194.743 291.087 194.311 289.44C193.846 287.671 194.19 285.803 195.303 284.041C195.752 283.33 196.31 282.662 196.958 282.062C197.177 281.861 197.518 281.87 197.721 282.087C197.925 282.305 197.914 282.644 197.695 282.845C197.116 283.383 196.619 283.977 196.219 284.612C195.268 286.117 194.969 287.695 195.357 289.17C195.719 290.554 196.684 291.791 198.072 292.655C201.047 294.51 204.301 293.771 206.17 290.812C207.176 289.219 207.676 287.219 207.539 285.33C207.4 283.399 206.625 281.903 205.361 281.115C203.82 280.155 201.616 280.316 199.462 281.545C199.204 281.693 198.874 281.605 198.725 281.346C198.576 281.09 198.664 280.762 198.925 280.614C201.43 279.185 204.05 279.032 205.935 280.205C207.497 281.18 208.45 282.972 208.615 285.251C208.769 287.364 208.211 289.598 207.086 291.38C205.972 293.145 204.429 294.262 202.623 294.618C202.225 294.697 201.819 294.736 201.409 294.736H201.407Z" fill="black"/>
<path d="M201.863 286.648L202.323 289.059L204.766 288.457L204.938 290.692L206.983 289.84" fill="white"/>
<path d="M204.94 291.228C204.843 291.228 204.745 291.202 204.659 291.149C204.51 291.059 204.415 290.905 204.404 290.734L204.278 289.131L202.453 289.581C202.309 289.616 202.156 289.593 202.033 289.512C201.907 289.433 201.821 289.304 201.793 289.161L201.335 286.748C201.28 286.457 201.472 286.177 201.765 286.122C202.058 286.066 202.339 286.258 202.395 286.549L202.749 288.403L204.636 287.937C204.789 287.9 204.952 287.93 205.082 288.022C205.21 288.115 205.291 288.258 205.305 288.415L205.422 289.909L206.777 289.343C207.051 289.228 207.367 289.357 207.483 289.63C207.6 289.902 207.469 290.216 207.195 290.332L205.15 291.184C205.082 291.212 205.013 291.226 204.94 291.226V291.228Z" fill="black"/>
<path d="M199.864 303.149C200.28 302.761 200.766 302.525 201.282 302.525C202.844 302.525 204.111 304.673 204.111 306.717C204.111 308.761 202.844 309.932 201.282 309.932C199.72 309.932 198.453 308.763 198.453 306.717C198.453 306.024 198.597 305.32 198.851 304.692" fill="#FFA200"/>
<path d="M201.282 310.384C199.348 310.384 197.995 308.876 197.995 306.717C197.995 305.982 198.144 305.225 198.425 304.523C198.518 304.29 198.783 304.177 199.018 304.269C199.253 304.361 199.367 304.627 199.274 304.858C199.034 305.451 198.909 306.093 198.909 306.715C198.909 308.366 199.862 309.474 201.282 309.474C202.702 309.474 203.655 308.366 203.655 306.715C203.655 304.828 202.479 302.976 201.282 302.976C200.812 302.976 200.422 303.248 200.175 303.477C199.992 303.648 199.704 303.638 199.529 303.456C199.357 303.274 199.367 302.987 199.55 302.814C200.073 302.327 200.673 302.068 201.282 302.068C202.179 302.068 203.025 302.613 203.667 303.606C204.239 304.493 204.569 305.625 204.569 306.715C204.569 308.874 203.218 310.382 201.282 310.382V310.384Z" fill="black"/>
<path d="M206.551 306.23C207.405 306.23 208.097 305.542 208.097 304.694C208.097 303.846 207.405 303.158 206.551 303.158C205.697 303.158 205.005 303.846 205.005 304.694C205.005 305.542 205.697 306.23 206.551 306.23Z" fill="black"/>
<path d="M195.993 306.23C196.847 306.23 197.539 305.542 197.539 304.694C197.539 303.846 196.847 303.158 195.993 303.158C195.14 303.158 194.448 303.846 194.448 304.694C194.448 305.542 195.14 306.23 195.993 306.23Z" fill="black"/>
<path d="M191.679 311.246C190.234 311.246 189.048 310.377 189.011 309.269C188.999 308.897 189.116 308.53 189.348 308.204C189.469 308.038 189.701 307.999 189.869 308.119C190.036 308.239 190.076 308.47 189.955 308.636C189.815 308.83 189.748 309.033 189.755 309.243C189.778 309.962 190.703 310.539 191.772 310.502C192.842 310.467 193.725 309.83 193.699 309.112C193.688 308.781 193.488 308.467 193.137 308.232C192.749 307.971 192.23 307.837 191.684 307.855C191.349 307.867 191.022 307.936 190.733 308.056C190.543 308.135 190.324 308.047 190.245 307.858C190.166 307.668 190.255 307.451 190.445 307.373C190.822 307.216 191.229 307.128 191.659 307.114C192.363 307.091 193.037 307.269 193.555 307.618C194.111 307.992 194.427 308.514 194.446 309.089C194.485 310.227 193.295 311.195 191.798 311.246C191.759 311.246 191.717 311.246 191.677 311.246H191.679Z" fill="black"/>
<path d="M203.016 316.638C202.742 316.638 202.507 316.43 202.479 316.153C202.451 315.857 202.667 315.596 202.965 315.569C203.734 315.497 204.492 315.395 205.215 315.273C206.307 315.086 207.353 314.839 208.32 314.541C212.039 313.389 216.595 310.823 217.174 305.144C217.204 304.849 217.469 304.634 217.764 304.666C218.062 304.696 218.276 304.959 218.246 305.253C217.739 310.209 214.417 313.774 208.639 315.564C207.628 315.878 206.535 316.134 205.396 316.331C204.645 316.458 203.862 316.562 203.065 316.638C203.048 316.638 203.03 316.64 203.014 316.64L203.016 316.638Z" fill="black"/>
<path d="M199.555 316.737C199.555 316.737 199.538 316.737 199.531 316.737C194.999 316.548 190.297 315.259 188.095 313.601C187.858 313.423 187.812 313.086 187.991 312.85C188.17 312.615 188.509 312.569 188.746 312.747C190.757 314.262 195.31 315.488 199.576 315.666C199.873 315.677 200.106 315.929 200.092 316.224C200.08 316.513 199.841 316.737 199.552 316.737H199.555Z" fill="black"/>
<path d="M211.835 310.573C211.175 310.573 210.549 310.396 210.061 310.068C209.506 309.694 209.189 309.172 209.171 308.597C209.131 307.458 210.321 306.491 211.818 306.44C213.318 306.389 214.568 307.276 214.608 308.414C214.647 309.553 213.457 310.52 211.96 310.571C211.918 310.571 211.879 310.571 211.837 310.571L211.835 310.573ZM211.937 307.181C211.907 307.181 211.874 307.181 211.842 307.181C210.772 307.216 209.889 307.853 209.915 308.571C209.926 308.901 210.126 309.216 210.477 309.451C210.865 309.712 211.381 309.846 211.93 309.828C212.999 309.793 213.882 309.156 213.857 308.437C213.834 307.74 212.962 307.179 211.935 307.179L211.937 307.181Z" fill="black"/>
<path d="M160.979 287.291C163.004 287.291 163.079 285.03 163.079 284.09C163.079 283.733 163.054 283.367 163.02 283.001C162.887 281.613 162.1 280.848 160.979 280.848C159.841 280.848 159.046 281.646 158.929 283.093C158.903 283.434 158.887 283.758 158.887 284.074C158.887 284.423 158.903 284.772 158.937 285.13C159.071 286.526 159.866 287.291 160.979 287.291ZM160.979 286.418C160.435 286.418 159.983 285.928 159.882 285.08C159.841 284.739 159.824 284.39 159.824 284.041C159.824 283.741 159.841 283.434 159.866 283.126C159.949 282.237 160.393 281.704 160.979 281.704C162.125 281.704 162.125 283.351 162.125 283.991C162.125 284.39 162.1 284.797 162.05 285.163C161.933 285.953 161.498 286.418 160.979 286.418Z" fill="black"/>
<path d="M155.961 287.291C157.986 287.291 158.061 285.03 158.061 284.09C158.061 283.733 158.036 283.367 158.003 283.001C157.869 281.613 157.082 280.848 155.961 280.848C154.823 280.848 154.028 281.646 153.911 283.093C153.886 283.434 153.869 283.758 153.869 284.074C153.869 284.423 153.886 284.772 153.919 285.13C154.053 286.526 154.848 287.291 155.961 287.291ZM155.961 286.418C155.417 286.418 154.965 285.928 154.865 285.08C154.823 284.739 154.806 284.39 154.806 284.041C154.806 283.741 154.823 283.434 154.848 283.126C154.932 282.237 155.375 281.704 155.961 281.704C157.108 281.704 157.108 283.351 157.108 283.991C157.108 284.39 157.082 284.797 157.032 285.163C156.915 285.953 156.48 286.418 155.961 286.418Z" fill="black"/>
<path d="M150.944 287.291C152.969 287.291 153.044 285.03 153.044 284.09C153.044 283.733 153.019 283.367 152.986 283.001C152.852 281.613 152.065 280.848 150.944 280.848C149.806 280.848 149.011 281.646 148.894 283.093C148.869 283.434 148.852 283.758 148.852 284.074C148.852 284.423 148.869 284.772 148.902 285.13C149.036 286.526 149.831 287.291 150.944 287.291ZM150.944 286.418C150.4 286.418 149.948 285.928 149.848 285.08C149.806 284.739 149.789 284.39 149.789 284.041C149.789 283.741 149.806 283.434 149.831 283.126C149.915 282.237 150.358 281.704 150.944 281.704C152.09 281.704 152.09 283.351 152.09 283.991C152.09 284.39 152.065 284.797 152.015 285.163C151.898 285.953 151.463 286.418 150.944 286.418Z" fill="black"/>
<path d="M145.926 287.291C147.951 287.291 148.027 285.03 148.027 284.09C148.027 283.733 148.002 283.367 147.968 283.001C147.834 281.613 147.048 280.848 145.926 280.848C144.788 280.848 143.993 281.646 143.876 283.093C143.851 283.434 143.834 283.758 143.834 284.074C143.834 284.423 143.851 284.772 143.885 285.13C144.019 286.526 144.814 287.291 145.926 287.291ZM145.926 286.418C145.383 286.418 144.931 285.928 144.83 285.08C144.788 284.739 144.772 284.39 144.772 284.041C144.772 283.741 144.788 283.434 144.814 283.126C144.897 282.237 145.341 281.704 145.926 281.704C147.073 281.704 147.073 283.351 147.073 283.991C147.073 284.39 147.048 284.797 146.998 285.163C146.88 285.953 146.445 286.418 145.926 286.418Z" fill="black"/>
<path d="M140.909 287.291C142.934 287.291 143.009 285.03 143.009 284.09C143.009 283.733 142.984 283.367 142.951 283.001C142.817 281.613 142.03 280.848 140.909 280.848C139.771 280.848 138.976 281.646 138.859 283.093C138.834 283.434 138.817 283.758 138.817 284.074C138.817 284.423 138.834 284.772 138.867 285.13C139.001 286.526 139.796 287.291 140.909 287.291ZM140.909 286.418C140.365 286.418 139.913 285.928 139.813 285.08C139.771 284.739 139.754 284.39 139.754 284.041C139.754 283.741 139.771 283.434 139.796 283.126C139.88 282.237 140.323 281.704 140.909 281.704C142.055 281.704 142.055 283.351 142.055 283.991C142.055 284.39 142.03 284.797 141.98 285.163C141.863 285.953 141.428 286.418 140.909 286.418Z" fill="black"/>
<path d="M135.891 287.291C137.916 287.291 137.992 285.03 137.992 284.09C137.992 283.733 137.967 283.367 137.933 283.001C137.799 281.613 137.013 280.848 135.891 280.848C134.753 280.848 133.958 281.646 133.841 283.093C133.816 283.434 133.799 283.758 133.799 284.074C133.799 284.423 133.816 284.772 133.85 285.13C133.983 286.526 134.778 287.291 135.891 287.291ZM135.891 286.418C135.347 286.418 134.896 285.928 134.795 285.08C134.753 284.739 134.737 284.39 134.737 284.041C134.737 283.741 134.753 283.434 134.778 283.126C134.862 282.237 135.306 281.704 135.891 281.704C137.038 281.704 137.038 283.351 137.038 283.991C137.038 284.39 137.013 284.797 136.962 285.163C136.845 285.953 136.41 286.418 135.891 286.418Z" fill="black"/>
<path d="M130.874 287.291C132.899 287.291 132.974 285.03 132.974 284.09C132.974 283.733 132.949 283.367 132.915 283.001C132.782 281.613 131.995 280.848 130.874 280.848C129.736 280.848 128.941 281.646 128.824 283.093C128.798 283.434 128.782 283.758 128.782 284.074C128.782 284.423 128.798 284.772 128.832 285.13C128.966 286.526 129.761 287.291 130.874 287.291ZM130.874 286.418C130.33 286.418 129.878 285.928 129.778 285.08C129.736 284.739 129.719 284.39 129.719 284.041C129.719 283.741 129.736 283.434 129.761 283.126C129.844 282.237 130.288 281.704 130.874 281.704C132.02 281.704 132.02 283.351 132.02 283.991C132.02 284.39 131.995 284.797 131.945 285.163C131.828 285.953 131.393 286.418 130.874 286.418Z" fill="black"/>
<path d="M126.451 286.792C126.451 286.784 126.451 286.784 126.451 286.776C126.434 286.26 126.434 285.737 126.434 285.221C126.434 284.032 126.459 282.918 126.459 282.253C126.459 282.07 126.459 281.921 126.451 281.813C126.425 281.264 126.057 280.923 125.48 280.923C125.304 280.923 125.237 280.923 125.07 280.931C124.785 280.956 124.635 281.197 124.635 281.438C124.635 281.663 124.777 281.879 125.062 281.879C125.078 281.879 125.087 281.879 125.103 281.879C125.128 281.879 125.154 281.879 125.179 281.879C125.463 281.879 125.505 281.971 125.505 283.134C125.505 284.232 125.472 286.003 125.472 286.776C125.472 287.075 125.723 287.233 125.965 287.233C126.208 287.233 126.451 287.083 126.451 286.792Z" fill="black"/>
<path d="M165.565 303.631C165.565 304.119 165.23 304.263 164.784 304.263C164.572 304.263 164.338 304.23 164.092 304.186C164.059 304.175 164.025 304.175 163.992 304.175C163.691 304.175 163.523 304.441 163.523 304.718C163.523 305.305 164.07 305.35 164.751 305.35C166.257 305.35 166.714 304.518 166.714 303.864C166.714 303.853 166.714 303.853 166.714 303.842L166.692 302.279C166.67 301.026 166.692 299.209 166.647 297.579C166.625 296.803 165.967 296.326 165.286 296.315C164.394 296.293 163.401 296.293 162.419 296.293C161.437 296.293 160.477 296.293 159.618 296.315C158.77 296.326 158.224 296.792 158.212 297.49C158.201 298.178 158.146 301.448 158.146 305.017C158.146 305.339 158.436 305.505 158.726 305.505C159.005 305.505 159.284 305.339 159.284 305.017V305.006C159.272 304.075 159.272 303.155 159.272 302.257C159.272 301.88 159.272 301.514 159.272 301.148H165.565V303.631ZM162.988 300.195V297.247C163.601 297.247 164.204 297.258 164.751 297.269C165.297 297.28 165.509 297.368 165.532 297.978C165.554 298.588 165.565 299.375 165.565 300.184L162.988 300.195ZM161.872 300.195L159.284 300.184C159.295 299.419 159.295 298.676 159.317 297.978C159.328 297.435 159.496 297.28 160.131 297.269C160.622 297.258 161.225 297.247 161.872 297.247V300.195Z" fill="black"/>
<path d="M155.401 297.623C155.747 297.623 155.903 297.368 155.903 297.102C155.903 296.836 155.735 296.559 155.401 296.559H147.066C146.709 296.559 146.52 296.825 146.52 297.091C146.52 297.357 146.698 297.623 147.055 297.623H147.066L150.224 297.59C150.179 300.195 149.22 302.878 146.653 304.197C146.408 304.33 146.308 304.518 146.308 304.707C146.308 305.017 146.575 305.316 146.921 305.316C147.022 305.316 147.144 305.294 147.256 305.228C149.264 304.13 150.458 302.368 151.016 300.106C151.496 300.106 152.098 300.095 152.634 300.095C152.768 300.095 152.89 300.095 153.013 300.095C153.236 300.095 153.426 300.206 153.426 300.517C153.426 302.467 153.058 304.108 151.674 304.108C151.328 304.108 150.949 304.019 150.559 303.853C150.48 303.82 150.413 303.809 150.347 303.809C150.034 303.809 149.844 304.13 149.844 304.43C149.844 304.651 149.945 304.873 150.179 304.951C150.726 305.139 151.228 305.228 151.685 305.228C153.459 305.228 154.564 303.953 154.564 300.339C154.564 299.574 154.107 299.109 153.37 299.098C153.169 299.098 152.968 299.098 152.745 299.098C152.232 299.098 151.674 299.098 151.206 299.109C151.284 298.621 151.34 298.111 151.362 297.59L155.401 297.623Z" fill="black"/>
<path d="M144.344 300.727C144.667 300.727 144.824 300.472 144.824 300.217C144.824 299.951 144.656 299.685 144.344 299.685L140.651 299.696V297.513C141.61 297.38 142.503 297.213 143.161 297.036C143.395 296.969 143.496 296.77 143.496 296.559C143.496 296.282 143.317 295.994 142.96 295.994C142.905 295.994 142.838 295.994 142.771 296.016C140.673 296.57 138.475 296.814 136.556 296.836C136.188 296.836 136.009 297.08 136.009 297.335C136.009 297.601 136.21 297.878 136.601 297.878C137.415 297.878 138.799 297.734 139.49 297.657V299.696L135.876 299.685C135.53 299.685 135.362 299.94 135.362 300.206C135.362 300.461 135.53 300.727 135.876 300.727L139.49 300.716L139.479 304.928C139.479 305.294 139.769 305.472 140.071 305.472C140.361 305.472 140.662 305.294 140.662 304.928L140.651 300.716L144.344 300.727Z" fill="black"/>
<path d="M132.16 299.098C132.45 299.098 132.595 298.876 132.595 298.654C132.595 298.444 132.45 298.222 132.16 298.222L129.527 298.233V297.568L132.997 297.579C133.287 297.579 133.432 297.357 133.432 297.136C133.432 296.914 133.287 296.692 132.997 296.692H129.527V296.083C129.527 295.706 129.237 295.528 128.947 295.528C128.657 295.528 128.367 295.706 128.367 296.083V296.703L124.886 296.692C124.584 296.692 124.428 296.914 124.428 297.136C124.428 297.357 124.584 297.579 124.886 297.579L128.367 297.568V298.233L125.723 298.222C125.421 298.222 125.276 298.444 125.276 298.654C125.276 298.876 125.421 299.098 125.723 299.098H132.16ZM125.287 301.525C125.287 301.082 125.287 301.082 125.287 301.082C125.299 300.794 125.332 300.616 125.935 300.605C126.615 300.594 127.563 300.583 128.545 300.583C129.739 300.583 130.978 300.594 131.87 300.605C132.473 300.616 132.473 300.672 132.473 301.559C132.473 301.57 132.473 301.57 132.473 301.581C132.473 301.88 132.74 302.046 133.019 302.046C133.588 302.046 133.588 301.581 133.588 301.215C133.588 301.06 133.588 300.905 133.577 300.772C133.555 300.04 132.874 299.741 132.272 299.73C131.312 299.707 130.208 299.696 129.092 299.696C127.809 299.696 126.515 299.707 125.41 299.73C124.261 299.741 124.216 300.561 124.216 301.182C124.216 301.592 124.216 302.002 124.741 302.002C125.008 302.002 125.287 301.836 125.287 301.536V301.525ZM127.396 303.255C128.612 303.088 130.487 302.689 131.491 302.334C131.68 302.268 131.77 302.091 131.77 301.913C131.77 301.647 131.58 301.37 131.268 301.37C131.212 301.37 131.145 301.381 131.067 301.403C129.851 301.847 128.579 302.135 127.407 302.29C127.407 301.947 127.418 301.636 127.418 301.437C127.418 301.126 127.162 300.971 126.905 300.971C126.637 300.971 126.381 301.126 126.358 301.437C126.347 301.791 126.336 303.487 126.336 303.92C126.336 305.161 127.151 305.239 129.248 305.239C129.884 305.239 130.509 305.217 131.056 305.161C132.171 305.05 132.696 304.396 132.696 303.354C132.696 302.833 132.194 302.822 132.104 302.822C131.837 302.822 131.591 302.966 131.591 303.288C131.591 304.13 131.29 304.285 129.326 304.285C128.813 304.285 128.3 304.252 127.82 304.208C127.541 304.186 127.407 304.008 127.396 303.731V303.255Z" fill="black"/>
</g>
<path d="M112.6 305.31C120.308 308.013 127.915 316.43 126.751 323.114C125.58 329.798 116.086 332.214 108.371 329.511C100.663 326.807 97.6588 320.003 98.823 313.319C99.9939 306.634 104.885 302.606 112.6 305.31Z" fill="white"/>
<path d="M114.814 334.261C112.445 334.261 110.03 333.86 107.755 333.063C103.547 331.585 100.248 328.848 98.2273 325.148C96.2133 321.455 95.5308 316.945 96.3204 312.442C97.1032 307.946 99.1908 304.4 102.188 302.466C105.193 300.526 109.013 300.285 113.222 301.757C117.41 303.229 121.585 306.206 124.676 309.933C128.423 314.449 130.049 319.441 129.253 323.991C128.457 328.54 125.372 331.879 120.575 333.398C118.762 333.973 116.801 334.254 114.807 334.254L114.814 334.261ZM108.029 308.12C106.624 308.12 105.373 308.454 104.329 309.13C102.77 310.134 101.74 311.887 101.332 314.202C100.93 316.517 101.265 318.758 102.309 320.672C103.607 323.054 105.922 324.887 108.986 325.964C112.379 327.155 116.286 327.269 119.444 326.265C122.074 325.436 123.954 323.857 124.235 322.238C124.516 320.625 123.372 317.982 121.324 315.507C118.855 312.536 115.363 310.047 111.97 308.862C110.552 308.367 109.227 308.12 108.016 308.12H108.029Z" fill="#4D3A3B"/>
<path d="M225.598 304.386C217.891 307.089 210.283 315.507 211.447 322.191C212.618 328.875 222.112 331.29 229.827 328.587C237.535 325.884 240.539 319.079 239.375 312.395C238.204 305.711 233.313 301.683 225.598 304.386Z" fill="white"/>
<path d="M223.384 333.338C225.752 333.338 228.168 332.936 230.443 332.14C234.651 330.661 237.95 327.925 239.97 324.225C241.984 320.531 242.667 316.022 241.877 311.519C241.095 307.022 239.007 303.476 236.009 301.543C233.005 299.602 229.185 299.361 224.976 300.833C220.788 302.305 216.613 305.283 213.521 309.01C209.774 313.526 208.149 318.517 208.945 323.067C209.741 327.617 212.825 330.956 217.623 332.475C219.436 333.05 221.397 333.331 223.39 333.331L223.384 333.338ZM230.168 307.196C231.573 307.196 232.825 307.531 233.868 308.207C235.427 309.21 236.458 310.963 236.866 313.278C237.267 315.593 236.933 317.835 235.889 319.749C234.591 322.131 232.276 323.964 229.211 325.041C225.819 326.232 221.912 326.346 218.754 325.342C216.124 324.512 214.244 322.933 213.963 321.314C213.682 319.702 214.826 317.059 216.873 314.583C219.342 311.612 222.835 309.123 226.227 307.939C227.646 307.444 228.971 307.196 230.182 307.196H230.168Z" fill="#4D3A3B"/>
<defs>
<clipPath id="clip0_3276_1544">
<rect width="107" height="51" fill="white" transform="translate(118 274)"/>
</clipPath>
</defs>
</svg>
