<svg width="350" height="350" viewBox="0 0 350 350" fill="none" xmlns="http://www.w3.org/2000/svg">
<path d="M295.027 211.638C295.027 274.013 229.173 307.506 158.753 307.506C88.3325 307.506 31.4185 280.852 31.4185 218.471C31.4185 156.089 88.3325 81.6199 158.753 81.6199C229.173 81.6199 295.027 149.257 295.027 211.638Z" fill="white"/>
<path d="M295.027 205.044C292.834 205.044 290.971 203.354 290.799 201.127C288.287 169.204 273.747 139.627 249.843 117.837C225.329 95.4905 193.665 84.2044 160.688 86.0601C150.867 86.6101 141.052 88.3199 131.502 91.1364C129.256 91.7992 126.89 90.5135 126.227 88.2669C125.564 86.0137 126.85 83.6544 129.103 82.9917C139.276 79.9896 149.74 78.1737 160.211 77.5839C195.487 75.5958 229.352 87.6705 255.569 111.568C268.035 122.934 278.168 136.373 285.69 151.523C293.357 166.971 297.93 183.439 299.269 200.465C299.454 202.804 297.705 204.852 295.365 205.031C295.253 205.037 295.14 205.044 295.027 205.044V205.044Z" fill="#4D3A3B"/>
<path d="M49.7757 273.754C48.5364 273.754 47.3037 273.211 46.4621 272.17C34.8513 257.743 28.3567 239.75 27.1771 218.709C24.5527 172.014 51.28 124.624 95.2711 97.9691C97.2791 96.7563 99.8902 97.3925 101.103 99.4006C102.316 101.409 101.68 104.02 99.6715 105.232C58.3313 130.276 33.2078 174.632 35.6598 218.225C36.7401 237.457 42.6051 253.813 53.0826 266.836C54.5539 268.665 54.2623 271.335 52.4332 272.807C51.6512 273.436 50.7101 273.748 49.769 273.748L49.7757 273.754Z" fill="#4D3A3B"/>
<path d="M291.156 115.597C291.176 115.2 291.19 114.809 291.19 114.404C291.19 101.422 281.123 90.7455 268.386 89.7647C268.478 88.8236 268.531 87.8693 268.531 86.9018C268.531 71.3346 255.867 58.6635 240.293 58.6635C224.719 58.6635 212.055 71.3279 212.055 86.9018C212.055 102.476 224.719 115.14 240.293 115.14C240.783 115.14 241.274 115.127 241.758 115.1C242.096 127.129 251.056 137.036 262.666 138.832C262.375 140.449 262.216 142.113 262.216 143.809C262.216 159.376 274.88 172.047 290.454 172.047C306.028 172.047 318.692 159.383 318.692 143.809C318.692 128.235 306.406 115.968 291.163 115.591L291.156 115.597Z" fill="#F7004C"/>
<path fill-rule="evenodd" clip-rule="evenodd" d="M207.747 86.9017C207.747 68.9488 222.34 54.3557 240.293 54.3557C257.974 54.3557 272.394 68.5154 272.829 86.0854C284.914 88.7958 294.173 99.0558 295.367 111.64C310.972 113.982 323 127.285 323 143.809C323 161.762 308.407 176.355 290.454 176.355C272.5 176.355 257.908 161.755 257.908 143.809C257.908 143.255 257.923 142.704 257.951 142.158C247.62 138.984 239.735 130.193 237.864 119.358C221.042 118.112 207.747 104.038 207.747 86.9017ZM291.275 119.903C290.646 119.921 290.008 119.801 289.408 119.534C287.78 118.811 286.765 117.161 286.854 115.382C286.872 115.029 286.882 114.714 286.882 114.404C286.882 103.693 278.568 94.8691 268.055 94.0595C266.9 93.9706 265.829 93.4202 265.085 92.5325C264.34 91.6449 263.985 90.4948 264.099 89.342C264.179 88.5243 264.224 87.7119 264.224 86.9017C264.224 73.7129 253.487 62.971 240.293 62.971C227.098 62.971 216.362 73.7069 216.362 86.9017C216.362 100.096 227.098 110.832 240.293 110.832C240.706 110.832 241.118 110.821 241.522 110.799C242.683 110.735 243.82 111.144 244.675 111.931C245.53 112.718 246.031 113.817 246.064 114.979C246.342 124.904 253.744 133.093 263.325 134.575C264.472 134.753 265.499 135.386 266.174 136.331C266.848 137.276 267.112 138.454 266.906 139.597C266.657 140.975 266.523 142.382 266.523 143.809C266.523 156.998 277.26 167.74 290.454 167.74C303.649 167.74 314.385 157.004 314.385 143.809C314.385 130.68 304.112 120.335 291.275 119.903Z" fill="#4D3A3B"/>
<path d="M149.05 29.1329C165.929 19.4373 185.427 16.7401 199.874 25.8127C223.5 40.6376 224.686 81.2886 207.594 108.533C190.503 135.777 161.602 139.296 137.969 124.471C114.344 109.646 104.94 82.0905 122.031 54.8462C125.438 49.4252 129.633 44.4217 134.358 40.0014" fill="white"/>
<path d="M166.507 137.367C156.122 137.367 145.465 134.186 135.71 128.07C122.933 120.051 114.026 108.447 110.62 95.3911C106.962 81.368 109.666 66.5696 118.433 52.5929C121.972 46.9466 126.359 41.6714 131.456 36.8998C133.172 35.2961 135.856 35.3888 137.46 37.1053C139.064 38.8217 138.971 41.5057 137.254 43.1095C132.688 47.3774 128.778 52.0826 125.624 57.106C118.128 69.0482 115.782 81.547 118.838 93.2439C121.694 104.199 129.289 114.013 140.223 120.873C163.657 135.578 189.284 129.713 203.99 106.273C211.916 93.6415 215.846 77.8026 214.759 62.8186C213.652 47.5232 207.562 35.6539 197.608 29.4111C185.48 21.8032 168.117 23.0756 151.158 32.8175C149.124 33.9839 146.526 33.2814 145.359 31.2469C144.193 29.2123 144.896 26.6145 146.93 25.4481C166.659 14.1157 187.296 12.9029 202.128 22.2141C214.434 29.9347 221.93 44.1433 223.235 62.2089C224.441 78.9491 220.054 96.6569 211.187 110.793C202.419 124.769 190.265 133.636 176.05 136.446C172.915 137.063 169.721 137.374 166.5 137.374L166.507 137.367Z" fill="#4D3A3B"/>
<path d="M170.098 73.2631L173.71 92.3824L192.942 87.5976L194.314 105.312L210.418 98.5589" fill="white"/>
<path d="M194.314 109.56C193.545 109.56 192.776 109.348 192.101 108.937C190.934 108.228 190.185 107.002 190.079 105.637L189.098 92.9258L174.737 96.4979C173.604 96.7828 172.405 96.584 171.417 95.9545C170.43 95.3249 169.754 94.3175 169.535 93.1644L165.923 74.0451C165.486 71.7388 167.003 69.5187 169.31 69.0813C171.616 68.6439 173.836 70.1616 174.273 72.4678L177.05 87.1668L191.922 83.4689C193.134 83.1707 194.42 83.4159 195.434 84.1449C196.448 84.8739 197.091 86.0137 197.184 87.2596L198.098 99.109L208.774 94.629C210.935 93.7211 213.427 94.7417 214.335 96.9021C215.243 99.0626 214.222 101.554 212.062 102.462L195.964 109.215C195.434 109.434 194.877 109.547 194.321 109.547L194.314 109.56Z" fill="#4D3A3B"/>
<path d="M154.352 204.043C157.639 200.968 161.45 199.106 165.519 199.106C177.825 199.106 187.799 216.124 187.799 232.335C187.799 248.545 177.825 257.809 165.519 257.809C153.212 257.809 143.238 248.545 143.238 232.335C143.238 226.847 144.385 221.267 146.373 216.284" fill="#FFA200"/>
<path d="M165.525 261.401C150.289 261.401 139.646 249.446 139.646 232.335C139.646 226.516 140.819 220.505 143.039 214.952C143.775 213.109 145.869 212.208 147.711 212.943C149.554 213.679 150.455 215.773 149.713 217.616C147.831 222.328 146.836 227.417 146.836 232.335C146.836 245.423 154.345 254.211 165.525 254.211C176.705 254.211 184.214 245.417 184.214 232.335C184.214 217.377 174.955 202.698 165.525 202.698C161.827 202.698 158.745 204.858 156.817 206.668C155.366 208.026 153.092 207.953 151.734 206.502C150.375 205.051 150.448 202.777 151.9 201.419C156.028 197.549 160.74 195.507 165.525 195.507C172.59 195.507 179.263 199.835 184.306 207.695C188.819 214.72 191.404 223.699 191.404 232.328C191.404 249.446 180.761 261.395 165.525 261.395V261.401Z" fill="#4D3A3B"/>
<path d="M207.018 228.458C213.742 228.458 219.192 223.007 219.192 216.284C219.192 209.56 213.742 204.11 207.018 204.11C200.295 204.11 194.844 209.56 194.844 216.284C194.844 223.007 200.295 228.458 207.018 228.458Z" fill="#4D3A3B"/>
<path d="M123.874 228.458C130.598 228.458 136.048 223.007 136.048 216.284C136.048 209.56 130.598 204.11 123.874 204.11C117.151 204.11 111.7 209.56 111.7 216.284C111.7 223.007 117.151 228.458 123.874 228.458Z" fill="#4D3A3B"/>
<path d="M89.903 268.227C78.5242 268.227 69.1932 261.342 68.895 252.561C68.7956 249.618 69.7167 246.702 71.5591 244.131C72.5068 242.812 74.3425 242.507 75.6613 243.448C76.9801 244.396 77.2849 246.232 76.3439 247.551C75.2504 249.082 74.7202 250.699 74.7799 252.362C74.9721 258.048 82.2487 262.621 90.6585 262.336C99.075 262.051 106.027 257.008 105.835 251.322C105.749 248.697 104.171 246.219 101.395 244.343C98.3328 242.269 94.2637 241.208 89.9494 241.354C87.3185 241.44 84.7339 241.99 82.4674 242.945C80.9696 243.574 79.2466 242.872 78.617 241.374C77.9874 239.876 78.6899 238.153 80.1876 237.524C83.15 236.278 86.3641 235.589 89.7506 235.476C95.3042 235.29 100.606 236.709 104.688 239.472C109.062 242.435 111.554 246.57 111.706 251.123C112.011 260.149 102.654 267.817 90.8507 268.214C90.5326 268.227 90.2145 268.227 89.8964 268.227H89.903Z" fill="#4D3A3B"/>
<path d="M179.171 310.972C177.003 310.972 175.155 309.322 174.949 307.129C174.724 304.796 176.44 302.722 178.78 302.496C184.837 301.92 190.801 301.131 196.501 300.15C205.109 298.672 213.334 296.717 220.948 294.345C250.234 285.213 286.106 264.881 290.672 219.869C290.911 217.536 292.999 215.833 295.331 216.072C297.664 216.31 299.367 218.391 299.129 220.724C295.139 260.003 268.982 288.268 223.48 302.457C215.514 304.942 206.925 306.983 197.945 308.527C192.034 309.541 185.857 310.363 179.588 310.953C179.449 310.966 179.316 310.972 179.184 310.972H179.171Z" fill="#4D3A3B"/>
<path d="M151.92 311.754C151.861 311.754 151.801 311.754 151.741 311.754C116.054 310.257 79.0216 300.038 61.6983 286.896C59.8294 285.478 59.4649 282.814 60.8831 280.945C62.3013 279.076 64.9654 278.711 66.8343 280.13C82.66 292.131 118.519 301.86 152.099 303.265C154.445 303.364 156.261 305.346 156.168 307.685C156.076 309.965 154.193 311.754 151.927 311.754H151.92Z" fill="#4D3A3B"/>
<path d="M248.61 262.892C243.414 262.892 238.484 261.481 234.64 258.876C230.266 255.914 227.774 251.779 227.622 247.226C227.317 238.2 236.675 230.532 248.478 230.134C260.281 229.73 270.135 236.762 270.433 245.788C270.738 254.814 261.381 262.482 249.578 262.879C249.253 262.892 248.928 262.899 248.61 262.899V262.892ZM249.419 235.999C249.173 235.999 248.928 235.999 248.676 236.013C240.26 236.298 233.308 241.341 233.5 247.027C233.586 249.651 235.164 252.13 237.94 254.005C241.002 256.08 245.065 257.133 249.386 256.994C257.802 256.709 264.754 251.666 264.562 245.98C264.376 240.46 257.517 235.999 249.419 235.999V235.999Z" fill="#4D3A3B"/>
<circle cx="167.152" cy="293.827" r="32.1999" fill="white" stroke="white" stroke-width="2"/>
<path d="M141.609 292.388L155.979 281.7V284.736L145.164 292.779L144.085 293.581L145.163 294.383L155.979 302.43V305.462L141.609 294.774V292.388ZM171.12 278.06H173.84L164.173 308.604H161.453L171.12 278.06ZM193.683 294.775L179.314 305.462V302.43L190.13 294.383L191.208 293.581L190.129 292.779L179.314 284.736V281.7L193.683 292.387V294.775ZM167.648 252.713C145.213 252.713 127.028 270.898 127.028 293.331C127.028 315.766 145.213 333.951 167.648 333.951C190.081 333.951 208.266 315.766 208.266 293.331C208.266 270.898 190.081 252.713 167.648 252.713Z" fill="#4D3A3B" stroke="white" stroke-width="2"/>
<path d="M122.679 304.534C130.313 307.211 137.848 315.548 136.695 322.169C135.536 328.789 126.132 331.182 118.491 328.504C110.856 325.827 107.88 319.087 109.034 312.466C110.193 305.846 115.038 301.856 122.679 304.534Z" fill="white"/>
<path d="M124.873 333.209C122.527 333.209 120.134 332.812 117.881 332.023C113.712 330.559 110.445 327.848 108.444 324.183C106.449 320.525 105.773 316.058 106.555 311.598C107.33 307.145 109.398 303.632 112.367 301.717C115.343 299.795 119.127 299.557 123.295 301.015C127.444 302.473 131.579 305.422 134.641 309.113C138.352 313.586 139.963 318.53 139.174 323.037C138.385 327.543 135.33 330.85 130.579 332.355C128.783 332.924 126.841 333.203 124.866 333.203L124.873 333.209ZM118.153 307.317C116.761 307.317 115.522 307.649 114.488 308.318C112.944 309.312 111.923 311.048 111.519 313.341C111.121 315.634 111.453 317.854 112.486 319.75C113.772 322.109 116.065 323.925 119.1 324.992C122.46 326.171 126.331 326.284 129.459 325.29C132.063 324.468 133.925 322.904 134.204 321.3C134.482 319.703 133.349 317.086 131.321 314.634C128.875 311.691 125.416 309.226 122.056 308.053C120.651 307.562 119.339 307.317 118.139 307.317H118.153Z" fill="#4D3A3B"/>
<path d="M214.792 302.629C207.158 305.306 199.623 313.643 200.776 320.264C201.935 326.884 211.339 329.277 218.98 326.599C226.615 323.922 229.59 317.182 228.437 310.561C227.278 303.941 222.433 299.951 214.792 302.629Z" fill="white"/>
<path d="M212.598 331.304C214.944 331.304 217.337 330.907 219.59 330.118C223.758 328.654 227.026 325.943 229.027 322.278C231.022 318.62 231.698 314.153 230.916 309.693C230.14 305.24 228.073 301.727 225.104 299.812C222.128 297.89 218.344 297.652 214.176 299.11C210.027 300.568 205.892 303.517 202.83 307.208C199.119 311.681 197.508 316.625 198.297 321.132C199.085 325.638 202.141 328.945 206.892 330.45C208.688 331.019 210.63 331.298 212.605 331.298L212.598 331.304ZM219.318 305.412C220.71 305.412 221.949 305.743 222.983 306.413C224.527 307.407 225.548 309.143 225.952 311.436C226.35 313.729 226.018 315.949 224.984 317.845C223.699 320.204 221.406 322.02 218.37 323.087C215.011 324.266 211.14 324.379 208.012 323.385C205.408 322.563 203.546 320.999 203.267 319.395C202.989 317.798 204.122 315.181 206.15 312.729C208.595 309.786 212.055 307.321 215.415 306.148C216.82 305.657 218.132 305.412 219.331 305.412H219.318Z" fill="#4D3A3B"/>
</svg>
