<svg width="350" height="350" viewBox="0 0 350 350" fill="none" xmlns="http://www.w3.org/2000/svg">
<path d="M302.28 213.771C302.28 279.696 232.678 315.095 158.25 315.095C83.8228 315.095 23.6699 286.924 23.6699 220.993C23.6699 155.061 83.8228 76.3541 158.25 76.3541C232.678 76.3541 302.28 147.84 302.28 213.771Z" fill="white"/>
<path d="M302.28 206.802C299.961 206.802 297.993 205.016 297.811 202.662C295.157 168.923 279.789 137.663 254.525 114.633C228.616 91.0141 195.149 79.0858 160.296 81.047C149.916 81.6284 139.542 83.4355 129.449 86.4123C127.075 87.1127 124.574 85.7539 123.874 83.3794C123.173 80.998 124.532 78.5044 126.913 77.804C137.665 74.6311 148.725 72.7119 159.792 72.0885C197.075 69.9872 232.867 82.749 260.576 108.007C273.751 120.019 284.461 134.224 292.411 150.235C300.515 166.562 305.348 183.968 306.763 201.962C306.959 204.435 305.11 206.599 302.637 206.788C302.518 206.795 302.399 206.802 302.28 206.802V206.802Z" fill="#4D3A3B"/>
<path d="M43.0718 279.422C41.762 279.422 40.4592 278.848 39.5696 277.748C27.2981 262.5 20.4339 243.483 19.1872 221.245C16.4135 171.893 44.6618 121.805 91.1562 93.6337C93.2785 92.3519 96.0382 93.0243 97.32 95.1466C98.6018 97.2689 97.9294 100.029 95.8071 101.31C52.1143 127.78 25.5611 174.659 28.1526 220.734C29.2943 241.06 35.4931 258.347 46.5669 272.11C48.1219 274.043 47.8137 276.866 45.8805 278.421C45.054 279.086 44.0594 279.415 43.0648 279.415L43.0718 279.422Z" fill="#4D3A3B"/>
<path d="M298.189 112.265C298.21 111.845 298.224 111.432 298.224 111.004C298.224 97.283 287.585 85.9991 274.122 84.9624C274.22 83.9678 274.276 82.9592 274.276 81.9366C274.276 65.4835 260.891 52.0913 244.431 52.0913C227.971 52.0913 214.586 65.4765 214.586 81.9366C214.586 98.3967 227.971 111.782 244.431 111.782C244.95 111.782 245.468 111.768 245.979 111.74C246.336 124.453 255.806 134.924 268.078 136.822C267.77 138.531 267.601 140.289 267.601 142.082C267.601 158.536 280.987 171.928 297.447 171.928C313.907 171.928 327.292 158.543 327.292 142.082C327.292 125.622 314.306 112.657 298.196 112.258L298.189 112.265Z" fill="#F7004C"/>
<path fill-rule="evenodd" clip-rule="evenodd" d="M210.033 81.9365C210.033 62.962 225.456 47.5385 244.431 47.5385C263.117 47.5385 278.359 62.504 278.818 81.0738C291.591 83.9384 301.377 94.7824 302.639 108.083C319.132 110.558 331.844 124.618 331.844 142.082C331.844 161.057 316.421 176.48 297.446 176.48C278.471 176.48 263.048 161.049 263.048 142.082C263.048 141.497 263.064 140.915 263.094 140.337C252.175 136.983 243.841 127.692 241.863 116.24C224.084 114.923 210.033 100.048 210.033 81.9365ZM298.314 116.816C297.649 116.835 296.975 116.708 296.34 116.426C294.62 115.662 293.548 113.918 293.642 112.038C293.66 111.665 293.671 111.332 293.671 111.004C293.671 99.6831 284.884 90.3574 273.772 89.5017C272.552 89.4077 271.42 88.826 270.633 87.8878C269.847 86.9497 269.471 85.7341 269.591 84.5157C269.676 83.6515 269.723 82.7929 269.723 81.9365C269.723 67.9972 258.376 56.644 244.431 56.644C230.485 56.644 219.138 67.9909 219.138 81.9365C219.138 95.8822 230.485 107.229 244.431 107.229C244.868 107.229 245.303 107.217 245.73 107.194C246.956 107.127 248.158 107.558 249.062 108.39C249.966 109.222 250.495 110.384 250.53 111.612C250.824 122.102 258.647 130.757 268.773 132.323C269.986 132.51 271.072 133.18 271.784 134.179C272.497 135.178 272.776 136.422 272.558 137.63C272.295 139.087 272.154 140.574 272.154 142.082C272.154 156.022 283.501 167.375 297.446 167.375C311.392 167.375 322.739 156.028 322.739 142.082C322.739 128.206 311.881 117.273 298.314 116.816Z" fill="#4D3A3B"/>
<path d="M147.996 20.8802C165.836 10.6329 186.442 7.78217 201.712 17.371C226.682 33.0396 227.936 76.004 209.872 104.799C191.808 133.593 161.262 137.312 136.285 121.644C111.314 105.975 101.375 76.8515 119.439 48.0568C123.04 42.3273 127.473 37.0391 132.467 32.3672" fill="white"/>
<path d="M166.446 135.274C155.47 135.274 144.207 131.912 133.897 125.447C120.393 116.972 110.979 104.708 107.379 90.9091C103.512 76.088 106.37 60.4474 115.637 45.6754C119.377 39.7077 124.014 34.1323 129.4 29.0892C131.214 27.3942 134.051 27.4922 135.746 29.3063C137.441 31.1204 137.343 33.9572 135.529 35.6522C130.703 40.163 126.57 45.136 123.236 50.4453C115.314 63.067 112.835 76.2771 116.064 88.6397C119.083 100.218 127.11 110.591 138.667 117.841C163.434 133.383 190.519 127.184 206.062 102.41C214.439 89.0599 218.593 72.3197 217.444 56.483C216.274 40.3171 209.837 27.7724 199.317 21.1743C186.499 13.1334 168.148 14.4782 150.224 24.7745C148.073 26.0073 145.328 25.2648 144.095 23.1145C142.862 20.9642 143.605 18.2185 145.755 16.9858C166.607 5.00844 188.418 3.72666 204.094 13.5677C217.101 21.7277 225.023 36.7449 226.402 55.8386C227.677 73.5314 223.04 92.2469 213.669 107.187C204.402 121.959 191.556 131.331 176.532 134.301C173.219 134.952 169.843 135.281 166.439 135.281L166.446 135.274Z" fill="#4D3A3B"/>
<path d="M170.242 67.5217L174.059 87.7291L194.385 82.672L195.835 101.394L212.856 94.2571" fill="white"/>
<path d="M195.835 105.884C195.023 105.884 194.21 105.66 193.496 105.226C192.263 104.476 191.472 103.181 191.36 101.738L190.323 88.3035L175.145 92.0788C173.947 92.38 172.679 92.1698 171.635 91.5044C170.592 90.839 169.877 89.7744 169.646 88.5556L165.829 68.3482C165.367 65.9108 166.971 63.5643 169.408 63.102C171.846 62.6397 174.192 64.2437 174.654 66.6812L177.589 82.2167L193.307 78.3083C194.589 77.9932 195.947 78.2523 197.019 79.0228C198.091 79.7933 198.77 80.998 198.868 82.3148L199.835 94.8385L211.119 90.1036C213.402 89.144 216.036 90.2226 216.995 92.506C217.955 94.7894 216.876 97.4231 214.593 98.3826L197.579 105.52C197.019 105.751 196.431 105.87 195.842 105.87L195.835 105.884Z" fill="#4D3A3B"/>
<path d="M153.599 205.744C157.073 202.494 161.101 200.526 165.401 200.526C178.408 200.526 188.95 218.513 188.95 235.646C188.95 252.778 178.408 262.57 165.401 262.57C152.394 262.57 141.853 252.778 141.853 235.646C141.853 229.846 143.065 223.948 145.166 218.681" fill="#FFA200"/>
<path d="M165.408 266.366C149.306 266.366 138.057 253.731 138.057 235.646C138.057 229.496 139.296 223.143 141.643 217.273C142.42 215.326 144.634 214.374 146.581 215.151C148.528 215.929 149.481 218.142 148.696 220.089C146.707 225.069 145.656 230.448 145.656 235.646C145.656 249.479 153.592 258.767 165.408 258.767C177.225 258.767 185.16 249.472 185.16 235.646C185.16 219.837 175.375 204.322 165.408 204.322C161.5 204.322 158.243 206.606 156.205 208.518C154.671 209.954 152.268 209.877 150.832 208.343C149.397 206.809 149.474 204.406 151.008 202.971C155.371 198.88 160.351 196.723 165.408 196.723C172.875 196.723 179.928 201.297 185.259 209.604C190.028 217.028 192.76 226.519 192.76 235.639C192.76 253.731 181.511 266.359 165.408 266.359V266.366Z" fill="#4D3A3B"/>
<path d="M209.263 231.548C216.369 231.548 222.13 225.788 222.13 218.681C222.13 211.575 216.369 205.814 209.263 205.814C202.157 205.814 196.396 211.575 196.396 218.681C196.396 225.788 202.157 231.548 209.263 231.548Z" fill="#4D3A3B"/>
<path d="M121.387 231.548C128.493 231.548 134.254 225.788 134.254 218.681C134.254 211.575 128.493 205.814 121.387 205.814C114.281 205.814 108.52 211.575 108.52 218.681C108.52 225.788 114.281 231.548 121.387 231.548Z" fill="#4D3A3B"/>
<path d="M85.4828 273.581C73.4564 273.581 63.5944 266.304 63.2792 257.023C63.1741 253.913 64.1477 250.831 66.0949 248.113C67.0965 246.72 69.0367 246.397 70.4306 247.392C71.8244 248.394 72.1466 250.334 71.152 251.728C69.9963 253.346 69.4359 255.055 69.499 256.813C69.7021 262.822 77.3928 267.655 86.2813 267.354C95.1767 267.053 102.524 261.723 102.321 255.713C102.23 252.939 100.563 250.32 97.6282 248.338C94.3922 246.145 90.0916 245.025 85.5318 245.179C82.7511 245.27 80.0194 245.851 77.624 246.86C76.041 247.525 74.2199 246.783 73.5545 245.2C72.8891 243.617 73.6315 241.796 75.2145 241.13C78.3454 239.813 81.7425 239.085 85.3217 238.966C91.1913 238.77 96.7947 240.269 101.109 243.189C105.732 246.32 108.366 250.691 108.527 255.503C108.849 265.043 98.959 273.147 86.4844 273.567C86.1482 273.581 85.812 273.581 85.4758 273.581H85.4828Z" fill="#4D3A3B"/>
<path d="M179.83 318.759C177.54 318.759 175.586 317.015 175.369 314.696C175.131 312.231 176.945 310.038 179.417 309.8C185.819 309.191 192.123 308.357 198.147 307.321C207.245 305.759 215.938 303.692 223.985 301.185C254.937 291.533 292.852 270.044 297.678 222.471C297.93 220.005 300.136 218.205 302.602 218.457C305.067 218.709 306.867 220.909 306.615 223.374C302.398 264.889 274.753 294.762 226.661 309.758C218.242 312.385 209.164 314.542 199.674 316.174C193.426 317.246 186.898 318.114 180.272 318.738C180.125 318.752 179.984 318.759 179.844 318.759H179.83Z" fill="#4D3A3B"/>
<path d="M151.029 319.585C150.966 319.585 150.903 319.585 150.84 319.585C113.122 318.002 73.982 307.201 55.6728 293.312C53.6975 291.813 53.3123 288.997 54.8112 287.022C56.3102 285.047 59.1259 284.662 61.1011 286.161C77.8273 298.845 115.728 309.128 151.218 310.613C153.698 310.718 155.617 312.812 155.519 315.284C155.421 317.694 153.432 319.585 151.036 319.585H151.029Z" fill="#4D3A3B"/>
<path d="M253.221 267.942C247.73 267.942 242.519 266.451 238.456 263.698C233.834 260.567 231.2 256.196 231.039 251.384C230.717 241.845 240.607 233.741 253.081 233.32C265.556 232.893 275.971 240.325 276.287 249.864C276.609 259.404 266.719 267.508 254.244 267.928C253.901 267.942 253.558 267.949 253.221 267.949V267.942ZM254.076 239.519C253.817 239.519 253.558 239.519 253.292 239.533C244.396 239.834 237.049 245.165 237.252 251.174C237.343 253.948 239.01 256.568 241.945 258.55C245.181 260.742 249.474 261.856 254.041 261.709C262.936 261.407 270.284 256.077 270.081 250.068C269.885 244.233 262.635 239.519 254.076 239.519V239.519Z" fill="#4D3A3B"/>
<circle cx="167.127" cy="300.638" r="33.9754" fill="white" stroke="white" stroke-width="2"/>
<path d="M155.375 309.702V313.048L140.074 301.667V299.088L155.375 287.708V291.058L143.922 299.575L142.843 300.377L143.922 301.18L155.375 309.702ZM139.742 299.335L139.743 299.334L139.742 299.335ZM171.28 283.916H174.274L164.021 316.313H161.026L171.28 283.916ZM195.225 301.668L179.925 313.048V309.702L191.379 301.18L192.457 300.377L191.379 299.575L179.925 291.058V287.708L195.225 299.087V301.668ZM167.652 257.241C143.972 257.241 124.777 276.435 124.777 300.114C124.777 323.794 143.972 342.988 167.652 342.988C191.33 342.988 210.524 323.793 210.524 300.114C210.524 276.435 191.33 257.241 167.652 257.241Z" fill="#4D3A3B" stroke="white" stroke-width="2"/>
<path d="M120.124 311.954C128.193 314.783 136.157 323.595 134.938 330.592C133.712 337.589 123.773 340.118 115.697 337.288C107.628 334.458 104.483 327.335 105.702 320.338C106.928 313.34 112.048 309.124 120.124 311.954Z" fill="white"/>
<path d="M122.442 342.261C119.963 342.261 117.434 341.841 115.053 341.007C110.647 339.459 107.194 336.595 105.079 332.721C102.97 328.855 102.256 324.134 103.082 319.42C103.902 314.713 106.087 311.001 109.225 308.977C112.37 306.946 116.37 306.693 120.775 308.234C125.16 309.775 129.531 312.892 132.767 316.794C136.689 321.521 138.391 326.747 137.558 331.51C136.724 336.272 133.495 339.768 128.473 341.358C126.575 341.96 124.523 342.254 122.435 342.254L122.442 342.261ZM115.34 314.895C113.869 314.895 112.559 315.246 111.467 315.953C109.835 317.004 108.756 318.839 108.329 321.262C107.908 323.686 108.259 326.032 109.351 328.035C110.71 330.529 113.134 332.448 116.342 333.576C119.893 334.823 123.983 334.942 127.289 333.891C130.042 333.022 132.01 331.369 132.304 329.674C132.599 327.986 131.401 325.22 129.257 322.628C126.673 319.518 123.017 316.913 119.465 315.673C117.981 315.155 116.594 314.895 115.326 314.895H115.34Z" fill="#4D3A3B"/>
<path d="M217.479 309.94C209.41 312.77 201.446 321.581 202.665 328.579C203.89 335.576 213.829 338.104 221.905 335.275C229.974 332.445 233.119 325.322 231.901 318.324C230.675 311.327 225.555 307.11 217.479 309.94Z" fill="white"/>
<path d="M215.16 340.248C217.64 340.248 220.168 339.827 222.55 338.994C226.955 337.446 230.408 334.581 232.524 330.708C234.632 326.841 235.346 322.121 234.52 317.407C233.7 312.7 231.515 308.988 228.377 306.963C225.232 304.932 221.233 304.68 216.827 306.221C212.442 307.762 208.072 310.879 204.836 314.78C200.913 319.508 199.211 324.733 200.045 329.496C200.878 334.259 204.107 337.754 209.129 339.344C211.028 339.947 213.08 340.241 215.167 340.241L215.16 340.248ZM222.262 312.882C223.733 312.882 225.043 313.232 226.136 313.94C227.768 314.99 228.846 316.825 229.274 319.249C229.694 321.672 229.344 324.019 228.251 326.022C226.892 328.516 224.469 330.435 221.261 331.562C217.71 332.809 213.619 332.928 210.313 331.878C207.56 331.009 205.592 329.356 205.298 327.661C205.004 325.973 206.202 323.206 208.345 320.615C210.929 317.505 214.586 314.899 218.137 313.659C219.622 313.141 221.009 312.882 222.276 312.882H222.262Z" fill="#4D3A3B"/>
</svg>
