<svg width="350" height="350" viewBox="0 0 350 350" fill="none" xmlns="http://www.w3.org/2000/svg">
<path d="M296.605 223.52C296.605 286.495 230.118 320.311 159.02 320.311C87.9225 320.311 30.4609 293.4 30.4609 230.418C30.4609 167.437 87.9225 92.2512 159.02 92.2512C230.118 92.2512 296.605 160.539 296.605 223.52Z" fill="white"/>
<path d="M296.605 216.863C294.391 216.863 292.511 215.156 292.337 212.908C289.801 180.678 275.121 150.817 250.987 128.817C226.237 106.255 194.268 94.8606 160.974 96.7341C151.058 97.2894 141.149 99.0157 131.507 101.859C129.239 102.528 126.85 101.23 126.181 98.9622C125.512 96.6872 126.81 94.3053 129.085 93.6362C139.356 90.6052 149.921 88.7719 160.492 88.1764C196.108 86.1691 230.299 98.36 256.768 122.487C269.353 133.962 279.584 147.531 287.178 162.827C294.919 178.423 299.536 195.05 300.888 212.239C301.075 214.601 299.309 216.669 296.947 216.849C296.833 216.856 296.719 216.863 296.605 216.863V216.863Z" fill="#4D3A3B"/>
<path d="M48.9948 286.234C47.7436 286.234 46.4991 285.685 45.6493 284.635C33.9269 270.069 27.3698 251.903 26.1788 230.659C23.5292 183.515 50.5136 135.668 94.9279 108.758C96.9552 107.533 99.5914 108.175 100.816 110.203C102.04 112.23 101.398 114.866 99.3706 116.091C57.6327 141.376 32.2675 186.158 34.7431 230.171C35.8338 249.588 41.7552 266.101 52.3335 279.249C53.8189 281.095 53.5245 283.792 51.6778 285.277C50.8883 285.913 49.9382 286.227 48.9881 286.227L48.9948 286.234Z" fill="#4D3A3B"/>
<path d="M292.698 126.555C292.718 126.154 292.731 125.759 292.731 125.351C292.731 112.244 282.568 101.465 269.708 100.474C269.801 99.5242 269.855 98.5607 269.855 97.5838C269.855 81.8669 257.069 69.0739 241.345 69.0739C225.621 69.0739 212.835 81.8602 212.835 97.5838C212.835 113.307 225.621 126.094 241.345 126.094C241.84 126.094 242.335 126.08 242.824 126.054C243.165 138.198 252.211 148.201 263.933 150.014C263.639 151.646 263.478 153.326 263.478 155.039C263.478 170.756 276.265 183.549 291.988 183.549C307.712 183.549 320.498 170.762 320.498 155.039C320.498 139.315 308.093 126.93 292.704 126.549L292.698 126.555Z" fill="#F7004C"/>
<path fill-rule="evenodd" clip-rule="evenodd" d="M208.486 97.5838C208.486 79.4582 223.219 64.7247 241.345 64.7247C259.196 64.7247 273.755 79.0207 274.194 96.7596C286.395 99.4961 295.743 109.855 296.948 122.56C312.704 124.924 324.847 138.356 324.847 155.039C324.847 173.164 310.114 187.898 291.988 187.898C273.862 187.898 259.129 173.157 259.129 155.039C259.129 154.479 259.144 153.923 259.173 153.371C248.742 150.167 240.781 141.292 238.892 130.352C221.909 129.095 208.486 114.884 208.486 97.5838ZM292.818 130.903C292.182 130.921 291.538 130.799 290.932 130.53C289.289 129.8 288.264 128.134 288.354 126.338C288.372 125.982 288.382 125.664 288.382 125.351C288.382 114.536 279.988 105.628 269.374 104.811C268.208 104.721 267.127 104.165 266.375 103.269C265.624 102.373 265.265 101.212 265.38 100.048C265.461 99.222 265.506 98.4018 265.506 97.5838C265.506 84.2681 254.666 73.4229 241.345 73.4229C228.023 73.4229 217.184 84.2621 217.184 97.5838C217.184 110.905 228.023 121.745 241.345 121.745C241.762 121.745 242.178 121.733 242.586 121.711C243.757 121.647 244.905 122.059 245.769 122.854C246.632 123.648 247.138 124.758 247.171 125.931C247.453 135.952 254.925 144.22 264.598 145.716C265.757 145.895 266.794 146.534 267.474 147.489C268.155 148.443 268.422 149.632 268.213 150.786C267.963 152.177 267.828 153.598 267.828 155.039C267.828 168.354 278.667 179.199 291.988 179.199C305.31 179.199 316.149 168.36 316.149 155.039C316.149 141.783 305.778 131.339 292.818 130.903Z" fill="#4D3A3B"/>
<path d="M149.225 39.2591C166.266 29.4703 185.951 26.7471 200.537 35.907C224.39 50.8746 225.588 91.9166 208.332 119.423C191.076 146.929 161.897 150.482 138.037 135.515C114.184 120.547 104.69 92.7262 121.946 65.2199C125.385 59.7467 129.62 54.6951 134.391 50.2322" fill="white"/>
<path d="M166.849 148.535C156.364 148.535 145.605 145.323 135.756 139.148C122.856 131.052 113.863 119.336 110.424 106.155C106.731 91.9969 109.461 77.0561 118.313 62.945C121.886 57.2443 126.315 51.9183 131.46 47.1009C133.193 45.4817 135.903 45.5754 137.522 47.3083C139.142 49.0413 139.048 51.7511 137.315 53.3703C132.705 57.6792 128.757 62.4298 125.572 67.5015C118.005 79.5585 115.636 92.1775 118.721 103.987C121.605 115.047 129.273 124.956 140.313 131.881C163.972 146.729 189.845 140.807 204.692 117.141C212.695 104.388 216.662 88.3972 215.565 73.269C214.448 57.8264 208.299 45.843 198.249 39.5402C186.005 31.859 168.475 33.1437 151.353 42.9793C149.298 44.1569 146.676 43.4477 145.498 41.3935C144.32 39.3394 145.03 36.7166 147.084 35.539C167.003 24.0975 187.838 22.8731 202.812 32.2738C215.237 40.0687 222.805 54.4141 224.123 72.6535C225.341 89.5547 220.911 107.433 211.959 121.705C203.107 135.816 190.836 144.768 176.484 147.605C173.319 148.227 170.094 148.542 166.842 148.542L166.849 148.535Z" fill="#4D3A3B"/>
<path d="M170.475 83.8139L174.122 103.117L193.539 98.2863L194.924 116.171L211.183 109.353" fill="white"/>
<path d="M194.923 120.46C194.147 120.46 193.371 120.246 192.689 119.831C191.511 119.115 190.755 117.877 190.648 116.499L189.658 103.666L175.158 107.272C174.014 107.56 172.803 107.359 171.806 106.724C170.809 106.088 170.127 105.071 169.906 103.907L166.259 84.6034C165.818 82.275 167.35 80.0335 169.678 79.5919C172.007 79.1503 174.248 80.6826 174.69 83.011L177.493 97.8514L192.508 94.1179C193.732 93.8168 195.03 94.0644 196.054 94.8004C197.078 95.5364 197.727 96.6872 197.82 97.9451L198.744 109.908L209.523 105.385C211.704 104.469 214.22 105.499 215.137 107.68C216.053 109.862 215.023 112.377 212.842 113.294L196.589 120.112C196.054 120.333 195.492 120.447 194.93 120.447L194.923 120.46Z" fill="#4D3A3B"/>
<path d="M154.577 215.852C157.896 212.748 161.743 210.868 165.851 210.868C178.276 210.868 188.346 228.05 188.346 244.416C188.346 260.782 178.276 270.136 165.851 270.136C153.426 270.136 143.356 260.782 143.356 244.416C143.356 238.876 144.514 233.242 146.521 228.21" fill="#FFA200"/>
<path d="M165.858 273.762C150.476 273.762 139.73 261.692 139.73 244.416C139.73 238.541 140.914 232.473 143.156 226.866C143.898 225.005 146.013 224.096 147.873 224.838C149.733 225.581 150.643 227.695 149.893 229.555C147.993 234.313 146.99 239.451 146.99 244.416C146.99 257.63 154.57 266.503 165.858 266.503C177.146 266.503 184.726 257.624 184.726 244.416C184.726 229.314 175.379 214.494 165.858 214.494C162.124 214.494 159.013 216.675 157.066 218.502C155.601 219.874 153.306 219.8 151.934 218.335C150.563 216.869 150.636 214.574 152.101 213.203C156.27 209.295 161.027 207.234 165.858 207.234C172.99 207.234 179.728 211.604 184.82 219.539C189.377 226.631 191.986 235.698 191.986 244.409C191.986 261.692 181.24 273.755 165.858 273.755V273.762Z" fill="#4D3A3B"/>
<path d="M207.75 240.502C214.538 240.502 220.041 234.999 220.041 228.21C220.041 221.422 214.538 215.919 207.75 215.919C200.962 215.919 195.459 221.422 195.459 228.21C195.459 234.999 200.962 240.502 207.75 240.502Z" fill="#4D3A3B"/>
<path d="M123.806 240.502C130.594 240.502 136.097 234.999 136.097 228.21C136.097 221.422 130.594 215.919 123.806 215.919C117.018 215.919 111.515 221.422 111.515 228.21C111.515 234.999 117.018 240.502 123.806 240.502Z" fill="#4D3A3B"/>
<path d="M89.508 280.654C78.0198 280.654 68.599 273.702 68.2979 264.836C68.1975 261.866 69.1275 258.922 70.9876 256.326C71.9444 254.994 73.7978 254.686 75.1293 255.636C76.4608 256.593 76.7686 258.447 75.8185 259.778C74.7145 261.324 74.1792 262.956 74.2394 264.636C74.4334 270.377 81.78 274.993 90.2708 274.706C98.7683 274.418 105.787 269.326 105.593 263.585C105.506 260.936 103.914 258.433 101.11 256.54C98.0189 254.445 93.9107 253.375 89.5549 253.522C86.8986 253.609 84.2891 254.164 82.0008 255.128C80.4887 255.764 78.7491 255.054 78.1134 253.542C77.4778 252.03 78.187 250.29 79.6992 249.655C82.69 248.397 85.9351 247.701 89.3542 247.587C94.9611 247.4 100.314 248.832 104.435 251.622C108.851 254.613 111.367 258.788 111.521 263.385C111.829 272.498 102.381 280.239 90.4649 280.64C90.1437 280.654 89.8225 280.654 89.5014 280.654H89.508Z" fill="#4D3A3B"/>
<path d="M179.635 323.81C177.447 323.81 175.58 322.144 175.373 319.929C175.145 317.574 176.878 315.48 179.24 315.252C185.355 314.67 191.377 313.874 197.131 312.884C205.823 311.392 214.126 309.418 221.814 307.023C251.381 297.803 287.599 277.275 292.209 231.83C292.45 229.475 294.558 227.755 296.913 227.996C299.268 228.237 300.988 230.338 300.747 232.693C296.719 272.35 270.31 300.887 224.37 315.212C216.328 317.721 207.656 319.782 198.59 321.341C192.622 322.365 186.386 323.195 180.056 323.79C179.916 323.803 179.782 323.81 179.648 323.81H179.635Z" fill="#4D3A3B"/>
<path d="M152.122 324.6C152.062 324.6 152.001 324.6 151.941 324.6C115.911 323.087 78.5218 312.77 61.0318 299.502C59.145 298.07 58.777 295.38 60.2088 293.494C61.6407 291.607 64.3304 291.239 66.2173 292.671C82.1951 304.788 118.4 314.61 152.302 316.029C154.671 316.129 156.504 318.13 156.411 320.491C156.317 322.793 154.417 324.6 152.129 324.6H152.122Z" fill="#4D3A3B"/>
<path d="M249.742 275.268C244.497 275.268 239.519 273.842 235.638 271.213C231.222 268.222 228.706 264.047 228.552 259.45C228.244 250.337 237.692 242.596 249.609 242.194C261.525 241.786 271.474 248.885 271.776 257.998C272.083 267.111 262.636 274.853 250.719 275.254C250.391 275.268 250.063 275.274 249.742 275.274V275.268ZM250.559 248.116C250.311 248.116 250.063 248.116 249.809 248.129C241.312 248.417 234.293 253.509 234.487 259.25C234.574 261.899 236.166 264.402 238.97 266.295C242.061 268.389 246.163 269.453 250.525 269.313C259.023 269.025 266.041 263.933 265.847 258.192C265.66 252.619 258.735 248.116 250.559 248.116V248.116Z" fill="#4D3A3B"/>
<path d="M82.9861 307.678C85.4661 299.895 93.6607 292.049 100.376 293.02C107.091 293.998 109.779 303.419 107.299 311.208C104.819 318.991 98.1035 322.19 91.3885 321.218C84.6733 320.24 80.5062 315.467 82.9861 307.678Z" fill="white"/>
<path d="M111.862 304.631C111.93 306.998 111.598 309.424 110.868 311.721C109.511 315.97 106.871 319.347 103.23 321.473C99.5965 323.592 95.1084 324.404 90.5845 323.745C86.0675 323.092 82.4627 321.107 80.4436 318.167C78.4175 315.22 78.0667 311.408 79.4169 307.158C80.7677 302.929 83.6237 298.67 87.2599 295.473C91.6665 291.597 96.6091 289.828 101.18 290.493C105.751 291.158 109.177 294.145 110.833 298.897C111.461 300.693 111.798 302.644 111.855 304.637L111.862 304.631ZM85.9268 312.165C85.9673 313.57 86.3377 314.811 87.0433 315.835C88.0914 317.364 89.8733 318.343 92.1992 318.685C94.5248 319.019 96.7557 318.62 98.6385 317.522C100.982 316.156 102.748 313.789 103.737 310.695C104.829 307.27 104.831 303.361 103.736 300.233C102.831 297.628 101.199 295.794 99.5721 295.56C97.9522 295.325 95.3433 296.545 92.9277 298.663C90.0293 301.217 87.6418 304.779 86.5557 308.204C86.1017 309.637 85.8923 310.968 85.9272 312.178L85.9268 312.165Z" fill="#4D3A3B"/>
<rect x="31" y="283.826" width="163.218" height="20.8624" rx="7" transform="rotate(-5.91712 31 283.826)" fill="#4F4F4F"/>
<ellipse cx="170.979" cy="273.501" rx="8.61253" ry="4.13402" transform="rotate(-6.08913 170.979 273.501)" fill="#333333"/>
<ellipse cx="113.454" cy="278.946" rx="6.07269" ry="2.91489" transform="rotate(-6.08913 113.454 278.946)" fill="#BDBDBD"/>
<ellipse cx="94.3242" cy="281.195" rx="6.07269" ry="2.91489" transform="rotate(-6.08913 94.3242 281.195)" fill="#BDBDBD"/>
<ellipse cx="56.3242" cy="285.195" rx="6.07269" ry="2.91489" transform="rotate(-6.08913 56.3242 285.195)" fill="#BDBDBD"/>
<ellipse cx="75.1948" cy="283.443" rx="6.07269" ry="2.91489" transform="rotate(-6.08913 75.1948 283.443)" fill="#BDBDBD"/>
<path d="M204.333 295.644C199.203 288.008 187.872 282.1 180.916 285.263C173.962 288.433 174.018 299.466 179.151 307.11C184.281 314.746 192.549 316.093 199.505 312.93C206.46 309.76 209.465 303.288 204.333 295.644Z" fill="white"/>
<path d="M172.147 301.432C172.818 304.014 173.94 306.533 175.452 308.787C178.256 312.956 182.174 315.776 186.779 316.931C191.376 318.08 196.485 317.546 201.17 315.41C205.849 313.283 209.123 310.002 210.382 306.187C211.646 302.363 210.826 298.13 208.029 293.959C205.238 289.811 200.81 286.103 195.871 283.79C189.887 280.985 183.985 280.627 179.252 282.783C174.518 284.94 171.752 289.248 171.456 294.908C171.342 297.048 171.591 299.264 172.156 301.438L172.147 301.432ZM202.564 301.422C202.962 302.953 202.952 304.412 202.511 305.741C201.859 307.725 200.24 309.345 197.832 310.446C195.422 311.539 192.884 311.809 190.502 311.214C187.538 310.474 184.884 308.469 182.842 305.434C180.582 302.074 179.351 297.847 179.551 294.12C179.71 291.019 180.899 288.522 182.584 287.757C184.262 286.994 187.467 287.492 190.746 289.023C194.683 290.872 198.386 293.974 200.638 297.336C201.58 298.742 202.225 300.116 202.568 301.436L202.564 301.422Z" fill="#4D3A3B"/>
</svg>
