<svg width="350" height="350" viewBox="0 0 350 350" fill="none" xmlns="http://www.w3.org/2000/svg">
<g filter="url(#filter0_d_3271_183)">
<path d="M218.023 272.84C222.573 280.85 225.169 288.848 225.169 294.967C225.169 313.782 200.633 324.257 170.359 324.257C140.084 324.257 115.549 313.782 115.549 294.967C115.549 290.261 117.08 284.454 119.856 278.379" fill="white"/>
<path d="M170.359 328.247C154.524 328.247 140.128 325.403 129.815 320.237C117.87 314.249 111.559 305.517 111.559 294.973C111.559 289.72 113.171 283.415 116.227 276.73L123.485 280.048C120.939 285.618 119.538 290.921 119.538 294.979C119.538 300.083 121.941 307.372 133.387 313.11C142.611 317.729 155.738 320.274 170.352 320.274C184.967 320.274 198.1 317.729 207.318 313.11C218.764 307.372 221.166 300.083 221.166 294.979C221.166 289.583 218.751 282.232 214.538 274.819L221.478 270.879C226.42 279.587 229.146 288.145 229.146 294.979C229.146 305.523 222.834 314.262 210.89 320.243C200.583 325.409 186.18 328.254 170.346 328.254L170.359 328.247Z" fill="#4D3A3B"/>
<path d="M213.405 324.139L214.818 332.386L221.695 339.675" fill="white"/>
<path d="M221.696 342.438C220.961 342.438 220.227 342.146 219.685 341.573L212.808 334.285C212.434 333.886 212.185 333.395 212.092 332.853L210.679 324.606C210.424 323.1 211.432 321.674 212.932 321.419C214.432 321.164 215.864 322.172 216.119 323.672L217.395 331.098L223.7 337.776C224.746 338.884 224.696 340.633 223.588 341.679C223.053 342.183 222.374 342.432 221.69 342.432L221.696 342.438Z" fill="#4D3A3B"/>
<path d="M205.843 337.428L214.818 332.386L228.947 331.795" fill="white"/>
<path d="M205.843 340.192C204.878 340.192 203.938 339.681 203.434 338.779C202.687 337.447 203.16 335.766 204.492 335.019L213.468 329.978C213.847 329.766 214.27 329.642 214.706 329.629L228.835 329.038C230.341 328.976 231.648 330.158 231.71 331.683C231.773 333.208 230.59 334.496 229.065 334.559L215.596 335.125L207.2 339.843C206.77 340.086 206.31 340.198 205.849 340.198L205.843 340.192Z" fill="#4D3A3B"/>
<path d="M137.321 319.048L134.415 332.505L128.72 340.745" fill="white"/>
<path d="M128.713 343.509C128.172 343.509 127.624 343.347 127.145 343.017C125.888 342.152 125.576 340.428 126.441 339.177L131.825 331.384L134.62 318.463C134.944 316.969 136.413 316.023 137.906 316.347C139.4 316.67 140.346 318.139 140.023 319.627L137.116 333.083C137.041 333.438 136.892 333.774 136.686 334.073L130.991 342.32C130.456 343.098 129.591 343.509 128.72 343.509H128.713Z" fill="#4D3A3B"/>
<path d="M144.049 336.127L134.414 332.505L120.354 334.055" fill="white"/>
<path d="M144.05 338.89C143.726 338.89 143.396 338.834 143.079 338.71L134.06 335.318L120.659 336.799C119.14 336.967 117.777 335.872 117.609 334.359C117.441 332.841 118.537 331.477 120.049 331.309L134.11 329.76C134.539 329.71 134.981 329.766 135.385 329.921L145.02 333.55C146.446 334.085 147.168 335.679 146.633 337.11C146.216 338.218 145.164 338.903 144.05 338.903V338.89Z" fill="#4D3A3B"/>
<path d="M122.452 304.309C122.452 304.309 120.69 300.55 120.062 300.089L117.46 300.823L119.956 304.795L122.452 304.309V304.309Z" fill="#4D3A3B"/>
<path d="M287.728 189.741C287.728 248.323 225.879 279.78 159.741 279.78C93.6029 279.78 40.1499 254.746 40.1499 196.158C40.1499 137.57 93.6029 67.6295 159.741 67.6295C225.879 67.6295 287.728 131.153 287.728 189.741Z" fill="white"/>
<path d="M287.728 183.548C285.668 183.548 283.919 181.961 283.757 179.87C281.398 149.888 267.742 122.11 245.292 101.645C222.268 80.6567 192.529 70.057 161.558 71.7998C152.334 72.3164 143.116 73.9222 134.147 76.5675C132.037 77.1899 129.815 75.9824 129.192 73.8724C128.57 71.7562 129.778 69.5404 131.894 68.918C141.448 66.0984 151.276 64.393 161.11 63.8391C194.241 61.9718 226.046 73.3122 250.669 95.7565C262.377 106.431 271.894 119.054 278.958 133.282C286.159 147.79 290.454 163.257 291.711 179.247C291.886 181.444 290.242 183.368 288.045 183.536C287.939 183.542 287.834 183.548 287.728 183.548V183.548Z" fill="#4D3A3B"/>
<path d="M57.3907 248.08C56.2268 248.08 55.0691 247.57 54.2786 246.593C43.3677 233.043 37.2742 216.15 36.1663 196.383C33.7015 152.533 58.8035 108.024 100.113 82.9847C101.999 81.8457 104.451 82.4432 105.59 84.3291C106.73 86.215 106.132 88.6673 104.246 89.8064C65.426 113.334 41.8303 154.992 44.1332 195.934C45.1478 213.997 50.6561 229.358 60.4965 241.589C61.8783 243.306 61.6044 245.815 59.8866 247.196C59.1521 247.788 58.2683 248.08 57.3844 248.08H57.3907Z" fill="#4D3A3B"/>
<path d="M284.093 99.5409C284.112 99.1675 284.124 98.8003 284.124 98.4206C284.124 86.2275 274.67 76.2004 262.707 75.2792C262.794 74.3954 262.844 73.4991 262.844 72.5904C262.844 57.9698 250.95 46.0692 236.323 46.0692C221.696 46.0692 209.802 57.9636 209.802 72.5904C209.802 87.2171 221.696 99.1115 236.323 99.1115C236.783 99.1115 237.244 99.099 237.698 99.0741C238.016 110.371 246.431 119.676 257.336 121.363C257.062 122.882 256.912 124.444 256.912 126.037C256.912 140.658 268.807 152.558 283.433 152.558C298.06 152.558 309.955 140.664 309.955 126.037C309.955 111.41 298.415 99.8895 284.099 99.5347L284.093 99.5409Z" fill="#F7004C"/>
<path fill-rule="evenodd" clip-rule="evenodd" d="M205.756 72.5902C205.756 55.7291 219.462 42.0234 236.323 42.0234C252.928 42.0234 266.472 55.322 266.88 71.8235C278.23 74.3691 286.926 84.0053 288.047 95.8244C302.704 98.0235 314 110.518 314 126.037C314 142.898 300.294 156.604 283.433 156.604C266.572 156.604 252.866 142.891 252.866 126.037C252.866 125.516 252.88 124.999 252.907 124.486C243.204 121.506 235.798 113.249 234.041 103.073C218.242 101.903 205.756 88.684 205.756 72.5902ZM284.205 103.585C283.615 103.601 283.016 103.489 282.453 103.239C280.923 102.561 279.969 101.01 280.052 99.3387C280.069 99.0075 280.078 98.7116 280.078 98.4204C280.078 88.3601 272.27 80.0731 262.396 79.3128C261.311 79.2293 260.306 78.7123 259.607 77.8786C258.908 77.045 258.574 75.9648 258.681 74.8821C258.756 74.1141 258.798 73.3512 258.798 72.5902C258.798 60.2034 248.714 50.1148 236.323 50.1148C223.93 50.1148 213.847 60.1978 213.847 72.5902C213.847 84.9826 223.93 95.0656 236.323 95.0656C236.711 95.0656 237.098 95.0551 237.477 95.0343C238.567 94.9746 239.635 95.3579 240.438 96.0972C241.241 96.8365 241.712 97.8691 241.742 98.9603C242.004 108.282 248.955 115.973 257.954 117.365C259.032 117.531 259.996 118.126 260.629 119.014C261.263 119.902 261.51 121.007 261.317 122.081C261.083 123.375 260.958 124.697 260.958 126.037C260.958 138.424 271.042 148.512 283.433 148.512C295.826 148.512 305.909 138.429 305.909 126.037C305.909 113.706 296.26 103.99 284.205 103.585Z" fill="#4D3A3B"/>
<path d="M150.628 18.3342C166.481 9.22827 184.793 6.69505 198.361 15.2159C220.55 29.1393 221.665 67.3183 205.612 92.9058C189.56 118.493 162.417 121.798 140.221 107.875C118.032 93.9514 109.2 68.0714 125.252 42.4839C128.452 37.3926 132.392 32.6933 136.829 28.5418" fill="white"/>
<path d="M167.022 119.987C157.269 119.987 147.26 117 138.098 111.255C126.098 103.723 117.733 92.8249 114.534 80.5633C111.098 67.393 113.638 53.4945 121.872 40.3678C125.196 35.0648 129.316 30.1103 134.103 25.629C135.715 24.1227 138.235 24.2099 139.742 25.8219C141.248 27.434 141.161 29.9547 139.549 31.461C135.26 35.4693 131.588 39.8885 128.625 44.6064C121.586 55.8223 119.382 67.5611 122.252 78.5467C124.934 88.8352 132.067 98.0532 142.337 104.495C164.346 118.307 188.414 112.798 202.226 90.7834C209.67 78.9201 213.361 64.0444 212.34 49.9716C211.301 35.6063 205.581 24.4588 196.232 18.5957C184.842 11.4503 168.535 12.6454 152.607 21.7949C150.696 22.8903 148.256 22.2306 147.161 20.3198C146.065 18.4089 146.725 15.9691 148.636 14.8736C167.165 4.23032 186.547 3.0913 200.477 11.8362C212.035 19.0874 219.075 32.432 220.301 49.399C221.434 65.1212 217.313 81.7521 208.985 95.0282C200.751 108.155 189.336 116.483 175.985 119.122C173.041 119.701 170.041 119.993 167.016 119.993L167.022 119.987Z" fill="#4D3A3B"/>
<path d="M170.396 59.7813L173.788 77.738L191.851 73.2441L193.139 89.8813L208.264 83.5389" fill="white"/>
<path d="M193.139 93.8707C192.417 93.8707 191.695 93.6715 191.06 93.2856C189.965 92.6196 189.261 91.4681 189.162 90.186L188.241 78.248L174.753 81.6029C173.689 81.8705 172.562 81.6838 171.635 81.0925C170.707 80.5012 170.072 79.5551 169.867 78.4721L166.475 60.5154C166.064 58.3494 167.489 56.2643 169.655 55.8535C171.821 55.4427 173.906 56.8681 174.317 59.0341L176.925 72.8392L190.892 69.3662C192.031 69.0861 193.239 69.3164 194.191 70.001C195.143 70.6857 195.747 71.7562 195.834 72.9264L196.693 84.0552L206.72 79.8476C208.749 78.9949 211.09 79.9535 211.942 81.9825C212.795 84.0116 211.836 86.3519 209.807 87.2046L194.689 93.547C194.191 93.7524 193.668 93.8582 193.145 93.8582L193.139 93.8707Z" fill="#4D3A3B"/>
<path d="M155.607 182.608C158.695 179.72 162.273 177.971 166.095 177.971C177.653 177.971 187.021 193.955 187.021 209.179C187.021 224.404 177.653 233.105 166.095 233.105C154.537 233.105 145.169 224.404 145.169 209.179C145.169 204.026 146.246 198.785 148.113 194.104" fill="#FFA200"/>
<path d="M166.102 236.478C151.792 236.478 141.796 225.25 141.796 209.179C141.796 203.714 142.898 198.069 144.983 192.853C145.674 191.123 147.641 190.276 149.371 190.967C151.101 191.658 151.948 193.625 151.251 195.355C149.483 199.781 148.55 204.561 148.55 209.179C148.55 221.472 155.602 229.725 166.102 229.725C176.602 229.725 183.654 221.466 183.654 209.179C183.654 195.131 174.959 181.345 166.102 181.345C162.629 181.345 159.734 183.374 157.923 185.073C156.56 186.349 154.425 186.281 153.149 184.917C151.873 183.554 151.942 181.42 153.305 180.144C157.182 176.509 161.608 174.592 166.102 174.592C172.737 174.592 179.004 178.656 183.741 186.038C187.98 192.635 190.407 201.069 190.407 209.173C190.407 225.25 180.411 236.472 166.102 236.472V236.478Z" fill="#4D3A3B"/>
<path d="M205.295 205.806C211.654 205.806 216.81 200.65 216.81 194.291C216.81 187.931 211.654 182.776 205.295 182.776C198.936 182.776 193.78 187.931 193.78 194.291C193.78 200.65 198.936 205.806 205.295 205.806Z" fill="#4D3A3B"/>
<path d="M126.871 205.806C133.23 205.806 138.385 200.65 138.385 194.291C138.385 187.931 133.23 182.776 126.871 182.776C120.511 182.776 115.356 187.931 115.356 194.291C115.356 200.65 120.511 205.806 126.871 205.806Z" fill="#4D3A3B"/>
<path d="M95.0777 242.889C84.3909 242.889 75.6272 236.422 75.3472 228.175C75.2538 225.412 76.119 222.673 77.8493 220.258C78.7393 219.019 80.4634 218.733 81.702 219.617C82.9406 220.507 83.2269 222.231 82.3431 223.47C81.3161 224.908 80.8182 226.426 80.8742 227.988C81.0547 233.329 87.8888 237.623 95.7873 237.356C103.692 237.088 110.221 232.352 110.041 227.011C109.96 224.547 108.478 222.219 105.87 220.457C102.995 218.509 99.1732 217.513 95.1213 217.65C92.6503 217.731 90.2229 218.248 88.0942 219.144C86.6876 219.735 85.0693 219.076 84.478 217.669C83.8867 216.262 84.5465 214.644 85.9531 214.053C88.7353 212.882 91.754 212.235 94.9346 212.129C100.15 211.955 105.13 213.287 108.964 215.883C113.072 218.665 115.412 222.549 115.555 226.825C115.841 235.302 107.053 242.503 95.9678 242.877C95.669 242.889 95.3703 242.889 95.0715 242.889H95.0777Z" fill="#4D3A3B"/>
<path d="M178.917 283.035C176.882 283.035 175.145 281.485 174.952 279.425C174.741 277.234 176.353 275.286 178.55 275.074C184.239 274.533 189.84 273.792 195.193 272.871C203.278 271.483 211.003 269.647 218.154 267.419C245.659 258.842 279.35 239.746 283.638 197.472C283.862 195.281 285.823 193.681 288.014 193.905C290.205 194.129 291.804 196.084 291.58 198.275C287.833 235.165 263.267 261.711 220.532 275.037C213.05 277.371 204.984 279.288 196.55 280.738C190.998 281.691 185.197 282.462 179.309 283.016C179.178 283.029 179.054 283.035 178.929 283.035H178.917Z" fill="#4D3A3B"/>
<path d="M153.323 283.77C153.267 283.77 153.211 283.77 153.155 283.77C119.638 282.363 84.8573 272.765 68.5873 260.423C66.8321 259.091 66.4898 256.589 67.8218 254.834C69.1537 253.078 71.6558 252.736 73.411 254.068C88.2743 265.34 121.953 274.477 153.491 275.796C155.694 275.89 157.4 277.751 157.313 279.948C157.225 282.089 155.458 283.77 153.329 283.77H153.323Z" fill="#4D3A3B"/>
<path d="M244.134 237.879C239.254 237.879 234.623 236.553 231.013 234.107C226.905 231.325 224.565 227.441 224.422 223.165C224.136 214.688 232.924 207.486 244.009 207.113C255.094 206.733 264.35 213.337 264.63 221.814C264.916 230.292 256.128 237.493 245.042 237.866C244.737 237.879 244.432 237.885 244.134 237.885V237.879ZM244.893 212.621C244.663 212.621 244.432 212.621 244.196 212.634C236.291 212.901 229.762 217.638 229.943 222.978C230.024 225.443 231.505 227.771 234.113 229.532C236.988 231.48 240.804 232.47 244.862 232.339C252.767 232.072 259.296 227.335 259.115 221.995C258.941 216.81 252.499 212.621 244.893 212.621V212.621Z" fill="#4D3A3B"/>
<path d="M194.589 274.396C194.639 274.11 194.664 273.817 194.664 273.512C194.664 270.948 192.797 268.869 190.5 268.869C190.481 268.869 190.463 268.869 190.444 268.869C190.139 266.641 188.415 264.935 186.33 264.935C186.28 264.935 186.237 264.935 186.193 264.941C185.726 262.95 184.102 261.474 182.166 261.474C181.743 261.474 181.332 261.549 180.946 261.68C180.33 259.968 178.836 258.755 177.081 258.755C176.191 258.755 175.375 259.066 174.697 259.595C173.931 258.63 172.817 258.014 171.572 258.014C171.548 258.014 171.529 258.014 171.504 258.014C171.479 258.014 171.46 258.014 171.436 258.014C170.191 258.014 169.077 258.624 168.311 259.595C167.633 259.066 166.817 258.755 165.927 258.755C164.172 258.755 162.672 259.968 162.062 261.68C161.676 261.549 161.265 261.474 160.842 261.474C158.906 261.474 157.282 262.95 156.815 264.941C156.771 264.941 156.722 264.935 156.678 264.935C154.593 264.935 152.869 266.641 152.564 268.869C152.545 268.869 152.527 268.869 152.508 268.869C150.205 268.869 148.344 270.948 148.344 273.512C148.344 273.817 148.369 274.11 148.419 274.396C146.663 274.944 145.375 276.73 145.375 278.859C145.375 281.423 147.242 283.502 149.539 283.502C149.732 283.502 149.919 283.483 150.099 283.452L152.128 287.342H189.554L191.639 283.029C192.187 283.327 192.803 283.496 193.457 283.496C195.76 283.496 197.621 281.417 197.621 278.852C197.621 276.724 196.332 274.931 194.577 274.39L194.589 274.396Z" fill="white"/>
<path d="M189.56 289.209H152.147C151.344 289.209 150.61 288.768 150.242 288.052L148.836 285.351C145.73 284.958 143.315 282.114 143.315 278.672C143.315 276.325 144.473 274.178 146.265 272.971C146.427 270.058 148.325 267.63 150.865 266.89C151.63 264.879 153.255 263.404 155.228 262.925C156.286 260.746 158.396 259.327 160.761 259.327C160.767 259.327 160.444 259.327 160.456 259.327C161.72 257.497 163.711 256.39 165.915 256.39C166.68 256.39 167.421 256.526 168.131 256.788C169.226 256.016 170.521 255.593 171.859 255.593C171.896 255.593 171.535 255.593 171.585 255.593C172.824 255.593 174.025 255.985 175.039 256.701C175.693 256.458 176.384 256.334 177.093 256.334C179.135 256.334 180.984 257.361 182.154 259.053C184.525 259.041 186.691 260.479 187.768 262.682C189.76 263.168 191.397 264.655 192.175 266.684C194.733 267.437 196.65 269.877 196.812 272.821C198.623 274.041 199.787 276.207 199.787 278.579C199.787 282.319 196.955 285.363 193.475 285.363C193.245 285.363 193.021 285.351 192.797 285.326L191.502 287.996C191.141 288.736 190.394 289.209 189.567 289.209H189.56ZM153.442 284.853H188.216L189.716 281.753C189.971 281.224 190.432 280.826 190.992 280.645C191.552 280.465 192.156 280.521 192.672 280.801C192.928 280.938 193.195 281.012 193.463 281.012C194.577 281.012 195.48 279.892 195.48 278.523C195.48 277.384 194.851 276.388 193.948 276.108C192.921 275.79 192.287 274.751 192.467 273.693C192.498 273.518 192.511 273.344 192.511 273.176C192.511 271.819 191.633 270.718 190.538 270.686C190.494 270.686 190.469 270.686 190.438 270.686C189.367 270.686 188.459 269.896 188.309 268.832C188.148 267.661 187.313 266.778 186.361 266.753H186.268C185.259 266.815 184.326 266.043 184.083 265.066C183.772 263.809 182.664 263.031 181.631 263.379C180.523 263.759 179.309 263.174 178.917 262.072C178.593 261.163 177.865 260.572 177.075 260.572C176.695 260.572 176.34 260.703 176.01 260.958C175.077 261.686 173.739 261.518 173.004 260.597C172.786 260.317 172.319 259.856 171.616 259.838C171.579 259.838 171.535 259.838 171.498 259.838C171.461 259.838 171.429 259.838 171.38 259.838C170.683 259.856 170.209 260.323 169.992 260.597C169.257 261.524 167.919 261.686 166.985 260.958C166.656 260.703 166.301 260.572 165.921 260.572C165.124 260.572 164.402 261.163 164.072 262.072C163.674 263.174 162.467 263.759 161.359 263.379C160.313 263.024 159.193 263.821 158.894 265.103C158.657 266.105 157.755 266.809 156.722 266.759C156.703 266.759 156.66 266.759 156.622 266.759C155.67 266.784 154.842 267.668 154.68 268.838C154.531 269.927 153.591 270.705 152.483 270.693C152.477 270.693 152.464 270.693 152.458 270.693C151.369 270.724 150.485 271.832 150.485 273.182C150.485 273.35 150.504 273.525 150.529 273.699C150.715 274.763 150.081 275.796 149.054 276.12C148.151 276.4 147.522 277.396 147.522 278.535C147.522 279.911 148.425 281.025 149.539 281.025C149.595 281.025 149.67 281.019 149.763 281.006C150.678 280.875 151.574 281.311 152.004 282.126L153.435 284.871L153.442 284.853ZM186.43 267.027H186.411C186.411 267.027 186.423 267.027 186.43 267.027Z" fill="#4D3A3B"/>
<path d="M197.428 280.95C197.428 294.12 185.82 304.795 171.504 304.795C157.189 304.795 145.581 294.12 145.581 280.95C153.442 284.062 164.073 284.61 171.504 284.61C178.936 284.61 190.17 283.62 197.428 280.95Z" fill="#20457F"/>
<path d="M171.504 306.942C156.024 306.942 143.433 295.284 143.433 280.95C143.433 280.24 143.787 279.574 144.372 279.176C144.964 278.778 145.711 278.691 146.37 278.952C152.252 281.28 160.711 282.462 171.504 282.462C178.699 282.462 189.61 281.541 196.686 278.933C197.346 278.691 198.081 278.784 198.66 279.189C199.238 279.593 199.581 280.247 199.581 280.95C199.581 295.278 186.989 306.942 171.51 306.942H171.504ZM147.97 284.043C149.619 294.55 159.541 302.647 171.504 302.647C183.466 302.647 193.437 294.506 195.049 283.969C187.736 286.004 178.387 286.763 171.504 286.763C161.937 286.763 154.045 285.848 147.97 284.043V284.043Z" fill="#4D3A3B"/>
<path d="M179.851 258.991C179.851 262.01 176.116 263.422 171.504 263.422C166.892 263.422 163.158 262.01 163.158 258.991C163.158 255.972 166.892 252.487 171.504 252.487C176.116 252.487 179.851 255.966 179.851 258.991Z" fill="#FFB515"/>
<path d="M171.504 265.576C165.031 265.576 161.01 263.055 161.01 258.997C161.01 254.472 166.014 250.346 171.504 250.346C176.993 250.346 181.998 254.466 181.998 258.997C181.998 263.055 177.977 265.576 171.504 265.576V265.576ZM171.504 254.64C167.968 254.64 165.304 257.279 165.304 258.991C165.304 260.317 167.912 261.275 171.504 261.275C175.095 261.275 177.703 260.317 177.703 258.991C177.703 257.279 175.039 254.64 171.504 254.64Z" fill="#4D3A3B"/>
<path d="M216.691 273.139C204.778 276.089 193.027 285.27 194.832 292.552C196.637 299.84 211.313 302.473 223.226 299.523C235.139 296.573 239.783 289.153 237.978 281.871C236.173 274.583 228.61 270.188 216.697 273.139H216.691Z" fill="white"/>
<path d="M213.274 304.708C210.193 304.708 207.162 304.396 204.367 303.774C196.948 302.118 192.186 298.477 190.96 293.51C189.734 288.55 192.242 283.104 198.037 278.18C202.811 274.116 209.265 270.867 215.739 269.267C222.243 267.655 228.137 267.923 232.78 270.039C237.417 272.149 240.635 276.014 241.849 280.919C243.063 285.823 242.017 290.747 238.899 294.774C235.774 298.813 230.689 301.795 224.185 303.407C220.668 304.278 216.934 304.714 213.274 304.714V304.708ZM223.755 276.201C221.888 276.201 219.834 276.469 217.649 277.016C212.415 278.311 207.012 281.025 203.203 284.261C200.035 286.956 198.267 289.838 198.703 291.599C199.139 293.361 202.045 295.085 206.104 295.988C210.983 297.077 217.027 296.952 222.261 295.658C227.004 294.481 230.571 292.49 232.581 289.888C234.199 287.797 234.722 285.357 234.094 282.836C233.471 280.309 231.865 278.398 229.463 277.303C227.851 276.568 225.927 276.201 223.749 276.201H223.755Z" fill="#4D3A3B"/>
<path d="M130.188 277.216C142.101 280.166 153.852 289.347 152.047 296.629C150.242 303.917 135.566 306.55 123.653 303.6C111.74 300.65 107.097 293.231 108.902 285.948C110.707 278.66 118.269 274.266 130.182 277.216H130.188Z" fill="white"/>
<path d="M133.599 308.791C129.939 308.791 126.205 308.355 122.688 307.484C116.184 305.872 111.092 302.891 107.974 298.851C104.862 294.824 103.81 289.901 105.024 284.996C106.238 280.091 109.462 276.226 114.092 274.116C118.736 272 124.63 271.739 131.134 273.344C137.607 274.944 144.062 278.199 148.836 282.257C154.624 287.181 157.139 292.627 155.913 297.588C154.686 302.548 149.919 306.196 142.506 307.851C139.705 308.474 136.68 308.785 133.599 308.785V308.791ZM123.118 280.284C120.939 280.284 119.016 280.652 117.404 281.386C115.001 282.482 113.402 284.392 112.773 286.919C112.151 289.446 112.673 291.886 114.285 293.971C116.296 296.573 119.862 298.565 124.605 299.741C129.84 301.036 135.883 301.16 140.763 300.071C144.821 299.162 147.728 297.438 148.163 295.683C148.599 293.922 146.832 291.04 143.663 288.345C139.854 285.102 134.452 282.394 129.217 281.1C127.026 280.558 124.979 280.284 123.111 280.284H123.118Z" fill="#4D3A3B"/>
</g>
<defs>
<filter id="filter0_d_3271_183" x="34" y="4.00006" width="286" height="345.509" filterUnits="userSpaceOnUse" color-interpolation-filters="sRGB">
<feFlood flood-opacity="0" result="BackgroundImageFix"/>
<feColorMatrix in="SourceAlpha" type="matrix" values="0 0 0 0 0 0 0 0 0 0 0 0 0 0 0 0 0 0 127 0" result="hardAlpha"/>
<feOffset dx="2" dy="2"/>
<feGaussianBlur stdDeviation="2"/>
<feComposite in2="hardAlpha" operator="out"/>
<feColorMatrix type="matrix" values="0 0 0 0 0 0 0 0 0 0 0 0 0 0 0 0 0 0 0.1 0"/>
<feBlend mode="normal" in2="BackgroundImageFix" result="effect1_dropShadow_3271_183"/>
<feBlend mode="normal" in="SourceGraphic" in2="effect1_dropShadow_3271_183" result="shape"/>
</filter>
</defs>
</svg>
