<svg width="231" height="86" viewBox="0 0 231 86" fill="none" xmlns="http://www.w3.org/2000/svg">
<path d="M0.675781 25.4102C0.675781 24.8568 0.740885 24.3522 0.871094 23.8965C1.0013 23.4082 1.22917 22.9525 1.55469 22.5293C1.88021 22.0736 2.17318 21.6829 2.43359 21.3574C2.69401 21.0319 3.13346 20.6901 3.75195 20.332C4.33789 19.9414 4.77734 19.6484 5.07031 19.4531C5.33073 19.2578 5.85156 18.9974 6.63281 18.6719C7.38151 18.3464 7.85352 18.1348 8.04883 18.0371C8.27669 17.9395 8.79753 17.7441 9.61133 17.4512C10.4577 17.1257 10.9134 16.9466 10.9785 16.9141C13.8105 15.8073 17.082 14.8958 20.793 14.1797C24.5039 13.431 27.4824 12.9264 29.7285 12.666C31.9746 12.4056 35.832 12.015 41.3008 11.4941C42.6029 11.429 43.8236 11.3965 44.9629 11.3965C49.3249 11.3965 52.5638 11.9336 54.6797 13.0078C55.4284 13.431 56.1608 14.0495 56.877 14.8633C57.5931 15.6771 58.1465 16.4258 58.5371 17.1094C58.9603 17.7604 59.4811 18.6556 60.0996 19.7949C59.9694 19.9251 59.8717 19.9902 59.8066 19.9902C59.7415 19.9902 59.6439 19.974 59.5137 19.9414C59.3835 19.9089 59.2858 19.8926 59.2207 19.8926C53.2962 18.5579 48.0879 17.8906 43.5957 17.8906C42.1634 17.8906 41.0729 17.9232 40.3242 17.9883C39.7383 18.0859 39.071 18.2487 38.3223 18.4766C37.5736 18.7044 36.7598 19.1113 35.8809 19.6973C35.0345 20.2832 34.5788 20.918 34.5137 21.6016C34.416 22.4805 34.2207 23.4408 33.9277 24.4824C33.6673 25.4915 33.4395 26.2402 33.2441 26.7285C33.0814 27.2168 32.7233 28.1445 32.1699 29.5117C31.6165 30.8789 31.3236 31.6113 31.291 31.709C24.0319 50.6217 19.4746 62.3893 17.6191 67.0117C17.2285 67.9557 16.7077 69.7949 16.0566 72.5293C15.4056 75.2311 14.7546 77.4609 14.1035 79.2188C13.4525 80.944 12.7526 81.8066 12.0039 81.8066C11.1901 81.8066 10.4902 81.5137 9.9043 80.9277C9.35091 80.3743 8.92773 79.6257 8.63477 78.6816C8.37435 77.7051 8.17904 76.7611 8.04883 75.8496C7.95117 74.9382 7.90234 73.9941 7.90234 73.0176C7.90234 69.5996 8.37435 67.8906 9.31836 67.8906C9.41602 67.8906 9.54622 67.9069 9.70898 67.9395C9.9043 67.972 10.0345 67.9883 10.0996 67.9883C11.4017 67.9883 14.7708 59.9642 20.207 43.916C20.6628 42.5488 21.4603 40.4004 22.5996 37.4707C23.7715 34.5085 24.6341 32.1484 25.1875 30.3906V30C25.1875 29.6094 25.0898 29.349 24.8945 29.2188C24.6992 29.0885 24.4714 29.0397 24.2109 29.0723C23.9831 29.0723 23.7715 29.0072 23.5762 28.877C23.3809 28.7467 23.2832 28.4863 23.2832 28.0957C23.2832 27.6074 23.3158 26.875 23.3809 25.8984C23.446 24.9219 23.4785 24.1895 23.4785 23.7012C23.4785 22.627 22.9902 22.0898 22.0137 22.0898C19.8001 22.4479 17.6191 22.985 15.4707 23.7012C15.4707 23.7012 15.4219 23.7337 15.3242 23.7988H15.4219C15.4219 23.7663 14.5104 24.222 12.6875 25.166C10.8971 26.11 9.04167 27.0866 7.12109 28.0957L4.28906 29.6094C4.15885 29.6745 3.93099 29.707 3.60547 29.707C2.79167 29.707 2.10807 29.3001 1.55469 28.4863C0.96875 27.6725 0.675781 26.6471 0.675781 25.4102ZM48.8203 77.7051C48.8203 77.4447 48.8366 77.054 48.8691 76.5332C48.9017 75.9798 48.918 75.5729 48.918 75.3125C49.2435 72.9362 49.8783 70.0391 50.8223 66.6211C51.6686 64.0169 52.7917 59.3132 54.1914 52.5098C55.819 44.2415 57.4629 36.6406 59.123 29.707C59.1556 29.5768 59.2533 29.1048 59.416 28.291C59.7741 26.7936 60.6042 26.0449 61.9062 26.0449C62.069 26.0449 62.2318 26.0612 62.3945 26.0938C62.9479 26.1263 63.4362 26.5007 63.8594 27.2168C64.2826 27.9329 64.4616 28.6979 64.3965 29.5117C64.3965 29.9349 64.2663 30.6022 64.0059 31.5137C63.9408 31.7415 63.8431 32.0996 63.7129 32.5879C63.5827 33.0436 63.485 33.3854 63.4199 33.6133C63.2572 34.2969 63.2572 34.7201 63.4199 34.8828C63.5176 34.9479 63.599 34.9967 63.6641 35.0293C63.7617 35.0293 63.8594 35.013 63.957 34.9805C64.0547 34.9154 64.1198 34.8665 64.1523 34.834C64.2174 34.7689 64.2988 34.6875 64.3965 34.5898C64.4941 34.4922 64.5592 34.4271 64.5918 34.3945C65.0475 34.069 65.3893 33.7435 65.6172 33.418C68.4818 30.1628 72.0788 27.6562 76.4082 25.8984C76.571 25.8333 76.9616 25.6706 77.5801 25.4102C78.1986 25.1497 78.5892 24.987 78.752 24.9219C78.9473 24.8568 79.3216 24.7103 79.875 24.4824C80.4609 24.2546 80.8678 24.0918 81.0957 23.9941C81.3561 23.8965 81.7467 23.75 82.2676 23.5547C82.7884 23.3594 83.1953 23.2292 83.4883 23.1641C83.7812 23.0664 84.1556 22.9525 84.6113 22.8223C85.0996 22.6595 85.5065 22.5456 85.832 22.4805C86.1901 22.3828 86.5807 22.3014 87.0039 22.2363C87.4271 22.1387 87.834 22.0573 88.2246 21.9922C89.1035 21.862 89.9173 21.7969 90.666 21.7969C91.1868 21.7969 91.6751 21.8294 92.1309 21.8945C93.3027 22.0898 94.1328 22.7897 94.6211 23.9941C94.7513 24.1895 94.8164 24.3848 94.8164 24.5801C94.8164 24.7428 94.7839 24.8893 94.7188 25.0195C94.5885 25.4102 94.3932 25.638 94.1328 25.7031C93.1562 25.9635 92.3424 26.1263 91.6914 26.1914C84.9206 26.9727 78.6543 29.4466 72.8926 33.6133C69.6699 35.8919 67.1146 38.8867 65.2266 42.5977C60.7344 51.2891 57.7559 59.7201 56.291 67.8906C55.2819 73.9128 54.7285 78.0143 54.6309 80.1953C54.5332 81.5299 54.0286 82.36 53.1172 82.6855C52.7591 82.8158 52.4173 82.8809 52.0918 82.8809C51.4733 82.8809 50.9199 82.6204 50.4316 82.0996C49.3574 80.765 48.8203 79.3001 48.8203 77.7051ZM71.0371 81.6113C71.0046 81.0579 70.9883 80.4883 70.9883 79.9023C70.9883 76.9727 71.5417 73.9128 72.6484 70.7227C74.9596 64.1146 77.8893 58.2389 81.4375 53.0957C83.8138 49.4824 86.1413 46.2109 88.4199 43.2812C88.8431 42.6953 89.2988 42.0931 89.7871 41.4746C90.3079 40.8561 90.9102 40.1562 91.5938 39.375C92.3099 38.5938 92.8307 38.0078 93.1562 37.6172C93.612 37.0964 94.2956 36.2988 95.207 35.2246C96.1185 34.1504 96.9323 33.2064 97.6484 32.3926C98.3646 31.5788 99.0645 30.8464 99.748 30.1953C105.184 24.8893 110.018 20.9505 114.25 18.3789C116.073 17.3372 117.863 16.6374 119.621 16.2793C120.272 16.1491 120.891 16.0677 121.477 16.0352C123.853 16.0352 125.578 17.2233 126.652 19.5996C126.783 19.86 126.913 20.1855 127.043 20.5762C127.564 21.2272 128.068 21.4388 128.557 21.2109C128.654 21.1784 128.866 21.0807 129.191 20.918C129.517 20.7552 129.794 20.6413 130.021 20.5762C130.933 20.3158 131.73 20.4622 132.414 21.0156C133.13 21.5365 133.537 22.3665 133.635 23.5059C133.667 23.7663 133.684 24.0592 133.684 24.3848C133.684 25.3613 133.537 26.6309 133.244 28.1934C132.43 31.3509 131.161 34.5247 129.436 37.7148C127.482 41.556 125.35 44.8438 123.039 47.5781C121.835 49.043 121.037 50.8171 120.646 52.9004C119.833 55.9277 119.296 60.0293 119.035 65.2051C119.035 65.5306 119.035 65.8398 119.035 66.1328C119.035 68.8346 119.41 71.4225 120.158 73.8965C121.135 76.9238 122.876 78.4375 125.383 78.4375C125.969 78.4375 126.587 78.3561 127.238 78.1934C128.996 77.8027 130.298 77.5749 131.145 77.5098C131.893 77.2819 132.593 77.3145 133.244 77.6074C133.57 77.9329 133.732 78.2096 133.732 78.4375C133.7 78.5026 133.684 78.584 133.684 78.6816C133.618 78.8444 133.57 78.9583 133.537 79.0234C130.51 81.3997 127.417 82.6855 124.26 82.8809C124.162 82.8809 124.048 82.8809 123.918 82.8809C120.728 82.8809 118.465 81.4486 117.131 78.584C115.406 75.3288 114.543 71.9271 114.543 68.3789V64.7168H114.348L114.396 62.0312C114.429 60.2083 114.413 59.2969 114.348 59.2969C114.348 58.7435 114.136 58.4017 113.713 58.2715C113.29 58.1087 112.899 58.2227 112.541 58.6133C111.141 60.013 109.042 61.8197 106.242 64.0332C103.443 66.2142 101.604 67.6953 100.725 68.4766C98.6738 70.2344 96.444 71.9108 94.0352 73.5059C92.9935 74.2546 91.2845 75.459 88.9082 77.1191C86.5645 78.7793 84.7741 80.0651 83.5371 80.9766C81.877 82.1484 79.2728 83.3203 75.7246 84.4922C75.4642 84.5573 75.1549 84.5898 74.7969 84.5898C74.4388 84.5898 74.0156 84.5573 73.5273 84.4922C72.7135 84.3294 72.1276 84.0365 71.7695 83.6133C71.3789 83.1901 71.1348 82.5228 71.0371 81.6113ZM75.7246 76.9238C75.6921 77.1842 75.6758 77.4121 75.6758 77.6074C75.6758 78.1608 75.806 78.5677 76.0664 78.8281C76.2617 78.9909 76.5384 79.0723 76.8965 79.0723C77.222 79.0723 77.5964 79.0072 78.0195 78.877C79.0612 78.4863 80.7702 77.4609 83.1465 75.8008C86.5645 73.8151 90.1289 71.4551 93.8398 68.7207C96.8997 66.4421 99.1947 64.7656 100.725 63.6914C101.831 62.9427 103.02 62.0801 104.289 61.1035C105.559 60.0944 106.584 59.2643 107.365 58.6133C108.179 57.9297 109.351 56.9368 110.881 55.6348C112.411 54.3001 113.469 53.3887 114.055 52.9004C114.999 52.054 115.471 51.1263 115.471 50.1172C115.471 49.7917 115.422 49.4499 115.324 49.0918C115.292 48.8965 115.292 48.6198 115.324 48.2617C115.389 47.8711 115.422 47.6107 115.422 47.4805C115.487 46.9596 115.568 46.4388 115.666 45.918C115.796 45.3646 115.975 44.7949 116.203 44.209C116.431 43.623 116.61 43.151 116.74 42.793C116.903 42.4023 117.147 41.849 117.473 41.1328C117.798 40.3841 118.026 39.8796 118.156 39.6191C119.784 36.1686 120.874 33.1576 121.428 30.5859C121.493 30.1953 121.607 29.528 121.77 28.584C121.965 27.64 122.095 27.0052 122.16 26.6797C122.16 24.5964 121.851 23.2617 121.232 22.6758C120.939 22.3828 120.533 22.2201 120.012 22.1875C119.491 22.1875 118.84 22.3503 118.059 22.6758C117.115 23.0013 116.512 23.2454 116.252 23.4082C114.592 24.4824 113.387 25.3125 112.639 25.8984C103.98 32.3438 95.8743 40.5794 88.3223 50.6055C84.3509 55.7812 80.9167 61.8848 78.0195 68.916C77.0755 70.9342 76.3105 73.6035 75.7246 76.9238ZM138.176 61.5918C138.241 59.2806 138.452 55.0651 138.811 48.9453C139.136 43.3138 139.299 38.8542 139.299 35.5664C139.299 35.2734 139.299 34.9805 139.299 34.6875C139.331 34.4922 139.348 34.248 139.348 33.9551C139.348 33.2389 139.283 32.2135 139.152 30.8789C139.152 30 138.827 28.9095 138.176 27.6074C138.013 27.1842 137.932 26.7611 137.932 26.3379C137.932 25.4264 138.273 24.4499 138.957 23.4082C139.641 22.2689 140.471 21.6992 141.447 21.6992C141.643 21.6992 141.854 21.7318 142.082 21.7969C142.668 21.8945 143.173 22.2689 143.596 22.9199C143.954 23.5384 144.247 24.3685 144.475 25.4102C144.475 25.4427 144.523 26.0124 144.621 27.1191C144.719 28.2259 144.768 29.056 144.768 29.6094C144.8 30.4557 144.816 31.4486 144.816 32.5879C144.816 34.8665 144.735 37.7637 144.572 41.2793C143.889 50.9798 143.547 58.597 143.547 64.1309C143.547 65.0423 143.563 65.9049 143.596 66.7188C143.596 67.3698 143.628 67.8581 143.693 68.1836C143.693 69.0625 143.824 69.5345 144.084 69.5996C144.507 69.8926 145.012 69.5996 145.598 68.7207C146.216 67.9069 147.502 66.0677 149.455 63.2031C152.417 58.418 155.396 54.1211 158.391 50.3125C162.753 44.681 168.417 36.6406 175.383 26.1914C175.708 25.6706 176.213 24.9382 176.896 23.9941C177.613 23.0176 178.133 22.2852 178.459 21.7969C178.589 21.6341 178.768 21.4225 178.996 21.1621C179.257 20.8691 179.452 20.6413 179.582 20.4785C180.07 20.0553 180.542 19.8438 180.998 19.8438C181.291 19.8438 181.584 19.9251 181.877 20.0879C182.04 20.1855 182.154 20.332 182.219 20.5273C182.284 20.6901 182.316 20.8529 182.316 21.0156C182.316 21.1784 182.3 21.4388 182.268 21.7969C182.268 22.1224 182.268 22.3828 182.268 22.5781C182.202 23.1966 181.779 24.2708 180.998 25.8008C176.734 33.7435 170.988 42.4837 163.762 52.0215C162.232 54.0397 160.181 56.9694 157.609 60.8105C155.07 64.6191 153.394 67.1094 152.58 68.2812C152.027 69.1602 151.164 70.4785 149.992 72.2363C148.82 73.9941 147.941 75.3125 147.355 76.1914C147.03 76.6797 146.509 77.3307 145.793 78.1445C145.109 78.9583 144.637 79.5443 144.377 79.9023C143.856 80.5859 143.173 80.9277 142.326 80.9277C141.968 80.9277 141.594 80.8626 141.203 80.7324C139.836 80.3418 138.99 79.4629 138.664 78.0957C138.632 77.9329 138.599 77.6725 138.566 77.3145C138.534 76.9238 138.501 76.6471 138.469 76.4844C138.208 73.1641 138.078 69.8438 138.078 66.5234C138.078 64.8958 138.111 63.252 138.176 61.5918ZM155.314 68.623C155.314 68.4928 155.314 68.3789 155.314 68.2812C155.314 67.5651 155.575 66.9303 156.096 66.377C156.682 65.6934 157.414 65.4004 158.293 65.498C158.814 65.5306 159.335 65.5306 159.855 65.498C160.376 65.4655 160.93 65.4004 161.516 65.3027C162.102 65.1725 162.59 65.0586 162.98 64.9609C163.371 64.8633 163.924 64.7168 164.641 64.5215C165.324 64.2936 165.812 64.1471 166.105 64.082C166.984 63.8867 167.652 63.5449 168.107 63.0566C168.596 62.5358 168.954 61.7871 169.182 60.8105C170.972 53.6491 173.918 47.1061 178.02 41.1816C181.991 35.2897 186.418 30.6348 191.301 27.2168C193.286 25.8496 195.028 25.0846 196.525 24.9219C196.656 24.9219 196.786 24.9219 196.916 24.9219C198.446 24.9219 199.732 25.459 200.773 26.5332C201.913 27.7051 202.564 29.3001 202.727 31.3184C202.759 31.7741 202.775 32.2298 202.775 32.6855C202.775 35.1921 202.189 37.8288 201.018 40.5957C198.706 45.9342 195.272 50.7682 190.715 55.0977C185.799 59.6875 180.591 63.2845 175.09 65.8887C174.504 66.1816 174.146 66.3444 174.016 66.377C173.007 66.8978 172.502 67.7116 172.502 68.8184C172.502 68.916 172.502 69.0137 172.502 69.1113V72.6758C172.795 75.5404 174.162 77.1191 176.604 77.4121C176.962 77.4772 177.482 77.526 178.166 77.5586C178.882 77.5586 179.354 77.5749 179.582 77.6074C180.266 77.6074 180.738 77.6725 180.998 77.8027C181.096 77.8353 181.324 77.9329 181.682 78.0957C182.072 78.2259 182.349 78.3398 182.512 78.4375C182.674 78.5026 182.837 78.6491 183 78.877C183.195 79.0723 183.293 79.3164 183.293 79.6094C183.326 79.8698 183.293 80.0977 183.195 80.293C183.13 80.4883 182.984 80.6348 182.756 80.7324C182.561 80.8301 182.398 80.8952 182.268 80.9277C182.17 80.9928 181.958 81.0579 181.633 81.123C181.34 81.1882 181.161 81.2207 181.096 81.2207C180.803 81.2858 180.347 81.416 179.729 81.6113C179.11 81.8392 178.605 81.9857 178.215 82.0508C177.954 82.1159 177.727 82.1322 177.531 82.0996C177.434 82.0996 177.352 82.0996 177.287 82.0996C174.26 81.9043 171.867 80.9766 170.109 79.3164C168.612 77.9167 167.814 76.0775 167.717 73.7988C167.684 73.5059 167.652 73.0501 167.619 72.4316C167.587 71.7806 167.554 71.3086 167.521 71.0156C167.326 69.8763 166.757 69.4043 165.812 69.5996C163.404 70.1855 161.369 70.4785 159.709 70.4785C158.179 70.4785 157.17 70.3809 156.682 70.1855C155.835 69.8275 155.38 69.3066 155.314 68.623ZM174.602 58.2227C174.536 58.3529 174.504 58.4831 174.504 58.6133C174.504 58.8411 174.602 59.0853 174.797 59.3457C175.025 59.6061 175.253 59.7363 175.48 59.7363C175.578 59.7363 175.66 59.7201 175.725 59.6875C176.799 59.2969 177.792 58.8086 178.703 58.2227C183.488 55.3255 187.557 51.7773 190.91 47.5781C193.612 44.3555 195.581 40.8561 196.818 37.0801C197.274 35.6478 197.502 34.4922 197.502 33.6133C197.502 33.5156 197.502 33.418 197.502 33.3203C197.469 32.2135 197.225 31.4811 196.77 31.123C196.542 30.9603 196.298 30.8789 196.037 30.8789C195.679 30.8789 195.272 30.9928 194.816 31.2207C194.719 31.2533 194.572 31.3184 194.377 31.416C194.214 31.5137 194.084 31.5788 193.986 31.6113C191.024 34.0202 188.534 36.3151 186.516 38.4961C182.837 42.4674 179.566 47.2038 176.701 52.7051C176.05 54.0072 175.35 55.8464 174.602 58.2227ZM197.355 80V76.7773C197.648 69.388 199.048 61.8359 201.555 54.1211C203.475 48.1641 206.063 41.5234 209.318 34.1992C211.695 28.8932 214.999 22.1549 219.23 13.9844C219.751 12.9427 220.5 11.3639 221.477 9.24805C222.486 7.09961 223.234 5.52083 223.723 4.51172C223.951 4.12109 224.292 3.38867 224.748 2.31445C225.204 1.50065 225.676 0.963542 226.164 0.703125C226.49 0.540365 226.88 0.458984 227.336 0.458984C227.564 0.458984 227.792 0.47526 228.02 0.507812C228.898 0.703125 229.517 1.19141 229.875 1.97266C230.038 2.33073 230.119 2.72135 230.119 3.14453C230.119 3.60026 230.021 4.05599 229.826 4.51172C228.687 7.47396 227.629 9.73633 226.652 11.2988C225.806 12.666 224.976 14.0983 224.162 15.5957C223.381 17.0605 222.421 18.9323 221.281 21.2109C220.142 23.457 219.393 24.9219 219.035 25.6055C215.682 32.0833 212.411 39.2448 209.221 47.0898C205.575 56.3672 203.345 64.5378 202.531 71.6016C202.336 72.9036 202.238 74.2057 202.238 75.5078C202.238 76.7448 202.401 77.5586 202.727 77.9492C203.085 78.3073 203.817 78.5352 204.924 78.6328H206.73C207.577 78.8281 208.049 78.9583 208.146 79.0234C208.798 79.3164 209.204 79.8535 209.367 80.6348C209.53 81.416 209.383 82.1322 208.928 82.7832C208.505 83.4668 208.146 83.8737 207.854 84.0039C206.844 84.4271 206.014 84.7363 205.363 84.9316C204.745 85.1595 203.964 85.2734 203.02 85.2734C202.987 85.2734 202.954 85.2734 202.922 85.2734C202.01 85.2734 201.148 85.0781 200.334 84.6875C198.446 83.8737 197.453 82.3112 197.355 80Z" fill="#FBB03B"/>
</svg>
