<svg width="222" height="80" viewBox="0 0 222 80" fill="none" xmlns="http://www.w3.org/2000/svg">
<path d="M171.727 77.0273C171.661 76.7344 171.629 76.4251 171.629 76.0996C171.629 75.3835 171.792 74.5208 172.117 73.5117C172.671 71.9818 173.484 69.7031 174.559 66.6758C175.633 63.6159 176.447 61.321 177 59.791C177.749 57.5449 178.855 54.1921 180.32 49.7324C181.818 45.2728 182.941 41.9362 183.689 39.7227C184.015 38.6484 184.536 37.0534 185.252 34.9375C185.968 32.7891 186.489 31.1777 186.814 30.1035C187.498 27.5645 187.84 25.416 187.84 23.6582C187.84 23.235 187.824 22.8444 187.791 22.4863C187.758 22.3561 187.742 22.2096 187.742 22.0469C187.742 20.9727 188.263 19.5892 189.305 17.8965C189.793 17.0501 190.428 16.5456 191.209 16.3828C191.404 16.3503 191.583 16.334 191.746 16.334C192.332 16.334 192.918 16.5293 193.504 16.9199C194.122 17.4408 194.48 18.1081 194.578 18.9219C194.578 20.0612 194.546 20.8913 194.48 21.4121C194.318 23.9512 193.732 26.6855 192.723 29.6152C191.062 34.3027 190.086 37.1348 189.793 38.1113C187.449 45.11 186.049 49.3092 185.594 50.709C185.105 52.3691 184.747 53.7038 184.52 54.7129C184.52 55.0384 184.585 55.2663 184.715 55.3965C184.943 55.6243 185.171 55.5592 185.398 55.2012C188.719 51.002 190.493 48.7396 190.721 48.4141C190.949 48.0885 191.941 46.819 193.699 44.6055C194.546 43.5638 196.043 41.7083 198.191 39.0391C200.34 36.3372 202.016 34.2865 203.221 32.8867C205.727 29.7617 208.82 27.0273 212.498 24.6836C213.572 24.0977 214.533 23.8047 215.379 23.8047C215.672 23.8047 215.949 23.8372 216.209 23.9023C218.13 24.293 219.448 24.9928 220.164 26.002C220.815 26.8809 221.124 28.1992 221.092 29.957C221.092 30.1849 221.092 30.429 221.092 30.6895C220.994 33.4564 220.424 36.2233 219.383 38.9902C219.122 39.6738 217.82 42.9779 215.477 48.9023C215.118 49.7487 214.256 51.7995 212.889 55.0547C211.521 58.2773 210.496 60.7513 209.812 62.4766C209.357 63.5508 208.852 65.2272 208.299 67.5059C208.104 68.1569 208.136 69.0846 208.396 70.2891C208.559 71.2656 208.462 72.112 208.104 72.8281C207.745 73.5117 207.143 74.2279 206.297 74.9766C205.874 75.3672 205.288 75.5299 204.539 75.4648C203.79 75.4323 203.172 75.1719 202.684 74.6836C202 74 201.658 73.1862 201.658 72.2422C201.658 71.7865 201.74 71.2982 201.902 70.7773C203.237 66.4154 204.067 63.7949 204.393 62.916C205.109 61.0605 206.215 58.2936 207.713 54.6152C209.21 50.9043 210.333 48.1048 211.082 46.2168C212.645 42.4733 213.849 38.7298 214.695 34.9863C214.988 34.0749 215.135 33.2285 215.135 32.4473C215.135 32.2194 215.118 32.0078 215.086 31.8125C215.086 31.194 214.939 30.7708 214.646 30.543C214.354 30.2826 214.012 30.2988 213.621 30.5918C211.375 32.252 210.04 33.2936 209.617 33.7168C205.743 37.5905 201.805 42.2129 197.801 47.584C195.132 51.2624 193.292 53.7363 192.283 55.0059C190.818 56.8288 188.865 59.5957 186.424 63.3066C183.982 66.985 182.534 69.1497 182.078 69.8008C181.948 69.9635 181.769 70.2402 181.541 70.6309C181.313 70.9889 181.134 71.2493 181.004 71.4121C179.474 73.2676 178.302 75.2044 177.488 77.2227C176.967 78.4271 176.398 79.1921 175.779 79.5176C175.421 79.6803 175.096 79.7617 174.803 79.7617C174.445 79.7617 174.103 79.6478 173.777 79.4199C172.671 78.6712 171.987 77.8737 171.727 77.0273Z" fill="#FBB03B"/>
<path d="M142.137 57.3984C142.397 54.6641 143.064 51.832 144.139 48.9023C144.171 48.7721 145.034 46.3307 146.727 41.5781C150.112 32.5612 155.304 25.6276 162.303 20.7773C163.67 19.7357 165.379 19.2148 167.43 19.2148C169.448 19.2148 170.88 20.3704 171.727 22.6816C171.857 23.0397 172.003 23.6257 172.166 24.4395C172.361 25.2533 172.573 25.9694 172.801 26.5879C173.029 27.1738 173.305 27.7109 173.631 28.1992C173.826 28.4596 173.924 29.0618 173.924 30.0059V34.3027C173.924 39.3483 173.452 44.6543 172.508 50.2207C171.076 57.4473 168.553 63.2741 164.939 67.7012C160.74 72.7467 156.167 75.5788 151.219 76.1973C150.893 76.2298 150.584 76.2461 150.291 76.2461C148.566 76.2461 146.987 75.5299 145.555 74.0977C143.927 72.4049 142.885 70.3704 142.43 67.9941C142.072 65.8783 141.893 63.7624 141.893 61.6465C141.893 60.2467 141.974 58.8307 142.137 57.3984ZM146.727 61.3047C146.727 62.8997 146.792 64.1693 146.922 65.1133C147.215 67.099 147.833 68.4499 148.777 69.166C149.331 69.5892 149.949 69.8008 150.633 69.8008C151.089 69.8008 151.561 69.7031 152.049 69.5078C152.146 69.4753 152.358 69.4102 152.684 69.3125C153.042 69.2148 153.318 69.1172 153.514 69.0195C158.396 66.4805 162.026 62.5417 164.402 57.2031C166.551 52.5807 167.918 46.2493 168.504 38.209C168.536 37.8835 168.553 37.5579 168.553 37.2324C168.553 35.9954 168.243 34.8887 167.625 33.9121C166.876 32.61 166.502 31.1289 166.502 29.4688C166.502 29.2734 166.502 29.0781 166.502 28.8828C166.502 28.3945 166.437 27.6296 166.307 26.5879C166.242 26.0996 166.03 25.8555 165.672 25.8555C165.607 25.8555 165.525 25.8717 165.428 25.9043C164.028 26.3275 162.856 26.9622 161.912 27.8086C157.518 31.7148 153.888 36.7116 151.023 42.7988C148.354 48.3001 146.922 54.4688 146.727 61.3047Z" fill="#FBB03B"/>
<path d="M76.7559 73.6094C76.821 73.5443 76.8535 73.4466 76.8535 73.3164C77.6348 71.9167 78.3184 70.3867 78.9043 68.7266C79.4577 67.0664 80.0111 65.1458 80.5645 62.9648C81.1504 60.7839 81.6061 59.1888 81.9316 58.1797C84.959 48.5117 87.7259 40.0156 90.2324 32.6914C93.0319 24.4883 94.7734 19.5892 95.457 17.9941C95.7826 17.0501 96.1732 16.2526 96.6289 15.6016C97.1823 14.8854 97.7682 14.5273 98.3867 14.5273C98.7122 14.5273 99.0378 14.625 99.3633 14.8203C99.7539 15.0156 100.079 15.39 100.34 15.9434C100.633 16.4967 100.763 17.0501 100.73 17.6035C100.73 18.4824 100.503 19.3776 100.047 20.2891C98.1914 24.2604 95.9616 30.2012 93.3574 38.1113C92.9993 39.2832 91.8926 42.3105 90.0371 47.1934C89.6139 48.3652 89.321 49.5046 89.1582 50.6113C89.0605 50.7741 89.1257 51.0671 89.3535 51.4902C89.7441 51.7832 90.1022 51.7181 90.4277 51.2949C90.7858 50.9368 91.0625 50.6113 91.2578 50.3184C94.5781 44.8496 97.1009 40.748 98.8262 38.0137C100.779 34.9863 102.488 32.5449 103.953 30.6895C104.279 30.2663 105.239 28.9316 106.834 26.6855C108.462 24.4395 109.764 22.7793 110.74 21.7051C111.847 20.4355 113.051 19.8008 114.354 19.8008C115.395 19.7357 116.323 19.9961 117.137 20.582C117.951 21.168 118.52 22.0143 118.846 23.1211C119.334 24.8789 119.594 26.4577 119.627 27.8574C119.627 28.5085 119.562 29.127 119.432 29.7129C118.781 34.2376 117.755 38.9414 116.355 43.8242C116.095 44.9635 115.932 45.8913 115.867 46.6074C115.867 46.8353 115.965 46.998 116.16 47.0957C116.225 47.1283 116.307 47.1445 116.404 47.1445C116.502 47.1445 116.583 47.1283 116.648 47.0957C117.169 46.6725 117.641 46.2005 118.064 45.6797C120.766 42.457 123.501 39.2344 126.268 36.0117C128.742 33.1471 131.736 30.25 135.252 27.3203C135.415 27.1901 135.659 27.0111 135.984 26.7832C136.342 26.5228 136.603 26.3275 136.766 26.1973C137.677 25.6113 138.589 25.3184 139.5 25.3184C140.314 25.3184 141.111 25.5625 141.893 26.0508C143.553 27.0599 144.497 28.7363 144.725 31.0801C144.79 31.666 144.822 32.5449 144.822 33.7168C144.725 36.7116 144.301 39.446 143.553 41.9199C143.13 43.3197 141.453 48.7721 138.523 58.2773C137.645 61.6302 137.124 63.9089 136.961 65.1133C136.928 65.5039 136.863 65.8945 136.766 66.2852C136.668 66.6432 136.521 67.0339 136.326 67.457C136.131 67.8477 135.968 68.1406 135.838 68.3359C135.74 68.5312 135.529 68.873 135.203 69.3613C134.91 69.8496 134.731 70.1589 134.666 70.2891C134.243 70.9076 133.673 71.0378 132.957 70.6797C132.046 70.1589 131.541 69.8333 131.443 69.7031C130.564 69.1172 130.271 68.222 130.564 67.0176C130.857 65.6504 131.411 63.7786 132.225 61.4023C133.038 58.9935 133.543 57.431 133.738 56.7148C133.934 56.0312 134.324 54.7943 134.91 53.0039C135.496 51.2135 135.919 49.8626 136.18 48.9512C136.473 48.0397 136.831 46.8516 137.254 45.3867C137.677 43.9219 138.019 42.5547 138.279 41.2852C138.572 40.0156 138.833 38.7461 139.061 37.4766C139.321 36.1745 139.451 35.0514 139.451 34.1074C139.451 33.6842 139.419 33.2773 139.354 32.8867C139.288 32.4961 139.109 32.2031 138.816 32.0078C138.523 31.8125 138.23 31.8125 137.938 32.0078C136.993 32.6263 135.757 33.554 134.227 34.791C130.711 37.9811 126.691 42.6849 122.166 48.9023C120.766 50.8229 118.846 53.6549 116.404 57.3984C113.995 61.1419 112.205 63.8438 111.033 65.5039C110.838 65.7318 110.594 66.1224 110.301 66.6758C110.04 67.2292 109.894 67.5384 109.861 67.6035C109.601 68.2546 109.324 68.7266 109.031 69.0195C108.413 69.8333 107.778 70.2402 107.127 70.2402C106.736 70.2402 106.313 70.0938 105.857 69.8008C104.62 68.987 104.002 67.9128 104.002 66.5781C104.002 66.3177 104.018 66.0573 104.051 65.7969C104.344 64.6576 104.572 63.86 104.734 63.4043C107.762 55.0384 110.398 46.2656 112.645 37.0859C112.71 36.8255 112.824 36.3861 112.986 35.7676C113.149 35.1491 113.263 34.6771 113.328 34.3516C113.426 33.9935 113.523 33.554 113.621 33.0332C113.751 32.5124 113.833 32.0241 113.865 31.5684C113.93 31.1126 113.963 30.6569 113.963 30.2012C113.963 30.1035 113.963 29.9082 113.963 29.6152C113.995 29.2897 113.995 29.0456 113.963 28.8828C113.963 28.7201 113.947 28.5247 113.914 28.2969C113.882 28.069 113.8 27.89 113.67 27.7598C113.572 27.597 113.426 27.4831 113.23 27.418C113.068 27.2552 112.856 27.2552 112.596 27.418C112.368 27.5482 112.205 27.6621 112.107 27.7598C112.042 27.8249 111.912 28.0039 111.717 28.2969C111.521 28.5573 111.391 28.7201 111.326 28.7852C106.899 34.5143 103.107 39.9831 99.9492 45.1914C99.3307 46.2005 98.2565 47.8607 96.7266 50.1719C95.2292 52.4831 94.0736 54.2897 93.2598 55.5918C92.3809 57.0241 91.1276 59.1237 89.5 61.8906C87.9049 64.6576 86.9935 66.2201 86.7656 66.5781C86.082 68.0104 85.3008 69.3776 84.4219 70.6797C83.6732 71.7539 82.8431 73.4954 81.9316 75.9043C81.8991 75.9694 81.8665 76.0833 81.834 76.2461C81.8014 76.4089 81.7689 76.5228 81.7363 76.5879C81.3457 77.5319 80.8737 78.2643 80.3203 78.7852C79.9622 79.1107 79.6367 79.2897 79.3438 79.3223C79.2135 79.3223 79.0833 79.2734 78.9531 79.1758C77.293 77.8411 76.4629 76.474 76.4629 75.0742C76.4629 74.5859 76.5605 74.0977 76.7559 73.6094Z" fill="#FBB03B"/>
<path d="M36.3262 62.623C36.3262 62.4928 36.3262 62.3789 36.3262 62.2812C36.3262 61.5651 36.5866 60.9303 37.1074 60.377C37.6934 59.6934 38.4258 59.4004 39.3047 59.498C39.8255 59.5306 40.3464 59.5306 40.8672 59.498C41.388 59.4655 41.9414 59.4004 42.5273 59.3027C43.1133 59.1725 43.6016 59.0586 43.9922 58.9609C44.3828 58.8633 44.9362 58.7168 45.6523 58.5215C46.3359 58.2936 46.8242 58.1471 47.1172 58.082C47.9961 57.8867 48.6634 57.5449 49.1191 57.0566C49.6074 56.5358 49.9655 55.7871 50.1934 54.8105C51.9837 47.6491 54.9297 41.1061 59.0312 35.1816C63.0026 29.2897 67.4297 24.6348 72.3125 21.2168C74.2982 19.8496 76.0397 19.0846 77.5371 18.9219C77.6673 18.9219 77.7975 18.9219 77.9277 18.9219C79.4577 18.9219 80.7435 19.459 81.7852 20.5332C82.9245 21.7051 83.5755 23.3001 83.7383 25.3184C83.7708 25.7741 83.7871 26.2298 83.7871 26.6855C83.7871 29.1921 83.2012 31.8288 82.0293 34.5957C79.7181 39.9342 76.2839 44.7682 71.7266 49.0977C66.8112 53.6875 61.6029 57.2845 56.1016 59.8887C55.5156 60.1816 55.1576 60.3444 55.0273 60.377C54.0182 60.8978 53.5137 61.7116 53.5137 62.8184C53.5137 62.916 53.5137 63.0137 53.5137 63.1113V66.6758C53.8066 69.5404 55.1738 71.1191 57.6152 71.4121C57.9733 71.4772 58.4941 71.526 59.1777 71.5586C59.8939 71.5586 60.3659 71.5749 60.5938 71.6074C61.2773 71.6074 61.7493 71.6725 62.0098 71.8027C62.1074 71.8353 62.3353 71.9329 62.6934 72.0957C63.084 72.2259 63.3607 72.3398 63.5234 72.4375C63.6862 72.5026 63.849 72.6491 64.0117 72.877C64.207 73.0723 64.3047 73.3164 64.3047 73.6094C64.3372 73.8698 64.3047 74.0977 64.207 74.293C64.1419 74.4883 63.9954 74.6348 63.7676 74.7324C63.5723 74.8301 63.4095 74.8952 63.2793 74.9277C63.1816 74.9928 62.9701 75.0579 62.6445 75.123C62.3516 75.1882 62.1725 75.2207 62.1074 75.2207C61.8145 75.2858 61.3587 75.416 60.7402 75.6113C60.1217 75.8392 59.6172 75.9857 59.2266 76.0508C58.9661 76.1159 58.7383 76.1322 58.543 76.0996C58.4453 76.0996 58.3639 76.0996 58.2988 76.0996C55.2715 75.9043 52.8789 74.9766 51.1211 73.3164C49.6237 71.9167 48.8262 70.0775 48.7285 67.7988C48.696 67.5059 48.6634 67.0501 48.6309 66.4316C48.5983 65.7806 48.5658 65.3086 48.5332 65.0156C48.3379 63.8763 47.7682 63.4043 46.8242 63.5996C44.4154 64.1855 42.3809 64.4785 40.7207 64.4785C39.1908 64.4785 38.1816 64.3809 37.6934 64.1855C36.847 63.8275 36.3913 63.3066 36.3262 62.623ZM55.6133 52.2227C55.5482 52.3529 55.5156 52.4831 55.5156 52.6133C55.5156 52.8411 55.6133 53.0853 55.8086 53.3457C56.0365 53.6061 56.2643 53.7363 56.4922 53.7363C56.5898 53.7363 56.6712 53.7201 56.7363 53.6875C57.8105 53.2969 58.8034 52.8086 59.7148 52.2227C64.5 49.3255 68.569 45.7773 71.9219 41.5781C74.6237 38.3555 76.5931 34.8561 77.8301 31.0801C78.2858 29.6478 78.5137 28.4922 78.5137 27.6133C78.5137 27.5156 78.5137 27.418 78.5137 27.3203C78.4811 26.2135 78.237 25.4811 77.7812 25.123C77.5534 24.9603 77.3092 24.8789 77.0488 24.8789C76.6908 24.8789 76.2839 24.9928 75.8281 25.2207C75.7305 25.2533 75.584 25.3184 75.3887 25.416C75.2259 25.5137 75.0957 25.5788 74.998 25.6113C72.0358 28.0202 69.5456 30.3151 67.5273 32.4961C63.849 36.4674 60.5775 41.2038 57.7129 46.7051C57.0618 48.0072 56.362 49.8464 55.6133 52.2227Z" fill="#FBB03B"/>
<path d="M1.02344 76.1973C0.795573 75.7415 0.681641 75.2533 0.681641 74.7324C0.681641 74.1465 0.828125 73.4954 1.12109 72.7793C2.16276 70.1751 3.18815 68.043 4.19727 66.3828C4.97852 65.1458 6.10156 63.2741 7.56641 60.7676C9.03125 58.2285 10.138 56.3405 10.8867 55.1035C11.5378 53.9967 13.0352 51.6693 15.3789 48.1211C15.8346 47.3724 16.8438 45.8424 18.4062 43.5312C20.0013 41.1875 21.2057 39.3483 22.0195 38.0137C22.7031 36.8743 23.8587 35.0026 25.4863 32.3984C27.1465 29.7617 28.5625 27.4505 29.7344 25.4648C30.9388 23.4792 32.0618 21.526 33.1035 19.6055C35.252 15.5365 38.377 9.9375 42.4785 2.80859C42.5111 2.74349 42.5599 2.66211 42.625 2.56445C42.7227 2.4668 42.7878 2.38542 42.8203 2.32031C43.5365 1.34375 44.1549 0.822917 44.6758 0.757812C44.7083 0.757812 44.7409 0.741536 44.7734 0.708984C45.2943 0.708984 45.929 1.13216 46.6777 1.97852C47.2311 2.59701 47.5404 3.13411 47.6055 3.58984C47.6055 3.6875 47.6217 3.78516 47.6543 3.88281C47.6543 4.30599 47.5078 4.81055 47.2148 5.39648C46.2383 7.02409 45.6361 7.98438 45.4082 8.27734C44.4642 9.44922 43.5365 10.7513 42.625 12.1836C41.7461 13.6159 40.7858 15.276 39.7441 17.1641C38.7025 19.0521 37.8887 20.4681 37.3027 21.4121C33.071 28.541 30.5319 32.7402 29.6855 34.0098C27.9928 36.5163 24.168 42.5384 18.2109 52.0762C17.8529 52.6296 17.332 53.4271 16.6484 54.4688C15.9974 55.4779 15.3952 56.4056 14.8418 57.252C14.2884 58.0983 13.7676 58.9121 13.2793 59.6934C12.7259 60.6699 11.9447 62.1022 10.9355 63.9902C9.92643 65.8783 9.30794 67.0176 9.08008 67.4082L8.78711 67.9941C8.49414 68.8079 8.42904 69.3776 8.5918 69.7031C8.75456 70.0286 9.19401 70.224 9.91016 70.2891C10.4635 70.2891 11.2448 70.1914 12.2539 69.9961C13.263 69.7682 13.849 69.638 14.0117 69.6055C20.8802 68.0104 27.2604 67.2129 33.1523 67.2129C34.2591 67.2129 35.3496 67.2454 36.4238 67.3105C39.0931 67.4082 41.4857 67.9779 43.6016 69.0195C43.9922 69.2148 44.3177 69.4427 44.5781 69.7031C44.9362 70.1914 45.0176 70.6309 44.8223 71.0215C44.3991 71.8353 43.8294 72.291 43.1133 72.3887C42.5924 72.4538 41.7135 72.4863 40.4766 72.4863H34.9102C34.5521 72.4863 34.194 72.4863 33.8359 72.4863C26.8698 72.4863 20.457 73.3978 14.5977 75.2207C12.6445 75.9043 10.0404 76.6042 6.78516 77.3203C5.80859 77.5156 4.75065 77.6133 3.61133 77.6133C2.37435 77.6133 1.51172 77.1413 1.02344 76.1973Z" fill="#FBB03B"/>
</svg>
