<svg width="134" height="78" viewBox="0 0 134 78" fill="none" xmlns="http://www.w3.org/2000/svg">
<path d="M86.0332 62.623C86.0332 62.4928 86.0332 62.3789 86.0332 62.2812C86.0332 61.5651 86.2936 60.9303 86.8145 60.377C87.4004 59.6934 88.1328 59.4004 89.0117 59.498C89.5326 59.5306 90.0534 59.5306 90.5742 59.498C91.0951 59.4655 91.6484 59.4004 92.2344 59.3027C92.8203 59.1725 93.3086 59.0586 93.6992 58.9609C94.0898 58.8633 94.6432 58.7168 95.3594 58.5215C96.043 58.2936 96.5312 58.1471 96.8242 58.082C97.7031 57.8867 98.3704 57.5449 98.8262 57.0566C99.3145 56.5358 99.6725 55.7871 99.9004 54.8105C101.691 47.6491 104.637 41.1061 108.738 35.1816C112.71 29.2897 117.137 24.6348 122.02 21.2168C124.005 19.8496 125.747 19.0846 127.244 18.9219C127.374 18.9219 127.505 18.9219 127.635 18.9219C129.165 18.9219 130.451 19.459 131.492 20.5332C132.632 21.7051 133.283 23.3001 133.445 25.3184C133.478 25.7741 133.494 26.2298 133.494 26.6855C133.494 29.1921 132.908 31.8288 131.736 34.5957C129.425 39.9342 125.991 44.7682 121.434 49.0977C116.518 53.6875 111.31 57.2845 105.809 59.8887C105.223 60.1816 104.865 60.3444 104.734 60.377C103.725 60.8978 103.221 61.7116 103.221 62.8184C103.221 62.916 103.221 63.0137 103.221 63.1113V66.6758C103.514 69.5404 104.881 71.1191 107.322 71.4121C107.68 71.4772 108.201 71.526 108.885 71.5586C109.601 71.5586 110.073 71.5749 110.301 71.6074C110.984 71.6074 111.456 71.6725 111.717 71.8027C111.814 71.8353 112.042 71.9329 112.4 72.0957C112.791 72.2259 113.068 72.3398 113.23 72.4375C113.393 72.5026 113.556 72.6491 113.719 72.877C113.914 73.0723 114.012 73.3164 114.012 73.6094C114.044 73.8698 114.012 74.0977 113.914 74.293C113.849 74.4883 113.702 74.6348 113.475 74.7324C113.279 74.8301 113.117 74.8952 112.986 74.9277C112.889 74.9928 112.677 75.0579 112.352 75.123C112.059 75.1882 111.88 75.2207 111.814 75.2207C111.521 75.2858 111.066 75.416 110.447 75.6113C109.829 75.8392 109.324 75.9857 108.934 76.0508C108.673 76.1159 108.445 76.1322 108.25 76.0996C108.152 76.0996 108.071 76.0996 108.006 76.0996C104.979 75.9043 102.586 74.9766 100.828 73.3164C99.3307 71.9167 98.5332 70.0775 98.4355 67.7988C98.403 67.5059 98.3704 67.0501 98.3379 66.4316C98.3053 65.7806 98.2728 65.3086 98.2402 65.0156C98.0449 63.8763 97.4753 63.4043 96.5312 63.5996C94.1224 64.1855 92.0879 64.4785 90.4277 64.4785C88.8978 64.4785 87.8887 64.3809 87.4004 64.1855C86.554 63.8275 86.0983 63.3066 86.0332 62.623ZM105.32 52.2227C105.255 52.3529 105.223 52.4831 105.223 52.6133C105.223 52.8411 105.32 53.0853 105.516 53.3457C105.743 53.6061 105.971 53.7363 106.199 53.7363C106.297 53.7363 106.378 53.7201 106.443 53.6875C107.518 53.2969 108.51 52.8086 109.422 52.2227C114.207 49.3255 118.276 45.7773 121.629 41.5781C124.331 38.3555 126.3 34.8561 127.537 31.0801C127.993 29.6478 128.221 28.4922 128.221 27.6133C128.221 27.5156 128.221 27.418 128.221 27.3203C128.188 26.2135 127.944 25.4811 127.488 25.123C127.26 24.9603 127.016 24.8789 126.756 24.8789C126.398 24.8789 125.991 24.9928 125.535 25.2207C125.438 25.2533 125.291 25.3184 125.096 25.416C124.933 25.5137 124.803 25.5788 124.705 25.6113C121.743 28.0202 119.253 30.3151 117.234 32.4961C113.556 36.4674 110.285 41.2038 107.42 46.7051C106.769 48.0072 106.069 49.8464 105.32 52.2227Z" fill="#FBB03B"/>
<path d="M68.8945 55.5918C68.9596 53.2806 69.1712 49.0651 69.5293 42.9453C69.8548 37.3138 70.0176 32.8542 70.0176 29.5664C70.0176 29.2734 70.0176 28.9805 70.0176 28.6875C70.0501 28.4922 70.0664 28.248 70.0664 27.9551C70.0664 27.2389 70.0013 26.2135 69.8711 24.8789C69.8711 24 69.5456 22.9095 68.8945 21.6074C68.7318 21.1842 68.6504 20.7611 68.6504 20.3379C68.6504 19.4264 68.9922 18.4499 69.6758 17.4082C70.3594 16.2689 71.1895 15.6992 72.166 15.6992C72.3613 15.6992 72.5729 15.7318 72.8008 15.7969C73.3867 15.8945 73.8913 16.2689 74.3145 16.9199C74.6725 17.5384 74.9655 18.3685 75.1934 19.4102C75.1934 19.4427 75.2422 20.0124 75.3398 21.1191C75.4375 22.2259 75.4863 23.056 75.4863 23.6094C75.5189 24.4557 75.5352 25.4486 75.5352 26.5879C75.5352 28.8665 75.4538 31.7637 75.291 35.2793C74.6074 44.9798 74.2656 52.597 74.2656 58.1309C74.2656 59.0423 74.2819 59.9049 74.3145 60.7188C74.3145 61.3698 74.347 61.8581 74.4121 62.1836C74.4121 63.0625 74.5423 63.5345 74.8027 63.5996C75.2259 63.8926 75.7305 63.5996 76.3164 62.7207C76.9349 61.9069 78.2207 60.0677 80.1738 57.2031C83.1361 52.418 86.1146 48.1211 89.1094 44.3125C93.4714 38.681 99.1354 30.6406 106.102 20.1914C106.427 19.6706 106.932 18.9382 107.615 17.9941C108.331 17.0176 108.852 16.2852 109.178 15.7969C109.308 15.6341 109.487 15.4225 109.715 15.1621C109.975 14.8691 110.171 14.6413 110.301 14.4785C110.789 14.0553 111.261 13.8438 111.717 13.8438C112.01 13.8438 112.303 13.9251 112.596 14.0879C112.758 14.1855 112.872 14.332 112.938 14.5273C113.003 14.6901 113.035 14.8529 113.035 15.0156C113.035 15.1784 113.019 15.4388 112.986 15.7969C112.986 16.1224 112.986 16.3828 112.986 16.5781C112.921 17.1966 112.498 18.2708 111.717 19.8008C107.452 27.7435 101.707 36.4837 94.4805 46.0215C92.9505 48.0397 90.8997 50.9694 88.3281 54.8105C85.7891 58.6191 84.1126 61.1094 83.2988 62.2812C82.7454 63.1602 81.8828 64.4785 80.7109 66.2363C79.5391 67.9941 78.6602 69.3125 78.0742 70.1914C77.7487 70.6797 77.2279 71.3307 76.5117 72.1445C75.8281 72.9583 75.3561 73.5443 75.0957 73.9023C74.5749 74.5859 73.8913 74.9277 73.0449 74.9277C72.6868 74.9277 72.3125 74.8626 71.9219 74.7324C70.5547 74.3418 69.7083 73.4629 69.3828 72.0957C69.3503 71.9329 69.3177 71.6725 69.2852 71.3145C69.2526 70.9238 69.2201 70.6471 69.1875 70.4844C68.9271 67.1641 68.7969 63.8438 68.7969 60.5234C68.7969 58.8958 68.8294 57.252 68.8945 55.5918Z" fill="#FBB03B"/>
<path d="M40.2812 73.1211C40.2812 72.5677 40.4115 71.9655 40.6719 71.3145C42.7878 64.5111 44.513 59.4004 45.8477 55.9824C48.875 47.8444 50.8444 42.4245 51.7559 39.7227C51.9512 39.1042 52.2279 38.1602 52.5859 36.8906C52.9766 35.6211 53.2695 34.6608 53.4648 34.0098C53.6927 33.3262 53.9206 32.7565 54.1484 32.3008C54.5065 31.6497 54.9948 31.2917 55.6133 31.2266C56.2643 31.1289 56.8177 31.3568 57.2734 31.9102C57.9245 32.7565 58.25 33.9935 58.25 35.6211C58.2174 35.8164 58.1686 36.1419 58.1035 36.5977C58.0384 37.0534 57.9896 37.3464 57.957 37.4766C57.6641 39.2018 57.0293 41.2363 56.0527 43.5801C54.2949 47.584 51.4629 55.1198 47.5566 66.1875C46.6126 68.8568 45.9779 71.1354 45.6523 73.0234C45.457 74.3906 44.8548 75.4811 43.8457 76.2949C43.39 76.5228 42.9668 76.6367 42.5762 76.6367C42.2181 76.6367 41.8763 76.5228 41.5508 76.2949C40.7044 75.4486 40.2812 74.5046 40.2812 73.4629C40.2812 73.3327 40.2812 73.2188 40.2812 73.1211ZM56.248 23.6094C56.541 22.5677 57.013 21.7376 57.6641 21.1191C58.2174 20.5983 58.7871 20.3379 59.373 20.3379C59.5033 20.3379 59.6335 20.3542 59.7637 20.3867C61.3262 20.8424 62.2865 21.7539 62.6445 23.1211C62.7747 23.5443 62.8236 23.9512 62.791 24.3418C62.791 25.1882 62.4818 25.8717 61.8633 26.3926C61.2122 26.8483 60.3822 27.0762 59.373 27.0762C59.015 27.0762 58.6406 26.9785 58.25 26.7832C57.5339 26.4577 56.9967 26.002 56.6387 25.416C56.3457 24.9603 56.1992 24.4883 56.1992 24C56.1992 23.8698 56.2155 23.7396 56.248 23.6094Z" fill="#FBB03B"/>
<path d="M1.02344 76.1973C0.795573 75.7415 0.681641 75.2533 0.681641 74.7324C0.681641 74.1465 0.828125 73.4954 1.12109 72.7793C2.16276 70.1751 3.18815 68.043 4.19727 66.3828C4.97852 65.1458 6.10156 63.2741 7.56641 60.7676C9.03125 58.2285 10.138 56.3405 10.8867 55.1035C11.5378 53.9967 13.0352 51.6693 15.3789 48.1211C15.8346 47.3724 16.8438 45.8424 18.4062 43.5312C20.0013 41.1875 21.2057 39.3483 22.0195 38.0137C22.7031 36.8743 23.8587 35.0026 25.4863 32.3984C27.1465 29.7617 28.5625 27.4505 29.7344 25.4648C30.9388 23.4792 32.0618 21.526 33.1035 19.6055C35.252 15.5365 38.377 9.9375 42.4785 2.80859C42.5111 2.74349 42.5599 2.66211 42.625 2.56445C42.7227 2.4668 42.7878 2.38542 42.8203 2.32031C43.5365 1.34375 44.1549 0.822917 44.6758 0.757812C44.7083 0.757812 44.7409 0.741536 44.7734 0.708984C45.2943 0.708984 45.929 1.13216 46.6777 1.97852C47.2311 2.59701 47.5404 3.13411 47.6055 3.58984C47.6055 3.6875 47.6217 3.78516 47.6543 3.88281C47.6543 4.30599 47.5078 4.81055 47.2148 5.39648C46.2383 7.02409 45.6361 7.98438 45.4082 8.27734C44.4642 9.44922 43.5365 10.7513 42.625 12.1836C41.7461 13.6159 40.7858 15.276 39.7441 17.1641C38.7025 19.0521 37.8887 20.4681 37.3027 21.4121C33.071 28.541 30.5319 32.7402 29.6855 34.0098C27.9928 36.5163 24.168 42.5384 18.2109 52.0762C17.8529 52.6296 17.332 53.4271 16.6484 54.4688C15.9974 55.4779 15.3952 56.4056 14.8418 57.252C14.2884 58.0983 13.7676 58.9121 13.2793 59.6934C12.7259 60.6699 11.9447 62.1022 10.9355 63.9902C9.92643 65.8783 9.30794 67.0176 9.08008 67.4082L8.78711 67.9941C8.49414 68.8079 8.42904 69.3776 8.5918 69.7031C8.75456 70.0286 9.19401 70.224 9.91016 70.2891C10.4635 70.2891 11.2448 70.1914 12.2539 69.9961C13.263 69.7682 13.849 69.638 14.0117 69.6055C20.8802 68.0104 27.2604 67.2129 33.1523 67.2129C34.2591 67.2129 35.3496 67.2454 36.4238 67.3105C39.0931 67.4082 41.4857 67.9779 43.6016 69.0195C43.9922 69.2148 44.3177 69.4427 44.5781 69.7031C44.9362 70.1914 45.0176 70.6309 44.8223 71.0215C44.3991 71.8353 43.8294 72.291 43.1133 72.3887C42.5924 72.4538 41.7135 72.4863 40.4766 72.4863H34.9102C34.5521 72.4863 34.194 72.4863 33.8359 72.4863C26.8698 72.4863 20.457 73.3978 14.5977 75.2207C12.6445 75.9043 10.0404 76.6042 6.78516 77.3203C5.80859 77.5156 4.75065 77.6133 3.61133 77.6133C2.37435 77.6133 1.51172 77.1413 1.02344 76.1973Z" fill="#FBB03B"/>
</svg>
