<svg width="272" height="76" viewBox="0 0 272 76" fill="none" xmlns="http://www.w3.org/2000/svg">
<path d="M209.17 71.6113C209.137 71.0579 209.121 70.4883 209.121 69.9023C209.121 66.9727 209.674 63.9128 210.781 60.7227C213.092 54.1146 216.022 48.2389 219.57 43.0957C221.947 39.4824 224.274 36.2109 226.553 33.2812C226.976 32.6953 227.432 32.0931 227.92 31.4746C228.441 30.8561 229.043 30.1562 229.727 29.375C230.443 28.5938 230.964 28.0078 231.289 27.6172C231.745 27.0964 232.428 26.2988 233.34 25.2246C234.251 24.1504 235.065 23.2064 235.781 22.3926C236.497 21.5788 237.197 20.8464 237.881 20.1953C243.317 14.8893 248.151 10.9505 252.383 8.37891C254.206 7.33724 255.996 6.63737 257.754 6.2793C258.405 6.14909 259.023 6.06771 259.609 6.03516C261.986 6.03516 263.711 7.22331 264.785 9.59961C264.915 9.86003 265.046 10.1855 265.176 10.5762C265.697 11.2272 266.201 11.4388 266.689 11.2109C266.787 11.1784 266.999 11.0807 267.324 10.918C267.65 10.7552 267.926 10.6413 268.154 10.5762C269.066 10.3158 269.863 10.4622 270.547 11.0156C271.263 11.5365 271.67 12.3665 271.768 13.5059C271.8 13.7663 271.816 14.0592 271.816 14.3848C271.816 15.3613 271.67 16.6309 271.377 18.1934C270.563 21.3509 269.294 24.5247 267.568 27.7148C265.615 31.556 263.483 34.8438 261.172 37.5781C259.967 39.043 259.17 40.8171 258.779 42.9004C257.965 45.9277 257.428 50.0293 257.168 55.2051C257.168 55.5306 257.168 55.8398 257.168 56.1328C257.168 58.8346 257.542 61.4225 258.291 63.8965C259.268 66.9238 261.009 68.4375 263.516 68.4375C264.102 68.4375 264.72 68.3561 265.371 68.1934C267.129 67.8027 268.431 67.5749 269.277 67.5098C270.026 67.2819 270.726 67.3145 271.377 67.6074C271.702 67.9329 271.865 68.2096 271.865 68.4375C271.833 68.5026 271.816 68.584 271.816 68.6816C271.751 68.8444 271.702 68.9583 271.67 69.0234C268.643 71.3997 265.55 72.6855 262.393 72.8809C262.295 72.8809 262.181 72.8809 262.051 72.8809C258.861 72.8809 256.598 71.4486 255.264 68.584C253.538 65.3288 252.676 61.9271 252.676 58.3789V54.7168H252.48L252.529 52.0312C252.562 50.2083 252.546 49.2969 252.48 49.2969C252.48 48.7435 252.269 48.4017 251.846 48.2715C251.423 48.1087 251.032 48.2227 250.674 48.6133C249.274 50.013 247.174 51.8197 244.375 54.0332C241.576 56.2142 239.736 57.6953 238.857 58.4766C236.807 60.2344 234.577 61.9108 232.168 63.5059C231.126 64.2546 229.417 65.459 227.041 67.1191C224.697 68.7793 222.907 70.0651 221.67 70.9766C220.01 72.1484 217.406 73.3203 213.857 74.4922C213.597 74.5573 213.288 74.5898 212.93 74.5898C212.572 74.5898 212.148 74.5573 211.66 74.4922C210.846 74.3294 210.26 74.0365 209.902 73.6133C209.512 73.1901 209.268 72.5228 209.17 71.6113ZM213.857 66.9238C213.825 67.1842 213.809 67.4121 213.809 67.6074C213.809 68.1608 213.939 68.5677 214.199 68.8281C214.395 68.9909 214.671 69.0723 215.029 69.0723C215.355 69.0723 215.729 69.0072 216.152 68.877C217.194 68.4863 218.903 67.4609 221.279 65.8008C224.697 63.8151 228.262 61.4551 231.973 58.7207C235.033 56.4421 237.327 54.7656 238.857 53.6914C239.964 52.9427 241.152 52.0801 242.422 51.1035C243.691 50.0944 244.717 49.2643 245.498 48.6133C246.312 47.9297 247.484 46.9368 249.014 45.6348C250.544 44.3001 251.602 43.3887 252.188 42.9004C253.132 42.054 253.604 41.1263 253.604 40.1172C253.604 39.7917 253.555 39.4499 253.457 39.0918C253.424 38.8965 253.424 38.6198 253.457 38.2617C253.522 37.8711 253.555 37.6107 253.555 37.4805C253.62 36.9596 253.701 36.4388 253.799 35.918C253.929 35.3646 254.108 34.7949 254.336 34.209C254.564 33.623 254.743 33.151 254.873 32.793C255.036 32.4023 255.28 31.849 255.605 31.1328C255.931 30.3841 256.159 29.8796 256.289 29.6191C257.917 26.1686 259.007 23.1576 259.561 20.5859C259.626 20.1953 259.74 19.528 259.902 18.584C260.098 17.64 260.228 17.0052 260.293 16.6797C260.293 14.5964 259.984 13.2617 259.365 12.6758C259.072 12.3828 258.665 12.2201 258.145 12.1875C257.624 12.1875 256.973 12.3503 256.191 12.6758C255.247 13.0013 254.645 13.2454 254.385 13.4082C252.725 14.4824 251.52 15.3125 250.771 15.8984C242.113 22.3438 234.007 30.5794 226.455 40.6055C222.484 45.7812 219.049 51.8848 216.152 58.916C215.208 60.9342 214.443 63.6035 213.857 66.9238Z" fill="#FBB03B"/>
<path d="M145.205 69.6094C145.27 69.5443 145.303 69.4466 145.303 69.3164C146.084 67.9167 146.768 66.3867 147.354 64.7266C147.907 63.0664 148.46 61.1458 149.014 58.9648C149.6 56.7839 150.055 55.1888 150.381 54.1797C153.408 44.5117 156.175 36.0156 158.682 28.6914C161.481 20.4883 163.223 15.5892 163.906 13.9941C164.232 13.0501 164.622 12.2526 165.078 11.6016C165.632 10.8854 166.217 10.5273 166.836 10.5273C167.161 10.5273 167.487 10.625 167.812 10.8203C168.203 11.0156 168.529 11.39 168.789 11.9434C169.082 12.4967 169.212 13.0501 169.18 13.6035C169.18 14.4824 168.952 15.3776 168.496 16.2891C166.641 20.2604 164.411 26.2012 161.807 34.1113C161.449 35.2832 160.342 38.3105 158.486 43.1934C158.063 44.3652 157.77 45.5046 157.607 46.6113C157.51 46.7741 157.575 47.0671 157.803 47.4902C158.193 47.7832 158.551 47.7181 158.877 47.2949C159.235 46.9368 159.512 46.6113 159.707 46.3184C163.027 40.8496 165.55 36.748 167.275 34.0137C169.229 30.9863 170.938 28.5449 172.402 26.6895C172.728 26.2663 173.688 24.9316 175.283 22.6855C176.911 20.4395 178.213 18.7793 179.189 17.7051C180.296 16.4355 181.501 15.8008 182.803 15.8008C183.844 15.7357 184.772 15.9961 185.586 16.582C186.4 17.168 186.969 18.0143 187.295 19.1211C187.783 20.8789 188.044 22.4577 188.076 23.8574C188.076 24.5085 188.011 25.127 187.881 25.7129C187.23 30.2376 186.204 34.9414 184.805 39.8242C184.544 40.9635 184.382 41.8913 184.316 42.6074C184.316 42.8353 184.414 42.998 184.609 43.0957C184.674 43.1283 184.756 43.1445 184.854 43.1445C184.951 43.1445 185.033 43.1283 185.098 43.0957C185.618 42.6725 186.09 42.2005 186.514 41.6797C189.215 38.457 191.95 35.2344 194.717 32.0117C197.191 29.1471 200.186 26.25 203.701 23.3203C203.864 23.1901 204.108 23.0111 204.434 22.7832C204.792 22.5228 205.052 22.3275 205.215 22.1973C206.126 21.6113 207.038 21.3184 207.949 21.3184C208.763 21.3184 209.561 21.5625 210.342 22.0508C212.002 23.0599 212.946 24.7363 213.174 27.0801C213.239 27.666 213.271 28.5449 213.271 29.7168C213.174 32.7116 212.751 35.446 212.002 37.9199C211.579 39.3197 209.902 44.7721 206.973 54.2773C206.094 57.6302 205.573 59.9089 205.41 61.1133C205.378 61.5039 205.312 61.8945 205.215 62.2852C205.117 62.6432 204.971 63.0339 204.775 63.457C204.58 63.8477 204.417 64.1406 204.287 64.3359C204.189 64.5312 203.978 64.873 203.652 65.3613C203.359 65.8496 203.18 66.1589 203.115 66.2891C202.692 66.9076 202.122 67.0378 201.406 66.6797C200.495 66.1589 199.99 65.8333 199.893 65.7031C199.014 65.1172 198.721 64.222 199.014 63.0176C199.307 61.6504 199.86 59.7786 200.674 57.4023C201.488 54.9935 201.992 53.431 202.188 52.7148C202.383 52.0312 202.773 50.7943 203.359 49.0039C203.945 47.2135 204.368 45.8626 204.629 44.9512C204.922 44.0397 205.28 42.8516 205.703 41.3867C206.126 39.9219 206.468 38.5547 206.729 37.2852C207.021 36.0156 207.282 34.7461 207.51 33.4766C207.77 32.1745 207.9 31.0514 207.9 30.1074C207.9 29.6842 207.868 29.2773 207.803 28.8867C207.738 28.4961 207.559 28.2031 207.266 28.0078C206.973 27.8125 206.68 27.8125 206.387 28.0078C205.443 28.6263 204.206 29.554 202.676 30.791C199.16 33.9811 195.14 38.6849 190.615 44.9023C189.215 46.8229 187.295 49.6549 184.854 53.3984C182.445 57.1419 180.654 59.8438 179.482 61.5039C179.287 61.7318 179.043 62.1224 178.75 62.6758C178.49 63.2292 178.343 63.5384 178.311 63.6035C178.05 64.2546 177.773 64.7266 177.48 65.0195C176.862 65.8333 176.227 66.2402 175.576 66.2402C175.186 66.2402 174.762 66.0938 174.307 65.8008C173.07 64.987 172.451 63.9128 172.451 62.5781C172.451 62.3177 172.467 62.0573 172.5 61.7969C172.793 60.6576 173.021 59.86 173.184 59.4043C176.211 51.0384 178.848 42.2656 181.094 33.0859C181.159 32.8255 181.273 32.3861 181.436 31.7676C181.598 31.1491 181.712 30.6771 181.777 30.3516C181.875 29.9935 181.973 29.554 182.07 29.0332C182.201 28.5124 182.282 28.0241 182.314 27.5684C182.38 27.1126 182.412 26.6569 182.412 26.2012C182.412 26.1035 182.412 25.9082 182.412 25.6152C182.445 25.2897 182.445 25.0456 182.412 24.8828C182.412 24.7201 182.396 24.5247 182.363 24.2969C182.331 24.069 182.249 23.89 182.119 23.7598C182.021 23.597 181.875 23.4831 181.68 23.418C181.517 23.2552 181.305 23.2552 181.045 23.418C180.817 23.5482 180.654 23.6621 180.557 23.7598C180.492 23.8249 180.361 24.0039 180.166 24.2969C179.971 24.5573 179.84 24.7201 179.775 24.7852C175.348 30.5143 171.556 35.9831 168.398 41.1914C167.78 42.2005 166.706 43.8607 165.176 46.1719C163.678 48.4831 162.523 50.2897 161.709 51.5918C160.83 53.0241 159.577 55.1237 157.949 57.8906C156.354 60.6576 155.443 62.2201 155.215 62.5781C154.531 64.0104 153.75 65.3776 152.871 66.6797C152.122 67.7539 151.292 69.4954 150.381 71.9043C150.348 71.9694 150.316 72.0833 150.283 72.2461C150.251 72.4089 150.218 72.5228 150.186 72.5879C149.795 73.5319 149.323 74.2643 148.77 74.7852C148.411 75.1107 148.086 75.2897 147.793 75.3223C147.663 75.3223 147.533 75.2734 147.402 75.1758C145.742 73.8411 144.912 72.474 144.912 71.0742C144.912 70.5859 145.01 70.0977 145.205 69.6094Z" fill="#FBB03B"/>
<path d="M86.0254 71.6113C85.9928 71.0579 85.9766 70.4883 85.9766 69.9023C85.9766 66.9727 86.5299 63.9128 87.6367 60.7227C89.9479 54.1146 92.8776 48.2389 96.4258 43.0957C98.8021 39.4824 101.13 36.2109 103.408 33.2812C103.831 32.6953 104.287 32.0931 104.775 31.4746C105.296 30.8561 105.898 30.1562 106.582 29.375C107.298 28.5938 107.819 28.0078 108.145 27.6172C108.6 27.0964 109.284 26.2988 110.195 25.2246C111.107 24.1504 111.921 23.2064 112.637 22.3926C113.353 21.5788 114.053 20.8464 114.736 20.1953C120.173 14.8893 125.007 10.9505 129.238 8.37891C131.061 7.33724 132.852 6.63737 134.609 6.2793C135.26 6.14909 135.879 6.06771 136.465 6.03516C138.841 6.03516 140.566 7.22331 141.641 9.59961C141.771 9.86003 141.901 10.1855 142.031 10.5762C142.552 11.2272 143.057 11.4388 143.545 11.2109C143.643 11.1784 143.854 11.0807 144.18 10.918C144.505 10.7552 144.782 10.6413 145.01 10.5762C145.921 10.3158 146.719 10.4622 147.402 11.0156C148.118 11.5365 148.525 12.3665 148.623 13.5059C148.656 13.7663 148.672 14.0592 148.672 14.3848C148.672 15.3613 148.525 16.6309 148.232 18.1934C147.419 21.3509 146.149 24.5247 144.424 27.7148C142.471 31.556 140.339 34.8438 138.027 37.5781C136.823 39.043 136.025 40.8171 135.635 42.9004C134.821 45.9277 134.284 50.0293 134.023 55.2051C134.023 55.5306 134.023 55.8398 134.023 56.1328C134.023 58.8346 134.398 61.4225 135.146 63.8965C136.123 66.9238 137.865 68.4375 140.371 68.4375C140.957 68.4375 141.576 68.3561 142.227 68.1934C143.984 67.8027 145.286 67.5749 146.133 67.5098C146.882 67.2819 147.581 67.3145 148.232 67.6074C148.558 67.9329 148.721 68.2096 148.721 68.4375C148.688 68.5026 148.672 68.584 148.672 68.6816C148.607 68.8444 148.558 68.9583 148.525 69.0234C145.498 71.3997 142.406 72.6855 139.248 72.8809C139.15 72.8809 139.036 72.8809 138.906 72.8809C135.716 72.8809 133.454 71.4486 132.119 68.584C130.394 65.3288 129.531 61.9271 129.531 58.3789V54.7168H129.336L129.385 52.0312C129.417 50.2083 129.401 49.2969 129.336 49.2969C129.336 48.7435 129.124 48.4017 128.701 48.2715C128.278 48.1087 127.887 48.2227 127.529 48.6133C126.13 50.013 124.03 51.8197 121.23 54.0332C118.431 56.2142 116.592 57.6953 115.713 58.4766C113.662 60.2344 111.432 61.9108 109.023 63.5059C107.982 64.2546 106.273 65.459 103.896 67.1191C101.553 68.7793 99.7624 70.0651 98.5254 70.9766C96.8652 72.1484 94.2611 73.3203 90.7129 74.4922C90.4525 74.5573 90.1432 74.5898 89.7852 74.5898C89.4271 74.5898 89.0039 74.5573 88.5156 74.4922C87.7018 74.3294 87.1159 74.0365 86.7578 73.6133C86.3672 73.1901 86.123 72.5228 86.0254 71.6113ZM90.7129 66.9238C90.6803 67.1842 90.6641 67.4121 90.6641 67.6074C90.6641 68.1608 90.7943 68.5677 91.0547 68.8281C91.25 68.9909 91.5267 69.0723 91.8848 69.0723C92.2103 69.0723 92.5846 69.0072 93.0078 68.877C94.0495 68.4863 95.7585 67.4609 98.1348 65.8008C101.553 63.8151 105.117 61.4551 108.828 58.7207C111.888 56.4421 114.183 54.7656 115.713 53.6914C116.82 52.9427 118.008 52.0801 119.277 51.1035C120.547 50.0944 121.572 49.2643 122.354 48.6133C123.167 47.9297 124.339 46.9368 125.869 45.6348C127.399 44.3001 128.457 43.3887 129.043 42.9004C129.987 42.054 130.459 41.1263 130.459 40.1172C130.459 39.7917 130.41 39.4499 130.312 39.0918C130.28 38.8965 130.28 38.6198 130.312 38.2617C130.378 37.8711 130.41 37.6107 130.41 37.4805C130.475 36.9596 130.557 36.4388 130.654 35.918C130.785 35.3646 130.964 34.7949 131.191 34.209C131.419 33.623 131.598 33.151 131.729 32.793C131.891 32.4023 132.135 31.849 132.461 31.1328C132.786 30.3841 133.014 29.8796 133.145 29.6191C134.772 26.1686 135.863 23.1576 136.416 20.5859C136.481 20.1953 136.595 19.528 136.758 18.584C136.953 17.64 137.083 17.0052 137.148 16.6797C137.148 14.5964 136.839 13.2617 136.221 12.6758C135.928 12.3828 135.521 12.2201 135 12.1875C134.479 12.1875 133.828 12.3503 133.047 12.6758C132.103 13.0013 131.501 13.2454 131.24 13.4082C129.58 14.4824 128.376 15.3125 127.627 15.8984C118.968 22.3438 110.863 30.5794 103.311 40.6055C99.3392 45.7812 95.9049 51.8848 93.0078 58.916C92.0638 60.9342 91.2988 63.6035 90.7129 66.9238Z" fill="#FBB03B"/>
<path d="M63.8086 67.7051C63.8086 67.4447 63.8249 67.054 63.8574 66.5332C63.89 65.9798 63.9062 65.5729 63.9062 65.3125C64.2318 62.9362 64.8665 60.0391 65.8105 56.6211C66.6569 54.0169 67.7799 49.3132 69.1797 42.5098C70.8073 34.2415 72.4512 26.6406 74.1113 19.707C74.1439 19.5768 74.2415 19.1048 74.4043 18.291C74.7624 16.7936 75.5924 16.0449 76.8945 16.0449C77.0573 16.0449 77.2201 16.0612 77.3828 16.0938C77.9362 16.1263 78.4245 16.5007 78.8477 17.2168C79.2708 17.9329 79.4499 18.6979 79.3848 19.5117C79.3848 19.9349 79.2546 20.6022 78.9941 21.5137C78.929 21.7415 78.8314 22.0996 78.7012 22.5879C78.571 23.0436 78.4733 23.3854 78.4082 23.6133C78.2454 24.2969 78.2454 24.7201 78.4082 24.8828C78.5059 24.9479 78.5872 24.9967 78.6523 25.0293C78.75 25.0293 78.8477 25.013 78.9453 24.9805C79.043 24.9154 79.1081 24.8665 79.1406 24.834C79.2057 24.7689 79.2871 24.6875 79.3848 24.5898C79.4824 24.4922 79.5475 24.4271 79.5801 24.3945C80.0358 24.069 80.3776 23.7435 80.6055 23.418C83.4701 20.1628 87.0671 17.6562 91.3965 15.8984C91.5592 15.8333 91.9499 15.6706 92.5684 15.4102C93.1868 15.1497 93.5775 14.987 93.7402 14.9219C93.9355 14.8568 94.3099 14.7103 94.8633 14.4824C95.4492 14.2546 95.8561 14.0918 96.084 13.9941C96.3444 13.8965 96.735 13.75 97.2559 13.5547C97.7767 13.3594 98.1836 13.2292 98.4766 13.1641C98.7695 13.0664 99.1439 12.9525 99.5996 12.8223C100.088 12.6595 100.495 12.5456 100.82 12.4805C101.178 12.3828 101.569 12.3014 101.992 12.2363C102.415 12.1387 102.822 12.0573 103.213 11.9922C104.092 11.862 104.906 11.7969 105.654 11.7969C106.175 11.7969 106.663 11.8294 107.119 11.8945C108.291 12.0898 109.121 12.7897 109.609 13.9941C109.74 14.1895 109.805 14.3848 109.805 14.5801C109.805 14.7428 109.772 14.8893 109.707 15.0195C109.577 15.4102 109.382 15.638 109.121 15.7031C108.145 15.9635 107.331 16.1263 106.68 16.1914C99.9089 16.9727 93.6426 19.4466 87.8809 23.6133C84.6582 25.8919 82.1029 28.8867 80.2148 32.5977C75.7227 41.2891 72.7441 49.7201 71.2793 57.8906C70.2702 63.9128 69.7168 68.0143 69.6191 70.1953C69.5215 71.5299 69.0169 72.36 68.1055 72.6855C67.7474 72.8158 67.4056 72.8809 67.0801 72.8809C66.4616 72.8809 65.9082 72.6204 65.4199 72.0996C64.3457 70.765 63.8086 69.3001 63.8086 67.7051Z" fill="#FBB03B"/>
<path d="M1.11328 73.2227C0.917969 72.6042 0.820312 72.0508 0.820312 71.5625C0.820312 71.0417 0.917969 70.5534 1.11328 70.0977C1.34115 69.7721 1.60156 69.6094 1.89453 69.6094C1.95964 69.5768 2.04102 69.5605 2.13867 69.5605C2.23633 69.5605 2.31771 69.5605 2.38281 69.5605C2.44792 69.528 2.51302 69.5117 2.57812 69.5117H2.67578C3.13151 69.6094 3.58724 69.6582 4.04297 69.6582C4.66146 69.6582 5.3125 69.5768 5.99609 69.4141C6.22396 69.3164 6.74479 69.1374 7.55859 68.877C8.33984 68.584 8.95833 68.3561 9.41406 68.1934C9.57682 68.1283 9.86979 68.0306 10.293 67.9004C10.7487 67.7702 11.1068 67.6237 11.3672 67.4609C11.6602 67.2982 11.8717 67.0703 12.002 66.7773C12.1647 66.224 12.2298 65.8496 12.1973 65.6543C12.1647 65.4264 12.0182 65.0684 11.7578 64.5801C11.5299 64.0918 11.3835 63.7337 11.3184 63.5059C10.9928 62.334 10.8789 61.4714 10.9766 60.918C11.1068 60.3646 11.5788 59.6973 12.3926 58.916C13.4342 57.8743 14.2969 56.6048 14.9805 55.1074C17.7148 49.6387 19.554 46.0091 20.498 44.2188C21.6374 42.1354 23.3301 39.0104 25.5762 34.8438C27.8548 30.6445 29.5638 27.5033 30.7031 25.4199C32.0378 23.0111 34.0397 19.3327 36.709 14.3848C37.4251 13.1152 38.4831 11.4225 39.8828 9.30664C40.1758 8.68815 40.3548 8.2487 40.4199 7.98828C40.485 7.82552 40.4525 7.67904 40.3223 7.54883C40.2246 7.38607 40.1107 7.30469 39.9805 7.30469C37.4089 7.76042 35.2767 8.26497 33.584 8.81836C26.2272 11.5853 20.5632 13.9779 16.5918 15.9961C15.7454 16.4518 14.248 17.0866 12.0996 17.9004C11.0905 18.1934 10.293 17.9004 9.70703 17.0215C9.34896 16.5658 9.16992 16.0286 9.16992 15.4102C9.16992 14.987 9.2513 14.515 9.41406 13.9941C9.90234 12.7572 10.5046 12.0247 11.2207 11.7969C13.0111 11.1784 15.6966 10.0065 19.2773 8.28125C22.8906 6.52344 25.6901 5.33529 27.6758 4.7168C33.6328 2.69857 38.2715 1.52669 41.5918 1.20117C42.9915 1.00586 43.7565 0.875651 43.8867 0.810547C44.9284 0.38737 46.0677 0.175781 47.3047 0.175781C48.2487 0.175781 49.2415 0.289714 50.2832 0.517578C50.6738 0.647786 51.6504 0.712891 53.2129 0.712891C57.054 0.810547 61.0905 1.83594 65.3223 3.78906C66.8522 4.40755 68.7728 5.80729 71.084 7.98828C73.6556 10.4297 74.9414 13.5384 74.9414 17.3145C74.9414 18.2585 74.86 19.2513 74.6973 20.293C74.2415 23.0273 72.972 25.957 70.8887 29.082C68.3822 32.7604 65.8919 35.625 63.418 37.6758C62.832 38.1315 62.002 38.8965 60.9277 39.9707C59.8535 41.0124 59.0397 41.7611 58.4863 42.2168C52.3665 47.5228 47.9069 51.2174 45.1074 53.3008C44.6842 53.6263 44.0169 54.1634 43.1055 54.9121C42.194 55.6283 41.4616 56.1979 40.9082 56.6211C40.3548 57.0117 39.6549 57.4674 38.8086 57.9883C37.9948 58.5091 37.1973 58.916 36.416 59.209C36.123 59.2741 35.7812 59.502 35.3906 59.8926C34.7721 60.5111 33.4049 61.4062 31.2891 62.5781C31.1263 62.6758 29.7917 63.457 27.2852 64.9219C27.1224 64.987 26.9271 65.1335 26.6992 65.3613C26.5039 65.5566 26.3737 65.6706 26.3086 65.7031C24.681 66.4518 21.9629 67.8841 18.1543 70C14.3457 72.1159 11.3672 73.6133 9.21875 74.4922C8.01432 75.013 6.43555 75.3874 4.48242 75.6152C4.31966 75.6478 4.1569 75.6641 3.99414 75.6641L2.82227 75.4199C2.07357 75.1921 1.50391 74.4596 1.11328 73.2227ZM16.8359 63.5059C16.901 63.6686 16.9824 63.8314 17.0801 63.9941C17.2103 64.1243 17.3568 64.1895 17.5195 64.1895C17.7148 64.1895 17.8776 64.1569 18.0078 64.0918C18.138 64.0267 18.3008 63.929 18.4961 63.7988C18.724 63.6361 18.8867 63.5384 18.9844 63.5059C22.5 61.6829 27.8711 58.444 35.0977 53.7891C42.6172 48.9714 49.8112 43.3724 56.6797 36.9922C56.875 36.7969 57.3796 36.3086 58.1934 35.5273C59.0072 34.7461 59.5443 34.2253 59.8047 33.9648C60.0977 33.6719 60.5859 33.1836 61.2695 32.5C61.9531 31.8164 62.474 31.263 62.832 30.8398C63.1901 30.4167 63.6296 29.8958 64.1504 29.2773C64.6712 28.6589 65.1432 28.0729 65.5664 27.5195C65.9896 26.9336 66.3965 26.3314 66.7871 25.7129C68.6751 22.7507 69.847 20.4069 70.3027 18.6816C70.4655 17.9329 70.5469 17.2168 70.5469 16.5332C70.5469 14.1895 69.6354 12.2526 67.8125 10.7227C66.1523 9.51823 64.9154 8.76953 64.1016 8.47656C60.1953 7.01172 56.4681 6.2793 52.9199 6.2793C52.7572 6.2793 52.3665 6.29557 51.748 6.32812C51.1621 6.36068 50.7064 6.37695 50.3809 6.37695C49.5671 6.37695 48.9323 6.6862 48.4766 7.30469C45.4818 10.7227 43.5612 13.0827 42.7148 14.3848C39.7852 18.8444 37.2786 23.0762 35.1953 27.0801C34.3164 28.7077 32.9492 31.1165 31.0938 34.3066C29.2708 37.4642 27.9362 39.8568 27.0898 41.4844C25.0716 45.2279 21.8815 51.901 17.5195 61.5039C17.487 61.569 17.4056 61.7318 17.2754 61.9922C17.1452 62.2201 17.0475 62.3991 16.9824 62.5293C16.9499 62.627 16.901 62.7734 16.8359 62.9688C16.8034 63.0664 16.7708 63.1803 16.7383 63.3105C16.7708 63.3757 16.8034 63.4408 16.8359 63.5059Z" fill="#FBB03B"/>
</svg>
