<svg width="215" height="79" viewBox="0 0 215 79" fill="none" xmlns="http://www.w3.org/2000/svg">
<path d="M166.955 61.623C166.955 61.4928 166.955 61.3789 166.955 61.2812C166.955 60.5651 167.215 59.9303 167.736 59.377C168.322 58.6934 169.055 58.4004 169.934 58.498C170.454 58.5306 170.975 58.5306 171.496 58.498C172.017 58.4655 172.57 58.4004 173.156 58.3027C173.742 58.1725 174.23 58.0586 174.621 57.9609C175.012 57.8633 175.565 57.7168 176.281 57.5215C176.965 57.2936 177.453 57.1471 177.746 57.082C178.625 56.8867 179.292 56.5449 179.748 56.0566C180.236 55.5358 180.594 54.7871 180.822 53.8105C182.613 46.6491 185.559 40.1061 189.66 34.1816C193.632 28.2897 198.059 23.6348 202.941 20.2168C204.927 18.8496 206.669 18.0846 208.166 17.9219C208.296 17.9219 208.426 17.9219 208.557 17.9219C210.087 17.9219 211.372 18.459 212.414 19.5332C213.553 20.7051 214.204 22.3001 214.367 24.3184C214.4 24.7741 214.416 25.2298 214.416 25.6855C214.416 28.1921 213.83 30.8288 212.658 33.5957C210.347 38.9342 206.913 43.7682 202.355 48.0977C197.44 52.6875 192.232 56.2845 186.73 58.8887C186.145 59.1816 185.786 59.3444 185.656 59.377C184.647 59.8978 184.143 60.7116 184.143 61.8184C184.143 61.916 184.143 62.0137 184.143 62.1113V65.6758C184.436 68.5404 185.803 70.1191 188.244 70.4121C188.602 70.4772 189.123 70.526 189.807 70.5586C190.523 70.5586 190.995 70.5749 191.223 70.6074C191.906 70.6074 192.378 70.6725 192.639 70.8027C192.736 70.8353 192.964 70.9329 193.322 71.0957C193.713 71.2259 193.99 71.3398 194.152 71.4375C194.315 71.5026 194.478 71.6491 194.641 71.877C194.836 72.0723 194.934 72.3164 194.934 72.6094C194.966 72.8698 194.934 73.0977 194.836 73.293C194.771 73.4883 194.624 73.6348 194.396 73.7324C194.201 73.8301 194.038 73.8952 193.908 73.9277C193.811 73.9928 193.599 74.0579 193.273 74.123C192.98 74.1882 192.801 74.2207 192.736 74.2207C192.443 74.2858 191.988 74.416 191.369 74.6113C190.751 74.8392 190.246 74.9857 189.855 75.0508C189.595 75.1159 189.367 75.1322 189.172 75.0996C189.074 75.0996 188.993 75.0996 188.928 75.0996C185.9 74.9043 183.508 73.9766 181.75 72.3164C180.253 70.9167 179.455 69.0775 179.357 66.7988C179.325 66.5059 179.292 66.0501 179.26 65.4316C179.227 64.7806 179.195 64.3086 179.162 64.0156C178.967 62.8763 178.397 62.4043 177.453 62.5996C175.044 63.1855 173.01 63.4785 171.35 63.4785C169.82 63.4785 168.811 63.3809 168.322 63.1855C167.476 62.8275 167.02 62.3066 166.955 61.623ZM186.242 51.2227C186.177 51.3529 186.145 51.4831 186.145 51.6133C186.145 51.8411 186.242 52.0853 186.438 52.3457C186.665 52.6061 186.893 52.7363 187.121 52.7363C187.219 52.7363 187.3 52.7201 187.365 52.6875C188.439 52.2969 189.432 51.8086 190.344 51.2227C195.129 48.3255 199.198 44.7773 202.551 40.5781C205.253 37.3555 207.222 33.8561 208.459 30.0801C208.915 28.6478 209.143 27.4922 209.143 26.6133C209.143 26.5156 209.143 26.418 209.143 26.3203C209.11 25.2135 208.866 24.4811 208.41 24.123C208.182 23.9603 207.938 23.8789 207.678 23.8789C207.32 23.8789 206.913 23.9928 206.457 24.2207C206.359 24.2533 206.213 24.3184 206.018 24.416C205.855 24.5137 205.725 24.5788 205.627 24.6113C202.665 27.0202 200.174 29.3151 198.156 31.4961C194.478 35.4674 191.206 40.2038 188.342 45.7051C187.691 47.0072 186.991 48.8464 186.242 51.2227Z" fill="#FBB03B"/>
<path d="M111.975 72.6094C112.04 72.5443 112.072 72.4466 112.072 72.3164C112.854 70.9167 113.537 69.3867 114.123 67.7266C114.676 66.0664 115.23 64.1458 115.783 61.9648C116.369 59.7839 116.825 58.1888 117.15 57.1797C120.178 47.5117 122.945 39.0156 125.451 31.6914C128.251 23.4883 129.992 18.5892 130.676 16.9941C131.001 16.0501 131.392 15.2526 131.848 14.6016C132.401 13.8854 132.987 13.5273 133.605 13.5273C133.931 13.5273 134.257 13.625 134.582 13.8203C134.973 14.0156 135.298 14.39 135.559 14.9434C135.852 15.4967 135.982 16.0501 135.949 16.6035C135.949 17.4824 135.721 18.3776 135.266 19.2891C133.41 23.2604 131.18 29.2012 128.576 37.1113C128.218 38.2832 127.111 41.3105 125.256 46.1934C124.833 47.3652 124.54 48.5046 124.377 49.6113C124.279 49.7741 124.344 50.0671 124.572 50.4902C124.963 50.7832 125.321 50.7181 125.646 50.2949C126.005 49.9368 126.281 49.6113 126.477 49.3184C129.797 43.8496 132.32 39.748 134.045 37.0137C135.998 33.9863 137.707 31.5449 139.172 29.6895C139.497 29.2663 140.458 27.9316 142.053 25.6855C143.68 23.4395 144.982 21.7793 145.959 20.7051C147.066 19.4355 148.27 18.8008 149.572 18.8008C150.614 18.7357 151.542 18.9961 152.355 19.582C153.169 20.168 153.739 21.0143 154.064 22.1211C154.553 23.8789 154.813 25.4577 154.846 26.8574C154.846 27.5085 154.781 28.127 154.65 28.7129C153.999 33.2376 152.974 37.9414 151.574 42.8242C151.314 43.9635 151.151 44.8913 151.086 45.6074C151.086 45.8353 151.184 45.998 151.379 46.0957C151.444 46.1283 151.525 46.1445 151.623 46.1445C151.721 46.1445 151.802 46.1283 151.867 46.0957C152.388 45.6725 152.86 45.2005 153.283 44.6797C155.985 41.457 158.719 38.2344 161.486 35.0117C163.96 32.1471 166.955 29.25 170.471 26.3203C170.633 26.1901 170.878 26.0111 171.203 25.7832C171.561 25.5228 171.822 25.3275 171.984 25.1973C172.896 24.6113 173.807 24.3184 174.719 24.3184C175.533 24.3184 176.33 24.5625 177.111 25.0508C178.771 26.0599 179.715 27.7363 179.943 30.0801C180.008 30.666 180.041 31.5449 180.041 32.7168C179.943 35.7116 179.52 38.446 178.771 40.9199C178.348 42.3197 176.672 47.7721 173.742 57.2773C172.863 60.6302 172.342 62.9089 172.18 64.1133C172.147 64.5039 172.082 64.8945 171.984 65.2852C171.887 65.6432 171.74 66.0339 171.545 66.457C171.35 66.8477 171.187 67.1406 171.057 67.3359C170.959 67.5312 170.747 67.873 170.422 68.3613C170.129 68.8496 169.95 69.1589 169.885 69.2891C169.462 69.9076 168.892 70.0378 168.176 69.6797C167.264 69.1589 166.76 68.8333 166.662 68.7031C165.783 68.1172 165.49 67.222 165.783 66.0176C166.076 64.6504 166.63 62.7786 167.443 60.4023C168.257 57.9935 168.762 56.431 168.957 55.7148C169.152 55.0312 169.543 53.7943 170.129 52.0039C170.715 50.2135 171.138 48.8626 171.398 47.9512C171.691 47.0397 172.049 45.8516 172.473 44.3867C172.896 42.9219 173.238 41.5547 173.498 40.2852C173.791 39.0156 174.051 37.7461 174.279 36.4766C174.54 35.1745 174.67 34.0514 174.67 33.1074C174.67 32.6842 174.637 32.2773 174.572 31.8867C174.507 31.4961 174.328 31.2031 174.035 31.0078C173.742 30.8125 173.449 30.8125 173.156 31.0078C172.212 31.6263 170.975 32.554 169.445 33.791C165.93 36.9811 161.91 41.6849 157.385 47.9023C155.985 49.8229 154.064 52.6549 151.623 56.3984C149.214 60.1419 147.424 62.8438 146.252 64.5039C146.057 64.7318 145.812 65.1224 145.52 65.6758C145.259 66.2292 145.113 66.5384 145.08 66.6035C144.82 67.2546 144.543 67.7266 144.25 68.0195C143.632 68.8333 142.997 69.2402 142.346 69.2402C141.955 69.2402 141.532 69.0938 141.076 68.8008C139.839 67.987 139.221 66.9128 139.221 65.5781C139.221 65.3177 139.237 65.0573 139.27 64.7969C139.562 63.6576 139.79 62.86 139.953 62.4043C142.98 54.0384 145.617 45.2656 147.863 36.0859C147.928 35.8255 148.042 35.3861 148.205 34.7676C148.368 34.1491 148.482 33.6771 148.547 33.3516C148.645 32.9935 148.742 32.554 148.84 32.0332C148.97 31.5124 149.051 31.0241 149.084 30.5684C149.149 30.1126 149.182 29.6569 149.182 29.2012C149.182 29.1035 149.182 28.9082 149.182 28.6152C149.214 28.2897 149.214 28.0456 149.182 27.8828C149.182 27.7201 149.165 27.5247 149.133 27.2969C149.1 27.069 149.019 26.89 148.889 26.7598C148.791 26.597 148.645 26.4831 148.449 26.418C148.286 26.2552 148.075 26.2552 147.814 26.418C147.587 26.5482 147.424 26.6621 147.326 26.7598C147.261 26.8249 147.131 27.0039 146.936 27.2969C146.74 27.5573 146.61 27.7201 146.545 27.7852C142.118 33.5143 138.326 38.9831 135.168 44.1914C134.549 45.2005 133.475 46.8607 131.945 49.1719C130.448 51.4831 129.292 53.2897 128.479 54.5918C127.6 56.0241 126.346 58.1237 124.719 60.8906C123.124 63.6576 122.212 65.2201 121.984 65.5781C121.301 67.0104 120.52 68.3776 119.641 69.6797C118.892 70.7539 118.062 72.4954 117.15 74.9043C117.118 74.9694 117.085 75.0833 117.053 75.2461C117.02 75.4089 116.988 75.5228 116.955 75.5879C116.564 76.5319 116.092 77.2643 115.539 77.7852C115.181 78.1107 114.855 78.2897 114.562 78.3223C114.432 78.3223 114.302 78.2734 114.172 78.1758C112.512 76.8411 111.682 75.474 111.682 74.0742C111.682 73.5859 111.779 73.0977 111.975 72.6094Z" fill="#FBB03B"/>
<path d="M52.7949 74.6113C52.7624 74.0579 52.7461 73.4883 52.7461 72.9023C52.7461 69.9727 53.2995 66.9128 54.4062 63.7227C56.7174 57.1146 59.6471 51.2389 63.1953 46.0957C65.5716 42.4824 67.8991 39.2109 70.1777 36.2812C70.6009 35.6953 71.0566 35.0931 71.5449 34.4746C72.0658 33.8561 72.668 33.1562 73.3516 32.375C74.0677 31.5938 74.5885 31.0078 74.9141 30.6172C75.3698 30.0964 76.0534 29.2988 76.9648 28.2246C77.8763 27.1504 78.6901 26.2064 79.4062 25.3926C80.1224 24.5788 80.8223 23.8464 81.5059 23.1953C86.9421 17.8893 91.776 13.9505 96.0078 11.3789C97.8307 10.3372 99.6211 9.63737 101.379 9.2793C102.03 9.14909 102.648 9.06771 103.234 9.03516C105.611 9.03516 107.336 10.2233 108.41 12.5996C108.54 12.86 108.671 13.1855 108.801 13.5762C109.322 14.2272 109.826 14.4388 110.314 14.2109C110.412 14.1784 110.624 14.0807 110.949 13.918C111.275 13.7552 111.551 13.6413 111.779 13.5762C112.691 13.3158 113.488 13.4622 114.172 14.0156C114.888 14.5365 115.295 15.3665 115.393 16.5059C115.425 16.7663 115.441 17.0592 115.441 17.3848C115.441 18.3613 115.295 19.6309 115.002 21.1934C114.188 24.3509 112.919 27.5247 111.193 30.7148C109.24 34.556 107.108 37.8438 104.797 40.5781C103.592 42.043 102.795 43.8171 102.404 45.9004C101.59 48.9277 101.053 53.0293 100.793 58.2051C100.793 58.5306 100.793 58.8398 100.793 59.1328C100.793 61.8346 101.167 64.4225 101.916 66.8965C102.893 69.9238 104.634 71.4375 107.141 71.4375C107.727 71.4375 108.345 71.3561 108.996 71.1934C110.754 70.8027 112.056 70.5749 112.902 70.5098C113.651 70.2819 114.351 70.3145 115.002 70.6074C115.327 70.9329 115.49 71.2096 115.49 71.4375C115.458 71.5026 115.441 71.584 115.441 71.6816C115.376 71.8444 115.327 71.9583 115.295 72.0234C112.268 74.3997 109.175 75.6855 106.018 75.8809C105.92 75.8809 105.806 75.8809 105.676 75.8809C102.486 75.8809 100.223 74.4486 98.8887 71.584C97.1634 68.3288 96.3008 64.9271 96.3008 61.3789V57.7168H96.1055L96.1543 55.0312C96.1868 53.2083 96.1706 52.2969 96.1055 52.2969C96.1055 51.7435 95.8939 51.4017 95.4707 51.2715C95.0475 51.1087 94.6569 51.2227 94.2988 51.6133C92.8991 53.013 90.7995 54.8197 88 57.0332C85.2005 59.2142 83.3613 60.6953 82.4824 61.4766C80.4316 63.2344 78.2018 64.9108 75.793 66.5059C74.7513 67.2546 73.0423 68.459 70.666 70.1191C68.3223 71.7793 66.5319 73.0651 65.2949 73.9766C63.6348 75.1484 61.0306 76.3203 57.4824 77.4922C57.222 77.5573 56.9128 77.5898 56.5547 77.5898C56.1966 77.5898 55.7734 77.5573 55.2852 77.4922C54.4714 77.3294 53.8854 77.0365 53.5273 76.6133C53.1367 76.1901 52.8926 75.5228 52.7949 74.6113ZM57.4824 69.9238C57.4499 70.1842 57.4336 70.4121 57.4336 70.6074C57.4336 71.1608 57.5638 71.5677 57.8242 71.8281C58.0195 71.9909 58.2962 72.0723 58.6543 72.0723C58.9798 72.0723 59.3542 72.0072 59.7773 71.877C60.819 71.4863 62.528 70.4609 64.9043 68.8008C68.3223 66.8151 71.8867 64.4551 75.5977 61.7207C78.6576 59.4421 80.9525 57.7656 82.4824 56.6914C83.5892 55.9427 84.7773 55.0801 86.0469 54.1035C87.3164 53.0944 88.3418 52.2643 89.123 51.6133C89.9368 50.9297 91.1087 49.9368 92.6387 48.6348C94.1686 47.3001 95.2266 46.3887 95.8125 45.9004C96.7565 45.054 97.2285 44.1263 97.2285 43.1172C97.2285 42.7917 97.1797 42.4499 97.082 42.0918C97.0495 41.8965 97.0495 41.6198 97.082 41.2617C97.1471 40.8711 97.1797 40.6107 97.1797 40.4805C97.2448 39.9596 97.3262 39.4388 97.4238 38.918C97.554 38.3646 97.7331 37.7949 97.9609 37.209C98.1888 36.623 98.3678 36.151 98.498 35.793C98.6608 35.4023 98.9049 34.849 99.2305 34.1328C99.556 33.3841 99.7839 32.8796 99.9141 32.6191C101.542 29.1686 102.632 26.1576 103.186 23.5859C103.251 23.1953 103.365 22.528 103.527 21.584C103.723 20.64 103.853 20.0052 103.918 19.6797C103.918 17.5964 103.609 16.2617 102.99 15.6758C102.697 15.3828 102.29 15.2201 101.77 15.1875C101.249 15.1875 100.598 15.3503 99.8164 15.6758C98.8724 16.0013 98.2702 16.2454 98.0098 16.4082C96.3496 17.4824 95.1452 18.3125 94.3965 18.8984C85.7376 25.3438 77.6322 33.5794 70.0801 43.6055C66.1087 48.7812 62.6745 54.8848 59.7773 61.916C58.8333 63.9342 58.0684 66.6035 57.4824 69.9238Z" fill="#FBB03B"/>
<path d="M1.08594 54.0059C1.96484 48.7324 3.9668 43.459 7.0918 38.1855C10.3145 32.847 13.179 28.8105 15.6855 26.0762C19.4941 21.9746 23.4004 18.1172 27.4043 14.5039C29.9108 12.1927 32.2383 10.1908 34.3867 8.49805C39.4648 4.6569 43.4688 2.08529 46.3984 0.783203C46.5286 0.750651 46.724 0.669271 46.9844 0.539062C47.2448 0.408854 47.4401 0.327474 47.5703 0.294922C48.026 0.132161 48.4655 0.0507812 48.8887 0.0507812C50.1908 0.0507812 51.2812 0.832031 52.1602 2.39453C52.5508 3.04557 52.6484 3.8431 52.4531 4.78711C52.2904 5.73112 51.8997 6.36589 51.2812 6.69141C51.1836 6.78906 50.8906 6.91927 50.4023 7.08203C48.7422 7.53776 46.9681 8.28646 45.0801 9.32812C43.2246 10.3372 41.776 11.1999 40.7344 11.916C39.7253 12.5996 38.1139 13.7552 35.9004 15.3828C34.7285 16.1966 33.4427 17.2057 32.043 18.4102C30.6432 19.582 29.6178 20.4772 28.9668 21.0957C28.3158 21.6816 27.0299 22.9023 25.1094 24.7578C23.2214 26.5807 22.1797 27.5898 21.9844 27.7852C16.6784 32.8633 12.2513 38.9668 8.70312 46.0957C7.53125 48.5371 6.61979 51.4993 5.96875 54.9824C5.87109 55.6009 5.82227 56.2682 5.82227 56.9844C5.82227 57.4401 5.83854 57.9121 5.87109 58.4004C5.96875 60.5814 6.84766 62.3066 8.50781 63.5762C10.8841 65.1712 13.7161 66.0827 17.0039 66.3105C17.2643 66.3105 17.541 66.3105 17.834 66.3105C21.8379 66.3105 26.3138 65.2363 31.2617 63.0879C33.0195 62.3392 34.5658 61.2487 35.9004 59.8164C42.4108 52.362 47.4727 45.9167 51.0859 40.4805C51.2812 40.2852 51.3789 40.0573 51.3789 39.7969C51.4115 39.6016 51.3789 39.4225 51.2812 39.2598C51.1836 39.097 51.0534 39.0482 50.8906 39.1133C49.3607 39.2435 48.2214 39.4388 47.4727 39.6992C46.2357 40.1549 44.0872 40.8223 41.0273 41.7012C37.9674 42.5801 35.6237 43.3451 33.9961 43.9961C32.6289 44.582 30.6595 45.5098 28.0879 46.7793C27.7298 46.9746 27.3555 47.0723 26.9648 47.0723L24.9629 46.1445C24.0514 45.2331 23.5957 44.1751 23.5957 42.9707C23.5957 42.8079 23.5957 42.6452 23.5957 42.4824C23.6934 41.2454 24.2305 40.4154 25.207 39.9922C27.5508 38.8529 28.7389 38.2832 28.7715 38.2832C35.5423 36.0046 43.6803 33.7096 53.1855 31.3984C53.8691 31.2031 54.8945 31.1706 56.2617 31.3008C57.7591 31.4961 58.7031 32.3913 59.0938 33.9863C59.2565 34.8652 59.3379 35.6628 59.3379 36.3789C59.3379 38.0716 58.9473 39.4388 58.166 40.4805C55.2363 44.9401 52.4043 48.8789 49.6699 52.2969C49.0189 53.0781 48.0423 54.25 46.7402 55.8125C45.4382 57.375 44.4779 58.5306 43.8594 59.2793C43.1432 60.1257 42.6875 60.8255 42.4922 61.3789C41.9714 62.974 40.8646 64.6178 39.1719 66.3105C38.1302 67.222 37.2025 67.6777 36.3887 67.6777C36.291 67.6777 36.1934 67.6777 36.0957 67.6777C35.9655 67.6452 35.819 67.6289 35.6562 67.6289C34.9076 67.6289 34.0124 67.8893 32.9707 68.4102C30.9525 69.5495 28.3646 70.5423 25.207 71.3887C25.1419 71.4212 25.028 71.4538 24.8652 71.4863C24.735 71.4863 24.6211 71.5026 24.5234 71.5352C24.4258 71.5677 24.3444 71.6165 24.2793 71.6816C23.6934 72.0723 23.1074 72.349 22.5215 72.5117C21.9355 72.6745 21.138 72.7884 20.1289 72.8535C19.1198 72.9186 18.4688 72.9674 18.1758 73C14.5299 73 11.3073 72.3001 8.50781 70.9004C6.26172 69.6634 4.42253 68.0033 2.99023 65.9199C1.46029 63.6738 0.695312 61.0208 0.695312 57.9609C0.695312 56.724 0.825521 55.4056 1.08594 54.0059Z" fill="#FBB03B"/>
</svg>
