<svg width="240" height="240" viewBox="0 0 240 240" fill="none" xmlns="http://www.w3.org/2000/svg">
<g clip-path="url(#clip0_3227_609)">
<path d="M121.769 183.533C123.772 189.025 124.553 194.304 123.908 198.132C121.924 209.906 105.467 213.874 86.5238 210.683C67.5803 207.491 53.3318 198.35 55.3152 186.577C55.8112 183.632 57.3815 180.16 59.7589 176.651" fill="white"/>
<path d="M86.1029 213.179C76.1949 211.51 67.4864 208.213 61.5776 203.893C54.7349 198.887 51.7063 192.758 52.8177 186.16C53.3715 182.873 55.0448 179.098 57.6618 175.237L61.8532 178.078C59.6731 181.295 58.2378 184.466 57.81 187.005C57.272 190.199 58.007 195.013 64.5644 199.81C69.8494 203.672 77.7948 206.649 86.9395 208.19C96.0841 209.73 104.57 209.522 110.825 207.603C118.592 205.219 120.864 200.912 121.402 197.718C121.971 194.342 121.234 189.487 119.379 184.405L124.137 182.671C126.311 188.64 127.115 194.283 126.395 198.559C125.283 205.157 120.413 209.96 112.309 212.443C105.314 214.589 96.0024 214.851 86.0945 213.182L86.1029 213.179Z" fill="#4D3A3B"/>
<path d="M113.471 215.146L113.486 220.456L117.021 225.741" fill="white"/>
<path d="M116.73 227.47C116.27 227.393 115.842 227.132 115.563 226.717L112.028 221.431C111.836 221.143 111.732 220.809 111.731 220.46L111.716 215.151C111.715 214.181 112.496 213.396 113.462 213.394C114.427 213.393 115.217 214.175 115.218 215.14L115.234 219.921L118.475 224.765C119.013 225.568 118.797 226.657 117.994 227.195C117.606 227.454 117.155 227.538 116.727 227.466L116.73 227.47Z" fill="#4D3A3B"/>
<path d="M107.338 222.664L113.486 220.456L122.389 221.575" fill="white"/>
<path d="M107.047 224.393C106.443 224.292 105.909 223.873 105.689 223.255C105.362 222.343 105.835 221.341 106.747 221.014L112.895 218.806C113.155 218.713 113.433 218.68 113.706 218.718L122.61 219.838C123.559 219.958 124.252 220.835 124.13 221.796C124.008 222.757 123.133 223.438 122.172 223.317L113.684 222.251L107.933 224.318C107.639 224.425 107.339 224.446 107.05 224.398L107.047 224.393Z" fill="#4D3A3B"/>
<path d="M79.4379 209.928L76.2006 218.042L71.7683 222.598" fill="white"/>
<path d="M71.4734 224.327C71.1345 224.27 70.8089 224.111 70.5438 223.854C69.8482 223.18 69.8352 222.068 70.5085 221.377L74.6988 217.068L77.8096 209.278C78.1696 208.377 79.1884 207.94 80.089 208.3C80.9896 208.66 81.4268 209.679 81.0675 210.575L77.8301 218.689C77.746 218.903 77.6171 219.098 77.4571 219.263L73.0241 223.823C72.6072 224.254 72.0225 224.42 71.4773 224.328L71.4734 224.327Z" fill="#4D3A3B"/>
<path d="M81.8475 221.324L76.2005 218.042L67.2391 217.53" fill="white"/>
<path d="M81.5564 223.054C81.3539 223.019 81.1534 222.95 80.9679 222.838L75.6821 219.765L67.1408 219.279C66.1728 219.224 65.4353 218.395 65.4896 217.431C65.5446 216.463 66.3737 215.726 67.3378 215.78L76.2992 216.292C76.5732 216.306 76.8438 216.388 77.0805 216.528L82.7269 219.814C83.5624 220.299 83.8462 221.373 83.3604 222.212C82.9826 222.861 82.2523 223.179 81.5551 223.061L81.5564 223.054Z" fill="#4D3A3B"/>
<path d="M58.649 193.151C58.649 193.151 57.9431 190.613 57.5983 190.258L55.8929 190.443L57.0361 193.191L58.649 193.151Z" fill="#4D3A3B"/>
<path d="M189.723 141.508C183.548 178.165 141.531 191.329 100.146 184.357C58.7619 177.385 27.9535 156.086 34.1295 119.426C40.3055 82.7654 81.1255 44.6359 122.51 51.6078C163.895 58.5796 195.899 104.848 189.723 141.508Z" fill="white"/>
<path d="M190.376 137.633C189.087 137.416 188.16 136.238 188.279 134.913C189.963 115.903 184.347 97.0821 172.456 81.9099C160.262 66.3502 142.771 56.5827 123.207 54.4084C117.381 53.7593 111.444 53.7924 105.553 54.5022C104.167 54.6692 102.904 53.6795 102.737 52.2936C102.57 50.9038 103.559 49.6446 104.949 49.4782C111.225 48.721 117.554 48.6899 123.766 49.3799C144.694 51.704 163.4 62.1528 176.442 78.7925C182.642 86.7059 187.267 95.6075 190.187 105.255C193.164 115.093 194.221 125.224 193.322 135.362C193.199 136.755 191.968 137.785 190.576 137.659C190.509 137.651 190.442 137.644 190.376 137.633Z" fill="#4D3A3B"/>
<path d="M39.4443 153.732C38.716 153.61 38.0454 153.168 37.6538 152.473C32.2548 142.845 30.2226 131.632 31.6132 119.146C34.6932 91.4485 55.0922 66.244 83.5805 54.9304C84.8807 54.4165 86.3522 55.0489 86.8661 56.349C87.38 57.6492 86.7476 59.1207 85.4475 59.6346C58.6764 70.2642 39.5205 93.8438 36.6456 119.706C35.3764 131.115 37.2038 141.307 42.072 149.998C42.7555 151.218 42.3198 152.759 41.0992 153.442C40.5773 153.735 39.9934 153.825 39.4404 153.732L39.4443 153.732Z" fill="#4D3A3B"/>
<path d="M196.957 84.6841C197.008 84.4524 197.055 84.2239 197.095 83.9863C198.38 76.3567 193.521 69.0858 186.133 67.2483C186.28 66.7045 186.406 66.1489 186.502 65.5803C188.043 56.4318 181.855 47.7314 172.702 46.1895C163.55 44.6476 154.853 50.8365 153.311 59.9889C151.77 69.1413 157.958 77.8378 167.111 79.3797C167.399 79.4282 167.689 79.469 167.976 79.5013C166.983 86.6036 171.268 93.3131 177.914 95.5181C177.582 96.4395 177.324 97.4013 177.156 98.3984C175.615 107.547 181.803 116.247 190.955 117.789C200.108 119.331 208.804 113.142 210.346 103.99C211.888 94.8373 205.882 86.4119 196.962 84.6808L196.957 84.6841Z" fill="#F7004C"/>
<path d="M196.957 84.6841C197.008 84.4524 197.055 84.2239 197.095 83.9863C198.38 76.3567 193.521 69.0858 186.133 67.2483C186.28 66.7045 186.406 66.1489 186.502 65.5803C188.043 56.4318 181.855 47.7314 172.702 46.1895C163.55 44.6476 154.853 50.8365 153.311 59.9889C151.77 69.1413 157.958 77.8378 167.111 79.3797C167.399 79.4282 167.689 79.469 167.976 79.5013C166.983 86.6036 171.268 93.3131 177.914 95.5181C177.582 96.4395 177.324 97.4013 177.156 98.3984C175.615 107.547 181.803 116.247 190.955 117.789C200.108 119.331 208.804 113.142 210.346 103.99C211.888 94.8373 205.882 86.4119 196.962 84.6808L196.957 84.6841Z" stroke="#4D3A3B" stroke-width="5" stroke-linecap="round" stroke-linejoin="round"/>
<path d="M122.005 19.8018C132.884 15.7751 144.609 16.1202 152.201 22.8823C164.618 33.9337 161.291 57.9409 148.549 72.2597C135.808 86.5785 118.475 85.7852 106.054 74.7332C93.6373 63.6818 90.8389 46.5569 103.58 32.2381C106.119 29.3895 109.08 26.8644 112.294 24.7344" fill="white"/>
<path d="M121.547 85.137C115.444 84.1089 109.497 81.1844 104.369 76.6238C97.6545 70.6463 93.569 62.945 92.8597 54.9353C92.0981 46.332 95.1523 37.903 101.689 30.5572C104.327 27.5893 107.428 24.9236 110.895 22.624C112.063 21.8514 113.631 22.1716 114.403 23.3391C115.176 24.5066 114.856 26.0748 113.688 26.8473C110.582 28.9034 107.819 31.2815 105.467 33.9214C99.8803 40.1974 97.2642 47.3105 97.9016 54.487C98.4956 61.2076 101.987 67.7275 107.734 72.8411C120.05 83.8033 135.691 82.8937 146.654 70.5743C152.563 63.9358 156.44 55.0167 157.285 46.1033C158.149 37.0048 155.745 29.4266 150.513 24.7723C144.139 19.1006 133.809 18.1293 122.878 22.1755C121.567 22.6595 120.11 21.9895 119.626 20.6783C119.142 19.3672 119.812 17.9101 121.123 17.426C133.839 12.7194 146.087 14.0498 153.882 20.9902C160.35 26.7459 163.348 35.8381 162.327 46.5841C161.378 56.5414 157.047 66.5136 150.436 73.943C143.9 81.2887 135.879 85.2965 127.247 85.5404C125.344 85.5923 123.436 85.4591 121.543 85.1402L121.547 85.137Z" fill="#4D3A3B"/>
<path d="M130.091 46.9226L130.321 58.5162L142.097 57.6083L141.149 68.1546L151.282 65.7803" fill="white"/>
<path d="M140.729 70.6509C140.277 70.5748 139.846 70.374 139.49 70.0656C138.874 69.5334 138.556 68.7388 138.629 67.926L139.311 60.3589L130.517 61.0364C129.823 61.0916 129.138 60.856 128.62 60.3883C128.102 59.9205 127.804 59.2616 127.79 58.5623L127.56 46.9687C127.532 45.57 128.643 44.4156 130.042 44.3869C131.441 44.3581 132.595 45.4698 132.624 46.8684L132.8 55.7817L141.906 55.0808C142.648 55.0256 143.38 55.297 143.903 55.8258C144.427 56.3546 144.692 57.0881 144.623 57.8295L143.987 64.8837L150.705 63.3079C152.065 62.9882 153.428 63.8347 153.748 65.1942C154.067 66.5538 153.221 67.9171 151.861 68.2368L141.733 70.6117C141.4 70.6878 141.061 70.6989 140.734 70.6437L140.729 70.6509Z" fill="#4D3A3B"/>
<path d="M107.804 123.117C110.04 121.636 112.464 120.918 114.855 121.321C122.087 122.54 126.264 133.529 124.659 143.055C123.054 152.581 116.275 157.039 109.043 155.82C101.811 154.602 96.8665 148.17 98.4714 138.643C99.0146 135.418 100.241 132.253 101.903 129.521" fill="#FFA200"/>
<path d="M108.691 157.932C99.7376 156.424 94.6664 148.344 96.3605 138.288C96.9365 134.869 98.221 131.452 100.076 128.409C100.69 127.399 102.01 127.076 103.02 127.691C104.03 128.306 104.352 129.626 103.734 130.635C102.161 133.218 101.073 136.11 100.586 139C99.2903 146.692 102.833 152.6 109.403 153.707C115.973 154.814 121.257 150.389 122.552 142.701C124.033 133.91 120.045 124.367 114.503 123.434C112.33 123.067 110.305 124.032 108.993 124.904C108.005 125.559 106.677 125.291 106.022 124.304C105.367 123.316 105.635 121.988 106.622 121.333C109.432 119.467 112.403 118.734 115.215 119.208C119.367 119.907 122.86 123.111 125.046 128.23C127.003 132.805 127.633 138.338 126.778 143.409C125.084 153.469 117.646 159.437 108.692 157.928L108.691 157.932Z" fill="#4D3A3B"/>
<path d="M136.449 142.871C140.429 143.541 144.198 140.859 144.868 136.88C145.539 132.9 142.856 129.131 138.877 128.461C134.898 127.79 131.128 130.473 130.458 134.452C129.788 138.431 132.47 142.2 136.449 142.871Z" fill="#4D3A3B"/>
<path d="M87.3768 134.604C91.3561 135.274 95.1254 132.592 95.7958 128.612C96.4661 124.633 93.7837 120.864 89.8045 120.194C85.8252 119.523 82.0559 122.206 81.3856 126.185C80.7152 130.164 83.3976 133.933 87.3768 134.604Z" fill="#4D3A3B"/>
<path d="M63.5737 154.457C56.8866 153.33 52.0847 148.36 52.7787 143.17C53.0116 141.431 53.8417 139.808 55.179 138.48C55.8665 137.798 56.9755 137.801 57.6573 138.485C58.3385 139.172 58.336 140.281 57.6524 140.963C56.8582 141.754 56.3865 142.652 56.2569 143.636C55.8069 146.996 59.6305 150.404 64.601 151.069C69.5754 151.735 74.1602 149.459 74.6102 146.099C74.8194 144.548 74.1379 142.935 72.6917 141.558C71.0977 140.036 68.8114 139.01 66.2615 138.668C64.7068 138.459 63.1335 138.526 61.707 138.862C60.7645 139.084 59.8214 138.501 59.5997 137.558C59.378 136.616 59.9614 135.673 60.9039 135.451C62.7682 135.012 64.7253 134.925 66.7267 135.194C70.0087 135.635 72.9841 136.993 75.1096 139.021C77.3867 141.195 78.4417 143.872 78.0805 146.563C77.3661 151.898 71.1077 155.477 64.132 154.543C63.9437 154.519 63.7568 154.487 63.5698 154.456L63.5737 154.457Z" fill="#4D3A3B"/>
<path d="M111.803 188.415C110.529 188.201 109.606 187.048 109.702 185.738C109.801 184.345 111.015 183.296 112.412 183.395C116.029 183.656 119.612 183.783 123.059 183.771C128.264 183.755 133.291 183.42 138.001 182.78C156.115 180.312 179.21 171.915 186.35 145.915C186.721 144.567 188.116 143.773 189.464 144.144C190.811 144.515 191.606 145.907 191.235 147.254C185.001 169.943 166.831 183.964 138.685 187.797C133.758 188.469 128.508 188.819 123.078 188.837C119.504 188.848 115.793 188.719 112.05 188.445C111.967 188.439 111.888 188.43 111.811 188.417L111.803 188.415Z" fill="#4D3A3B"/>
<path d="M95.7105 186.177C95.6755 186.171 95.6404 186.165 95.6054 186.159C74.781 181.746 54.0294 172.074 45.1499 162.636C44.192 161.617 44.2415 160.015 45.26 159.058C46.2785 158.1 47.8802 158.149 48.8381 159.168C56.9503 167.788 77.0611 177.055 96.6562 181.205C98.025 181.496 98.896 182.84 98.6098 184.206C98.3296 185.537 97.0464 186.402 95.7144 186.177L95.7105 186.177Z" fill="#4D3A3B"/>
<path d="M157.371 167.034C154.317 166.52 151.56 165.202 149.559 163.291C147.281 161.117 146.226 158.44 146.588 155.749C147.302 150.415 153.56 146.835 160.536 147.77C167.513 148.701 172.608 153.809 171.889 159.143C171.175 164.477 164.917 168.057 157.941 167.122C157.749 167.098 157.557 167.07 157.37 167.038L157.371 167.034ZM160.509 151.31C160.364 151.285 160.22 151.261 160.071 151.244C155.097 150.578 150.512 152.854 150.062 156.214C149.853 157.765 150.534 159.378 151.98 160.755C153.574 162.277 155.857 163.299 158.411 163.645C163.385 164.311 167.97 162.035 168.42 158.674C168.857 155.412 165.268 152.112 160.509 151.31Z" fill="#4D3A3B"/>
<path d="M120.904 183.58C113.139 184.17 104.818 188.676 105.18 193.423C105.541 198.174 114.447 201.369 122.212 200.778C129.978 200.188 133.665 196.035 133.304 191.288C132.942 186.537 128.674 182.99 120.908 183.581L120.904 183.58Z" fill="white"/>
<path d="M115.438 202.973C113.511 202.649 111.647 202.134 109.964 201.45C105.496 199.632 102.9 196.852 102.656 193.615C102.412 190.381 104.556 187.238 108.701 184.768C112.116 182.728 116.498 181.376 120.717 181.057C124.956 180.734 128.616 181.523 131.299 183.336C133.978 185.146 135.584 187.903 135.826 191.1C136.069 194.297 134.896 197.268 132.52 199.459C130.139 201.657 126.643 202.986 122.403 203.31C120.111 203.484 117.728 203.363 115.438 202.977L115.438 202.973ZM125.002 186.241C123.834 186.044 122.52 185.995 121.095 186.107C117.683 186.366 114.017 187.494 111.292 189.118C109.026 190.47 107.616 192.087 107.703 193.235C107.79 194.383 109.427 195.769 111.871 196.761C114.81 197.957 118.604 198.516 122.016 198.258C125.108 198.022 127.55 197.152 129.082 195.735C130.315 194.597 130.899 193.126 130.772 191.482C130.648 189.835 129.845 188.471 128.457 187.532C127.526 186.902 126.361 186.47 124.998 186.24L125.002 186.241Z" fill="#4D3A3B"/>
</g>
<defs>
<clipPath id="clip0_3227_609">
<rect width="240" height="240" fill="white"/>
</clipPath>
</defs>
</svg>
