<svg width="240" height="240" viewBox="0 0 240 240" fill="none" xmlns="http://www.w3.org/2000/svg">
<g clip-path="url(#clip0_3187_1355)">
<path d="M121.769 183.533C123.772 189.025 124.552 194.303 123.908 198.132C121.924 209.905 105.467 213.874 86.5236 210.682C67.58 207.491 53.3316 198.35 55.315 186.576C55.811 183.632 57.3812 180.16 59.7586 176.651" fill="white"/>
<path d="M86.1028 213.179C76.1948 211.51 67.4863 208.213 61.5775 203.893C54.7348 198.887 51.7062 192.758 52.8176 186.16C53.3714 182.873 55.0447 179.098 57.6617 175.237L61.8531 178.078C59.673 181.295 58.2377 184.466 57.8099 187.005C57.2719 190.199 58.0069 195.013 64.5642 199.81C69.8493 203.672 77.7947 206.649 86.9394 208.19C96.084 209.73 104.57 209.522 110.825 207.603C118.592 205.219 120.864 200.912 121.402 197.718C121.971 194.342 121.234 189.487 119.379 184.405L124.137 182.671C126.311 188.64 127.115 194.283 126.395 198.559C125.283 205.157 120.413 209.96 112.308 212.443C105.314 214.589 96.0023 214.851 86.0943 213.182L86.1028 213.179Z" fill="#4D3A3B"/>
<path d="M113.472 215.146L113.486 220.456L117.022 225.741" fill="white"/>
<path d="M116.73 227.47C116.271 227.393 115.842 227.132 115.563 226.717L112.028 221.431C111.836 221.143 111.732 220.809 111.731 220.46L111.716 215.151C111.715 214.181 112.497 213.396 113.462 213.394C114.428 213.393 115.217 214.175 115.219 215.14L115.234 219.921L118.476 224.765C119.013 225.568 118.798 226.657 117.994 227.195C117.606 227.454 117.155 227.538 116.727 227.466L116.73 227.47Z" fill="#4D3A3B"/>
<path d="M107.338 222.664L113.486 220.456L122.389 221.575" fill="white"/>
<path d="M107.047 224.393C106.443 224.292 105.909 223.873 105.689 223.255C105.362 222.343 105.835 221.342 106.747 221.015L112.895 218.806C113.154 218.714 113.432 218.68 113.706 218.719L122.61 219.838C123.559 219.958 124.252 220.836 124.13 221.796C124.008 222.757 123.132 223.439 122.172 223.317L113.684 222.251L107.933 224.318C107.638 224.425 107.338 224.447 107.05 224.398L107.047 224.393Z" fill="#4D3A3B"/>
<path d="M79.4381 209.928L76.2007 218.042L71.7685 222.598" fill="white"/>
<path d="M71.4735 224.327C71.1347 224.27 70.809 224.111 70.5439 223.854C69.8484 223.18 69.8354 222.068 70.5086 221.377L74.6989 217.068L77.8097 209.278C78.1697 208.377 79.1886 207.94 80.0892 208.3C80.9898 208.66 81.4269 209.679 81.0676 210.575L77.8303 218.689C77.7461 218.903 77.6172 219.098 77.4572 219.263L73.0243 223.823C72.6073 224.254 72.0226 224.42 71.4774 224.328L71.4735 224.327Z" fill="#4D3A3B"/>
<path d="M81.8474 221.325L76.2004 218.042L67.239 217.53" fill="white"/>
<path d="M81.5566 223.054C81.354 223.019 81.1535 222.95 80.968 222.838L75.6823 219.765L67.1409 219.279C66.1729 219.224 65.4355 218.395 65.4897 217.431C65.5447 216.463 66.3738 215.726 67.3379 215.78L76.2993 216.292C76.5733 216.306 76.8439 216.388 77.0807 216.528L82.7271 219.814C83.5625 220.299 83.8463 221.373 83.3605 222.212C82.9828 222.861 82.2524 223.179 81.5552 223.061L81.5566 223.054Z" fill="#4D3A3B"/>
<path d="M58.6489 193.151C58.6489 193.151 57.943 190.613 57.5982 190.258L55.8928 190.443L57.0359 193.191L58.6489 193.151V193.151Z" fill="#4D3A3B"/>
<path d="M189.723 141.509C183.548 178.165 141.531 191.329 100.146 184.357C58.7619 177.385 27.9535 156.086 34.1295 119.426C40.3055 82.7656 81.1255 44.6362 122.51 51.608C163.895 58.5799 195.899 104.848 189.723 141.509Z" fill="white"/>
<path d="M190.376 137.633C189.087 137.416 188.16 136.239 188.279 134.913C189.963 115.904 184.347 97.0824 172.456 81.9102C160.262 66.3505 142.771 56.583 123.207 54.4087C117.381 53.7596 111.444 53.7927 105.553 54.5024C104.167 54.6695 102.904 53.6797 102.737 52.2938C102.57 50.904 103.559 49.6448 104.949 49.4784C111.225 48.7213 117.554 48.6901 123.766 49.3802C144.694 51.7043 163.4 62.153 176.442 78.7927C182.642 86.7062 187.267 95.6077 190.187 105.256C193.164 115.093 194.221 125.224 193.322 135.362C193.199 136.755 191.968 137.785 190.576 137.659C190.509 137.652 190.442 137.644 190.376 137.633V137.633Z" fill="#4D3A3B"/>
<path d="M39.4445 153.732C38.7162 153.609 38.0456 153.168 37.654 152.473C32.255 142.844 30.2229 131.632 31.6134 119.146C34.6935 91.4482 55.0924 66.2437 83.5808 54.9302C84.8809 54.4162 86.3524 55.0486 86.8663 56.3488C87.3802 57.6489 86.7478 59.1204 85.4477 59.6344C58.6767 70.264 39.5207 93.8435 36.6458 119.705C35.3766 131.114 37.2041 141.307 42.0723 149.997C42.7558 151.218 42.32 152.759 41.0994 153.442C40.5775 153.735 39.9937 153.825 39.4406 153.731L39.4445 153.732Z" fill="#4D3A3B"/>
<path d="M196.957 84.6843C197.008 84.4526 197.054 84.2241 197.094 83.9866C198.38 76.357 193.521 69.086 186.132 67.2486C186.28 66.7047 186.406 66.1491 186.501 65.5805C188.043 56.432 181.854 47.7316 172.702 46.1897C163.55 44.6479 154.853 50.8367 153.311 59.9891C151.769 69.1416 157.958 77.8381 167.111 79.3799C167.399 79.4285 167.688 79.4692 167.975 79.5016C166.983 86.6038 171.268 93.3134 177.913 95.5183C177.582 96.4398 177.324 97.4016 177.156 98.3986C175.615 107.547 181.803 116.248 190.955 117.789C200.108 119.331 208.804 113.142 210.346 103.99C211.888 94.8376 205.882 86.4121 196.961 84.6811L196.957 84.6843Z" fill="#F7004C"/>
<path d="M196.957 84.6843C197.008 84.4526 197.054 84.2241 197.094 83.9866C198.38 76.357 193.521 69.086 186.132 67.2486C186.28 66.7047 186.406 66.1491 186.501 65.5805C188.043 56.432 181.854 47.7316 172.702 46.1897C163.55 44.6479 154.853 50.8367 153.311 59.9891C151.769 69.1416 157.958 77.8381 167.111 79.3799C167.399 79.4285 167.688 79.4692 167.975 79.5016C166.983 86.6038 171.268 93.3134 177.913 95.5183C177.582 96.4398 177.324 97.4016 177.156 98.3986C175.615 107.547 181.803 116.248 190.955 117.789C200.108 119.331 208.804 113.142 210.346 103.99C211.888 94.8376 205.882 86.4121 196.961 84.6811L196.957 84.6843Z" stroke="#4D3A3B" stroke-width="5" stroke-linecap="round" stroke-linejoin="round"/>
<path d="M122.005 19.8013C132.884 15.7746 144.609 16.1197 152.202 22.8818C164.618 33.9332 161.291 57.9404 148.549 72.2592C135.808 86.578 118.475 85.7847 106.054 74.7327C93.6374 63.6813 90.839 46.5564 103.581 32.2376C106.119 29.389 109.08 26.8639 112.294 24.734" fill="white"/>
<path d="M121.548 85.1367C115.445 84.1086 109.497 81.1842 104.37 76.6236C97.6548 70.6461 93.5692 62.9447 92.8599 54.9351C92.0984 46.3318 95.1525 37.9028 101.689 30.557C104.328 27.5891 107.428 24.9233 110.896 22.6237C112.063 21.8511 113.631 22.1714 114.404 23.3389C115.176 24.5064 114.856 26.0745 113.689 26.8471C110.583 28.9032 107.819 31.2813 105.468 33.9211C99.8806 40.1972 97.2644 47.3102 97.9018 54.4868C98.4959 61.2074 101.987 67.7273 107.735 72.8408C120.05 83.8031 135.691 82.8935 146.654 70.574C152.563 63.9355 156.44 55.0164 157.285 46.103C158.149 37.0046 155.745 29.4263 150.513 24.7721C144.139 19.1003 133.809 18.1291 122.878 22.1752C121.567 22.6593 120.11 21.9892 119.626 20.6781C119.142 19.367 119.812 17.9098 121.123 17.4258C133.84 12.7192 146.088 14.0496 153.882 20.99C160.35 26.7456 163.348 35.8378 162.327 46.5839C161.378 56.5412 157.047 66.5133 150.436 73.9427C143.9 81.2885 135.879 85.2962 127.247 85.5402C125.344 85.592 123.436 85.4588 121.543 85.14L121.548 85.1367Z" fill="#4D3A3B"/>
<path d="M114.426 45.1953L114.656 56.789L126.432 55.8811L125.484 66.4273L135.617 64.053" fill="white"/>
<path d="M125.064 68.9238C124.612 68.8477 124.181 68.647 123.825 68.3386C123.21 67.8064 122.891 67.0117 122.964 66.1989L123.646 58.6319L114.852 59.3093C114.158 59.3646 113.473 59.129 112.955 58.6612C112.437 58.1935 112.139 57.5346 112.125 56.8353L111.895 45.2416C111.867 43.843 112.978 42.6885 114.377 42.6598C115.776 42.6311 116.93 43.7428 116.959 45.1414L117.135 54.0546L126.241 53.3537C126.983 53.2985 127.715 53.5699 128.238 54.0987C128.762 54.6275 129.027 55.361 128.958 56.1024L128.322 63.1566L135.04 61.5808C136.4 61.2611 137.763 62.1076 138.083 63.4672C138.403 64.8267 137.556 66.19 136.196 66.5097L126.068 68.8847C125.735 68.9607 125.396 68.9718 125.069 68.9167L125.064 68.9238Z" fill="#4D3A3B"/>
<path d="M107.804 123.118C110.04 121.636 112.464 120.919 114.855 121.322C122.087 122.54 126.264 133.529 124.659 143.055C123.054 152.582 116.276 157.039 109.043 155.82C101.811 154.602 96.8666 148.17 98.4715 138.643C99.0147 135.419 100.241 132.253 101.903 129.521" fill="#FFA200"/>
<path d="M108.691 157.933C99.7374 156.424 94.6662 148.345 96.3603 138.289C96.9364 134.869 98.2208 131.453 100.075 128.409C100.69 127.399 102.01 127.077 103.02 127.691C104.03 128.306 104.352 129.626 103.734 130.635C102.161 133.218 101.073 136.111 100.586 139C99.2902 146.692 102.833 152.6 109.403 153.707C115.973 154.814 121.257 150.389 122.552 142.701C124.033 133.911 120.045 124.367 114.503 123.434C112.33 123.068 110.305 124.032 108.992 124.905C108.005 125.559 106.676 125.291 106.022 124.304C105.367 123.317 105.635 121.988 106.622 121.333C109.432 119.467 112.403 118.734 115.215 119.208C119.367 119.908 122.86 123.111 125.046 128.23C127.003 132.805 127.632 138.338 126.778 143.409C125.083 153.469 117.646 159.437 108.692 157.929L108.691 157.933Z" fill="#4D3A3B"/>
<path d="M136.449 142.871C140.429 143.541 144.198 140.859 144.868 136.879C145.539 132.9 142.856 129.131 138.877 128.46C134.898 127.79 131.128 130.472 130.458 134.452C129.788 138.431 132.47 142.2 136.449 142.871Z" fill="#4D3A3B"/>
<path d="M87.3766 134.603C91.3559 135.274 95.1251 132.591 95.7955 128.612C96.4659 124.633 93.7835 120.864 89.8042 120.193C85.825 119.523 82.0557 122.205 81.3853 126.185C80.7149 130.164 83.3973 133.933 87.3766 134.603Z" fill="#4D3A3B"/>
<path d="M63.5735 154.457C56.8864 153.33 52.0844 148.36 52.7785 143.17C53.0114 141.431 53.8414 139.808 55.1787 138.48C55.8662 137.798 56.9752 137.801 57.6571 138.485C58.3383 139.172 58.3357 140.281 57.6521 140.963C56.8579 141.754 56.3863 142.652 56.2566 143.636C55.8066 146.996 59.6302 150.404 64.6008 151.069C69.5752 151.735 74.16 149.459 74.61 146.099C74.8192 144.548 74.1376 142.935 72.6914 141.558C71.0975 140.036 68.8111 139.01 66.2613 138.668C64.7066 138.459 63.1332 138.526 61.7068 138.862C60.7642 139.084 59.8212 138.501 59.5995 137.558C59.3778 136.616 59.9612 135.673 60.9037 135.451C62.768 135.012 64.7251 134.925 66.7264 135.194C70.0085 135.635 72.9838 136.993 75.1093 139.021C77.3865 141.195 78.4415 143.872 78.0803 146.563C77.3658 151.898 71.1075 155.477 64.1317 154.543C63.9435 154.519 63.7565 154.487 63.5696 154.456L63.5735 154.457Z" fill="#4D3A3B"/>
<path d="M111.803 188.415C110.529 188.201 109.606 187.048 109.702 185.738C109.801 184.345 111.015 183.296 112.412 183.395C116.029 183.656 119.612 183.783 123.059 183.771C128.264 183.755 133.291 183.42 138.001 182.78C156.115 180.312 179.21 171.915 186.35 145.915C186.721 144.567 188.116 143.773 189.464 144.144C190.811 144.515 191.606 145.907 191.235 147.254C185.001 169.943 166.831 183.964 138.686 187.797C133.758 188.469 128.509 188.819 123.078 188.837C119.504 188.848 115.793 188.719 112.05 188.445C111.967 188.439 111.889 188.43 111.811 188.417L111.803 188.415Z" fill="#4D3A3B"/>
<path d="M95.7108 186.177C95.6757 186.171 95.6407 186.165 95.6056 186.159C74.7812 181.746 54.0296 172.074 45.1501 162.636C44.1922 161.617 44.2418 160.015 45.2602 159.058C46.2787 158.1 47.8805 158.149 48.8383 159.168C56.9505 167.788 77.0613 177.055 96.6564 181.205C98.0253 181.496 98.8962 182.84 98.6101 184.206C98.3299 185.537 97.0466 186.402 95.7147 186.177L95.7108 186.177Z" fill="#4D3A3B"/>
<path d="M157.371 167.034C154.318 166.52 151.56 165.202 149.559 163.291C147.282 161.117 146.227 158.44 146.588 155.75C147.302 150.415 153.561 146.835 160.536 147.77C167.513 148.701 172.608 153.809 171.89 159.143C171.175 164.478 164.917 168.057 157.941 167.122C157.749 167.098 157.557 167.07 157.37 167.038L157.371 167.034ZM160.509 151.31C160.365 151.286 160.221 151.261 160.071 151.244C155.097 150.579 150.512 152.854 150.062 156.215C149.853 157.766 150.534 159.378 151.981 160.755C153.575 162.278 155.858 163.299 158.411 163.645C163.385 164.311 167.97 162.035 168.42 158.675C168.857 155.412 165.268 152.112 160.509 151.31V151.31Z" fill="#4D3A3B"/>
<path d="M120.904 183.58C113.139 184.17 104.818 188.676 105.18 193.423C105.541 198.174 114.447 201.369 122.213 200.778C129.978 200.188 133.665 196.035 133.304 191.288C132.943 186.537 128.674 182.99 120.908 183.581L120.904 183.58Z" fill="white"/>
<path d="M115.438 202.973C113.511 202.649 111.647 202.134 109.964 201.45C105.496 199.632 102.9 196.852 102.656 193.615C102.412 190.381 104.556 187.238 108.701 184.768C112.116 182.728 116.498 181.376 120.717 181.057C124.956 180.734 128.616 181.523 131.299 183.336C133.978 185.146 135.584 187.903 135.826 191.1C136.069 194.297 134.896 197.268 132.52 199.459C130.139 201.657 126.643 202.986 122.403 203.31C120.111 203.484 117.728 203.363 115.438 202.977L115.438 202.973ZM125.002 186.241C123.834 186.044 122.52 185.995 121.095 186.107C117.684 186.366 114.017 187.494 111.292 189.118C109.026 190.47 107.616 192.087 107.703 193.235C107.79 194.383 109.427 195.769 111.871 196.761C114.81 197.957 118.604 198.516 122.016 198.258C125.108 198.022 127.55 197.152 129.082 195.735C130.315 194.597 130.899 193.126 130.772 191.482C130.648 189.835 129.845 188.471 128.457 187.532C127.526 186.902 126.361 186.47 124.998 186.24L125.002 186.241Z" fill="#4D3A3B"/>
</g>
<defs>
<clipPath id="clip0_3187_1355">
<rect width="240" height="240" fill="white"/>
</clipPath>
</defs>
</svg>
