<svg width="220" height="220" viewBox="0 0 220 220" fill="none" xmlns="http://www.w3.org/2000/svg">
<path d="M185.52 133.736C185.52 173.186 143.869 194.37 99.3299 194.37C54.7911 194.37 18.7946 177.512 18.7946 138.057C18.7946 98.6025 54.7911 51.5027 99.3299 51.5027C143.869 51.5027 185.52 94.2811 185.52 133.736Z" fill="white"/>
<path d="M185.52 129.565C184.132 129.565 182.954 128.496 182.845 127.088C181.257 106.898 172.061 88.191 156.942 74.4094C141.438 60.2757 121.411 53.1375 100.554 54.3112C94.342 54.6591 88.1344 55.7405 82.0945 57.5218C80.6735 57.941 79.1772 57.1278 78.758 55.7069C78.3389 54.2818 79.152 52.7896 80.5771 52.3705C87.0111 50.4718 93.6295 49.3233 100.252 48.9502C122.563 47.6928 143.982 55.3297 160.563 70.4442C168.448 77.6326 174.856 86.133 179.614 95.7147C184.463 105.485 187.355 115.901 188.202 126.669C188.32 128.149 187.213 129.444 185.733 129.557C185.662 129.561 185.591 129.565 185.52 129.565V129.565Z" fill="#4D3A3B"/>
<path d="M30.405 173.023C29.6212 173.023 28.8416 172.679 28.3092 172.021C20.9657 162.896 16.8581 151.516 16.112 138.208C14.4522 108.675 31.3565 78.7015 59.1796 61.8433C60.4496 61.0763 62.1011 61.4786 62.8681 62.7487C63.6352 64.0187 63.2328 65.6701 61.9628 66.4372C35.8162 82.2768 19.9263 110.331 21.4771 137.902C22.1603 150.066 25.8698 160.411 32.4966 168.647C33.4271 169.804 33.2426 171.493 32.0858 172.423C31.5912 172.822 30.996 173.019 30.4008 173.019L30.405 173.023Z" fill="#4D3A3B"/>
<path d="M183.072 72.9925C183.084 72.741 183.093 72.4938 183.093 72.2381C183.093 64.0269 176.726 57.2744 168.67 56.6541C168.729 56.0589 168.762 55.4553 168.762 54.8434C168.762 44.9975 160.752 36.9834 150.902 36.9834C141.052 36.9834 133.042 44.9933 133.042 54.8434C133.042 64.6934 141.052 72.7033 150.902 72.7033C151.212 72.7033 151.522 72.6949 151.828 72.6782C152.042 80.2857 157.709 86.552 165.053 87.6879C164.868 88.7106 164.768 89.7627 164.768 90.8357C164.768 100.682 172.777 108.696 182.628 108.696C192.478 108.696 200.487 100.686 200.487 90.8357C200.487 80.9857 192.716 73.2273 183.076 72.9883L183.072 72.9925Z" fill="#F7004C"/>
<path fill-rule="evenodd" clip-rule="evenodd" d="M130.318 54.8435C130.318 43.4888 139.547 34.259 150.902 34.259C162.085 34.259 171.205 43.2147 171.48 54.3272C179.123 56.0414 184.98 62.5307 185.735 70.4899C195.605 71.9709 203.212 80.385 203.212 90.8358C203.212 102.191 193.982 111.42 182.628 111.42C171.273 111.42 162.043 102.186 162.043 90.8358C162.043 90.4853 162.052 90.137 162.071 89.7914C155.536 87.7843 150.549 82.2241 149.366 75.3712C138.727 74.5834 130.318 65.6814 130.318 54.8435ZM183.147 75.7161C182.749 75.7272 182.346 75.6512 181.966 75.4825C180.936 75.0252 180.295 73.9816 180.351 72.8566C180.362 72.6335 180.368 72.4342 180.368 72.2382C180.368 65.4633 175.11 59.8827 168.461 59.3706C167.73 59.3144 167.053 58.9662 166.582 58.4048C166.112 57.8434 165.887 57.116 165.959 56.3869C166.01 55.8697 166.038 55.3559 166.038 54.8435C166.038 46.5019 159.247 39.708 150.902 39.708C142.557 39.708 135.767 46.4981 135.767 54.8435C135.767 63.1888 142.557 69.979 150.902 69.979C151.164 69.979 151.424 69.9719 151.679 69.9579C152.414 69.9177 153.133 70.1758 153.674 70.6737C154.215 71.1715 154.531 71.8669 154.552 72.6018C154.728 78.8789 159.409 84.0582 165.469 84.9956C166.195 85.1078 166.845 85.5083 167.271 86.1062C167.697 86.7041 167.864 87.4488 167.734 88.1715C167.577 89.0433 167.492 89.9334 167.492 90.8358C167.492 99.1774 174.283 105.971 182.628 105.971C190.973 105.971 197.763 99.1812 197.763 90.8358C197.763 82.5319 191.266 75.9892 183.147 75.7161Z" fill="#4D3A3B"/>
<path d="M93.1937 18.3064C103.869 12.1742 116.201 10.4683 125.338 16.2064C140.281 25.5828 141.031 51.2934 130.221 68.5247C119.412 85.7559 101.132 87.9816 86.1856 78.6052C71.2429 69.2288 65.2952 51.8006 76.105 34.5694C78.2594 31.1407 80.9127 27.9761 83.9012 25.1804" fill="white"/>
<path d="M104.234 86.7616C97.6659 86.7616 90.926 84.7497 84.7561 80.881C76.6749 75.8093 71.0415 68.47 68.8871 60.2127C66.5734 51.3435 68.2835 41.9839 73.8289 33.144C76.0671 29.5729 78.8419 26.2365 82.0651 23.2186C83.1507 22.2042 84.8483 22.2629 85.8626 23.3485C86.877 24.4341 86.8183 26.1317 85.7327 27.146C82.8448 29.8453 80.3718 32.8213 78.3766 35.9984C73.636 43.5515 72.1523 51.4567 74.0845 58.8547C75.8911 65.7832 80.6945 71.9908 87.6105 76.329C102.432 85.6299 118.64 81.9205 127.941 67.0951C132.954 59.1062 135.44 49.0885 134.752 39.6115C134.052 29.9375 130.2 22.4306 123.905 18.4822C116.234 13.6704 105.252 14.4751 94.5265 20.6366C93.2397 21.3743 91.5966 20.93 90.8589 19.6432C90.1212 18.3564 90.5655 16.7134 91.8523 15.9757C104.33 8.80822 117.383 8.04117 126.763 13.9302C134.547 18.8133 139.287 27.7999 140.113 39.2259C140.876 49.8136 138.101 61.0133 132.493 69.9537C126.948 78.7936 119.26 84.4018 110.27 86.179C108.287 86.5688 106.267 86.7658 104.23 86.7658L104.234 86.7616Z" fill="#4D3A3B"/>
<path d="M106.506 46.2173L108.79 58.3097L120.954 55.2835L121.822 66.4874L132.007 62.2162" fill="white"/>
<path d="M121.822 69.1741C121.335 69.1741 120.849 69.0399 120.422 68.7801C119.684 68.3316 119.21 67.5561 119.143 66.6927L118.523 58.6534L109.44 60.9126C108.723 61.0929 107.964 60.9671 107.34 60.5689C106.715 60.1707 106.288 59.5336 106.15 58.8043L103.865 46.7118C103.588 45.2532 104.548 43.849 106.007 43.5724C107.466 43.2958 108.87 44.2556 109.146 45.7143L110.903 55.011L120.308 52.6721C121.075 52.4835 121.889 52.6386 122.53 53.0997C123.171 53.5607 123.578 54.2817 123.636 55.0697L124.215 62.5641L130.967 59.7306C132.334 59.1564 133.91 59.8019 134.484 61.1683C135.058 62.5347 134.413 64.1107 133.046 64.685L122.865 68.9561C122.53 69.0944 122.178 69.1657 121.826 69.1657L121.822 69.1741Z" fill="#4D3A3B"/>
<path d="M96.5467 128.932C98.6257 126.988 101.036 125.81 103.609 125.81C111.393 125.81 117.701 136.574 117.701 146.826C117.701 157.078 111.393 162.938 103.609 162.938C95.8258 162.938 89.5176 157.078 89.5176 146.826C89.5176 143.355 90.2427 139.826 91.5002 136.674" fill="#FFA200"/>
<path d="M103.614 165.21C93.9775 165.21 87.246 157.648 87.246 146.826C87.246 143.146 87.9879 139.344 89.392 135.832C89.8573 134.666 91.1818 134.096 92.347 134.562C93.5123 135.027 94.0823 136.351 93.6129 137.517C92.4225 140.497 91.7937 143.716 91.7937 146.826C91.7937 155.104 96.5427 160.662 103.614 160.662C110.685 160.662 115.434 155.1 115.434 146.826C115.434 137.366 109.578 128.081 103.614 128.081C101.275 128.081 99.3259 129.448 98.1061 130.592C97.1882 131.451 95.7505 131.405 94.8913 130.487C94.032 129.569 94.0781 128.132 94.996 127.273C97.6074 124.825 100.588 123.534 103.614 123.534C108.082 123.534 112.303 126.271 115.492 131.242C118.347 135.685 119.982 141.364 119.982 146.822C119.982 157.648 113.25 165.206 103.614 165.206V165.21Z" fill="#4D3A3B"/>
<path d="M129.857 144.373C134.109 144.373 137.556 140.926 137.556 136.674C137.556 132.421 134.109 128.974 129.857 128.974C125.604 128.974 122.157 132.421 122.157 136.674C122.157 140.926 125.604 144.373 129.857 144.373Z" fill="#4D3A3B"/>
<path d="M77.2701 144.373C81.5226 144.373 84.9699 140.926 84.9699 136.674C84.9699 132.421 81.5226 128.974 77.2701 128.974C73.0176 128.974 69.5703 132.421 69.5703 136.674C69.5703 140.926 73.0176 144.373 77.2701 144.373Z" fill="#4D3A3B"/>
<path d="M55.7844 169.527C48.5876 169.527 42.686 165.172 42.4974 159.618C42.4345 157.757 43.0171 155.913 44.1824 154.287C44.7818 153.453 45.9428 153.26 46.7769 153.855C47.611 154.454 47.8038 155.616 47.2086 156.45C46.517 157.418 46.1817 158.441 46.2194 159.493C46.341 163.089 50.9433 165.981 56.2623 165.801C61.5855 165.621 65.9824 162.431 65.8608 158.835C65.8063 157.175 64.8087 155.607 63.0525 154.421C61.116 153.109 58.5424 152.438 55.8138 152.531C54.1498 152.585 52.5151 152.933 51.0816 153.537C50.1343 153.935 49.0445 153.49 48.6463 152.543C48.2481 151.596 48.6924 150.506 49.6397 150.108C51.5133 149.32 53.5462 148.884 55.688 148.813C59.2005 148.695 62.5537 149.592 65.1357 151.34C67.9021 153.214 69.4781 155.829 69.5745 158.709C69.7673 164.418 63.8489 169.267 56.3838 169.519C56.1826 169.527 55.9814 169.527 55.7802 169.527H55.7844Z" fill="#4D3A3B"/>
<path d="M112.244 196.562C110.873 196.562 109.704 195.518 109.574 194.131C109.431 192.655 110.517 191.344 111.997 191.201C115.828 190.836 119.6 190.338 123.205 189.717C128.649 188.783 133.851 187.546 138.667 186.045C157.189 180.27 179.878 167.41 182.766 138.941C182.917 137.466 184.237 136.389 185.712 136.54C187.188 136.691 188.265 138.007 188.114 139.482C185.591 164.325 169.047 182.202 140.268 191.176C135.23 192.748 129.798 194.039 124.118 195.015C120.38 195.657 116.473 196.176 112.508 196.549C112.42 196.558 112.336 196.562 112.252 196.562H112.244Z" fill="#4D3A3B"/>
<path d="M95.0086 197.056C94.9708 197.056 94.9331 197.056 94.8954 197.056C72.3242 196.109 48.9021 189.646 37.9455 181.334C36.7635 180.437 36.533 178.752 37.43 177.57C38.327 176.388 40.012 176.158 41.194 177.055C51.2032 184.645 73.8834 190.799 95.1217 191.687C96.6055 191.75 97.754 193.003 97.6953 194.483C97.6366 195.925 96.4463 197.056 95.0128 197.056H95.0086Z" fill="#4D3A3B"/>
<path d="M156.162 166.153C152.876 166.153 149.758 165.26 147.327 163.613C144.56 161.739 142.984 159.124 142.888 156.244C142.695 150.536 148.614 145.686 156.079 145.435C163.544 145.179 169.776 149.626 169.965 155.335C170.158 161.044 164.239 165.893 156.774 166.145C156.569 166.153 156.364 166.157 156.162 166.157V166.153ZM156.674 149.144C156.519 149.144 156.364 149.144 156.204 149.152C150.881 149.333 146.484 152.522 146.606 156.119C146.66 157.779 147.658 159.346 149.414 160.532C151.351 161.844 153.92 162.511 156.653 162.423C161.976 162.242 166.373 159.053 166.251 155.456C166.134 151.965 161.796 149.144 156.674 149.144V149.144Z" fill="#4D3A3B"/>
<path d="M80.9795 191.863C85.8081 193.557 90.5739 198.83 89.8446 203.017C89.1111 207.204 83.1633 208.717 78.3305 207.024C73.5019 205.331 71.6199 201.068 72.3493 196.881C73.0828 192.693 76.1468 190.17 80.9795 191.863Z" fill="white"/>
<path d="M82.3669 210C80.8831 210 79.37 209.749 77.9449 209.25C75.3084 208.323 73.242 206.609 71.9762 204.291C70.7146 201.977 70.287 199.152 70.7816 196.332C71.272 193.515 72.5798 191.293 74.4576 190.082C76.3396 188.867 78.7329 188.716 81.3693 189.638C83.9932 190.56 86.6087 192.425 88.5452 194.76C90.8924 197.589 91.911 200.716 91.4122 203.566C90.9134 206.416 88.9811 208.508 85.9758 209.459C84.8399 209.82 83.6118 209.996 82.3627 209.996L82.3669 210ZM78.1167 193.624C77.2365 193.624 76.4527 193.833 75.7988 194.257C74.8222 194.885 74.1767 195.984 73.9211 197.434C73.6696 198.884 73.8791 200.288 74.533 201.487C75.3462 202.979 76.7964 204.128 78.7161 204.803C80.8412 205.549 83.2891 205.62 85.2674 204.991C86.9147 204.471 88.0925 203.482 88.2685 202.468C88.4446 201.458 87.7278 199.802 86.4452 198.251C84.8986 196.39 82.7106 194.831 80.5855 194.089C79.6969 193.779 78.867 193.624 78.1084 193.624H78.1167Z" fill="#4D3A3B"/>
<path d="M134.773 191.285C129.945 192.978 125.179 198.251 125.908 202.438C126.642 206.626 132.589 208.139 137.422 206.445C142.251 204.752 144.133 200.489 143.404 196.302C142.67 192.115 139.606 189.591 134.773 191.285Z" fill="white"/>
<path d="M133.386 209.421C134.87 209.421 136.383 209.17 137.808 208.671C140.444 207.745 142.511 206.03 143.777 203.713C145.038 201.399 145.466 198.574 144.971 195.753C144.481 192.936 143.173 190.715 141.295 189.503C139.413 188.288 137.02 188.137 134.383 189.059C131.76 189.981 129.144 191.846 127.208 194.181C124.86 197.01 123.842 200.137 124.341 202.987C124.839 205.838 126.772 207.929 129.777 208.881C130.913 209.241 132.141 209.417 133.39 209.417L133.386 209.421ZM137.636 193.045C138.516 193.045 139.3 193.255 139.954 193.678C140.931 194.307 141.576 195.405 141.832 196.855C142.083 198.306 141.874 199.71 141.22 200.908C140.407 202.401 138.956 203.549 137.037 204.224C134.912 204.97 132.464 205.041 130.485 204.413C128.838 203.893 127.66 202.904 127.484 201.889C127.308 200.879 128.025 199.223 129.308 197.673C130.854 195.812 133.042 194.252 135.167 193.51C136.056 193.2 136.886 193.045 137.644 193.045H137.636Z" fill="#4D3A3B"/>
</svg>
