<svg fill="none" height="281" viewBox="0 0 280 281" width="280" xmlns="http://www.w3.org/2000/svg" xmlns:xlink="http://www.w3.org/1999/xlink"><clipPath id="a"><path d="m0 .649902h279.81v280.03h-279.81z"/></clipPath><g clip-path="url(#a)"><path d="m254.13 119.36c.25-1.42.38-2.87.38-4.37 0-12.68-9.23-22.9601-20.61-22.9601-.09 0-.17.01-.26.01-1.51-11.02-10.03-19.47-20.35-19.47-.23 0-.46.03-.69.04-2.31-9.87-10.34-17.16-19.93-17.16-2.1 0-4.12.35-6.03 1-3.03-8.47-10.45-14.46-19.14-14.46-4.39 0-8.45 1.54-11.79 4.14-3.78-4.78-9.3-7.81-15.46-7.81-.11 0-.22.02-.34.02-.11 0-.22-.02-.34-.02-6.17 0-11.68 3.03-15.46 7.81-3.34-2.6-7.4-4.14-11.79-4.14-8.69 0-16.1001 5.99-19.1401 14.46-1.91-.65-3.93-1-6.03-1-9.58 0-17.62 7.29-19.93 17.16-.23 0-.46-.04-.69-.04-10.32 0-18.84 8.45-20.35 19.47-.09 0-.17-.01-.26-.01-11.39 0-20.61 10.2801-20.61 22.9601 0 1.5.14 2.95.38 4.37-8.68 2.7-15.06 11.56-15.06 22.09 0 12.68 9.23 22.96 20.61 22.96.95 0 1.87-.1 2.79-.23l10.04 19.25h185.1801l10.33-21.34c2.72 1.47 5.76 2.32 8.99 2.32 11.39 0 20.61-10.28 20.61-22.96 0-10.53-6.38-19.39-15.06-22.09z" fill="#fff"/><path d="m229.25 194.06h-185.18c-3.96 0-7.59-2.2-9.42-5.71l-7.06-13.54c-15.51-1.95-27.59-16.17-27.59-33.36 0-11.73 5.77-22.46 14.73-28.49.81-14.5701 10.3-26.6601 22.96-30.3801 3.84-10.03 11.93-17.4 21.8-19.8 5.29-10.87 15.83-17.96 27.65-17.96h.14c5.78-8.38 14.93-13.46 25.03-13.46 3.5 0 6.92.62 10.16 1.82 5.03-3.54 10.95-5.48 17.1-5.48h.67c6.15 0 12.07 1.94 17.1 5.48 3.24-1.2 6.66-1.82 10.16-1.82 10.1 0 19.25 5.08 25.03 13.46 11.75-.06 22.47 7.05 27.79 17.96 9.87 2.4 17.97 9.77 21.8 19.8 12.67 3.72 22.15 15.81 22.96 30.3801 8.96 6.03 14.73 16.76 14.73 28.49 0 18.52-14.02 33.59-31.24 33.59-1.13 0-2.25-.07-3.36-.19l-6.39 13.21c-1.78 3.67-5.49 6-9.57 6zm-178.73-21.26h172.07l7.43-15.34c1.26-2.62 3.54-4.6 6.31-5.49 2.76-.9 5.77-.61 8.33.77 1.27.69 2.59 1.04 3.93 1.04 5.51 0 9.98-5.53 9.98-12.33 0-5.64-3.12-10.55-7.59-11.94-5.09-1.58-8.22-6.7-7.32-11.96.15-.87.23-1.74.23-2.56 0-6.71-4.36-12.18-9.76-12.33-.21.01-.34.01-.49.01-5.29 0-9.8-3.9101-10.53-9.1901-.79-5.79-4.92-10.17-9.63-10.28l-.47.03c-5.06.23-9.6-3.24-10.76-8.2-1.48-6.32-7.02-10.27-12.18-8.52-5.48 1.87-11.47-1.01-13.43-6.48-1.61-4.51-5.2-7.42-9.13-7.42-1.87 0-3.64.64-5.26 1.9-4.61 3.59-11.25 2.79-14.87-1.79-1.09-1.38-3.4-3.66-6.86-3.77-.2.01-.4.02-.6.02-.18 0-.35 0-.59-.02-3.46.11-5.79 2.39-6.87 3.77-3.62 4.58-10.26 5.38-14.87 1.79-1.62-1.26-3.39-1.9-5.26-1.9-3.93 0-7.52 2.91-9.13 7.42-1.96 5.46-7.94 8.34-13.43 6.48-5.16-1.76-10.7 2.19-12.18 8.52-1.16 4.96-5.64 8.44-10.76 8.2-.09 0-.31-.01-.49-.03-4.71.13-8.82 4.51-9.61 10.28-.74 5.4-5.4 9.2401-10.89 9.1801-.04 0-.09 0-.14 0-5.4.15-9.76 5.62-9.76 12.33 0 .82.08 1.68.23 2.55.91 5.26-2.22 10.38-7.31 11.97-4.47 1.39-7.59 6.3-7.59 11.94 0 6.8 4.48 12.33 9.98 12.33.3 0 .7-.04 1.22-.12 4.49-.65 8.9 1.58 10.99 5.6zm163.21-89.6101h-.1z" fill="#000"/><path d="m268.16 152.09c0 65.15-57.42 117.97-128.26 117.97-70.8401 0-128.2501-52.82-128.2501-117.97 38.9 15.39 91.5001 18.1 128.2601 18.1s92.34-4.89 128.26-18.1z" fill="#20457f"/><path d="m139.91 280.68c-76.59 0-138.88998-57.68-138.88998-128.59 0-3.52 1.74-6.81 4.65-8.79s6.60998-2.39 9.88998-1.09c29.12 11.52 70.95 17.36 124.35 17.36 35.6 0 89.59-4.57 124.59-17.45 3.27-1.2 6.9-.73 9.75 1.25 2.85 1.99 4.55 5.24 4.55 8.72 0 70.91-62.3 128.59-138.89 128.59zm-116.44-113.31c8.15 51.97 57.26 92.05 116.44 92.05s108.52-40.27 116.5-92.42c-36.19 10.08-82.43 13.82-116.5 13.82-47.34 0-86.4-4.52-116.44-13.45z" fill="#000"/><path d="m181.21 43.4399c0 14.94-18.49 21.93-41.3 21.93s-41.3001-6.99-41.3001-21.93 18.4801-32.16 41.3001-32.16 41.3 17.23 41.3 32.17z" fill="#ffb515"/><path d="m139.91 76.0099c-32.03 0-51.93-12.48-51.93-32.56-.01-22.4 24.75-42.799998 51.93-42.799998s51.94 20.399998 51.94 42.799998c0 20.08-19.9 32.56-51.94 32.56zm0-54.1c-17.5 0-30.67 13.06-30.67 21.54 0 6.55 12.9 11.3 30.67 11.3s30.68-4.75 30.68-11.3c0-8.47-13.17-21.54-30.68-21.54z" fill="#000"/></g></svg>