<svg width="100" height="100" viewBox="0 0 100 100" fill="none" xmlns="http://www.w3.org/2000/svg">
<g clip-path="url(#clip0_3207_69)">
<path d="M78.9957 35.8905C78.0383 35.5626 77.073 35.2582 76.1 34.9771C76.2617 34.3214 76.4117 33.663 76.55 33.0021C78.7413 22.3851 77.3091 13.8291 72.41 11.0109C67.7143 8.30982 60.037 11.128 52.2813 17.8612C51.517 18.5247 50.7709 19.2078 50.043 19.9104C49.5552 19.442 49.0596 18.984 48.5561 18.5365C40.4248 11.3427 32.2739 8.31372 27.3826 11.1319C22.6987 13.8408 21.3096 21.8855 23.2739 31.9482C23.4748 32.9448 23.6965 33.9363 23.9391 34.9225C22.7926 35.2504 21.6774 35.5978 20.613 35.9686C11.0848 39.2864 5 44.4778 5 49.8643C5 55.4265 11.5348 61.0082 21.4583 64.3846C22.2617 64.6604 23.073 64.9154 23.8922 65.1496C23.6261 66.2087 23.3913 67.2756 23.1878 68.3503C21.3017 78.2374 22.773 86.0908 27.453 88.7841C32.2817 91.5632 40.3896 88.706 48.29 81.8206C48.9161 81.2793 49.5422 80.7042 50.1683 80.0953C50.9561 80.8578 51.7648 81.5968 52.5943 82.3124C60.2483 88.8777 67.8004 91.5242 72.4726 88.8309C77.3052 86.04 78.8743 77.605 76.8357 67.3433C76.6791 66.5626 76.4991 65.7637 76.2956 64.9466C76.8643 64.7801 77.4226 64.607 77.9704 64.4275C88.2891 61.016 95 55.5007 95 49.8643C95 44.4543 88.7196 39.2278 78.9957 35.8905ZM54.813 20.7574C61.4574 14.9884 67.6674 12.7166 70.5043 14.3404C73.5174 16.0735 74.6835 23.0643 72.7896 32.2331C72.667 32.8316 72.5326 33.4262 72.3865 34.0169C68.4207 33.1202 64.3998 32.4865 60.35 32.1199C58.0295 28.795 55.4867 25.6301 52.7391 22.6466C53.4122 22.0013 54.1009 21.3715 54.8052 20.7574H54.813ZM31.5696 54.4585C32.3861 56.0302 33.2378 57.5785 34.1248 59.1034C35.03 60.6647 35.9717 62.2039 36.95 63.721C34.1638 63.4205 31.395 62.9776 28.6543 62.3939C29.4526 59.8294 30.4309 57.1635 31.5735 54.4624L31.5696 54.4585ZM31.5696 45.4419C30.4504 42.7954 29.4957 40.1919 28.713 37.6743C31.2761 37.1005 34.0152 36.6321 36.8678 36.2769C35.913 37.7602 34.9935 39.2695 34.1091 40.8048C33.2222 42.3296 32.3783 43.8753 31.5696 45.4419ZM33.6122 49.9541C34.7965 47.495 36.0748 45.0828 37.447 42.7174C38.8087 40.3494 40.2617 38.0399 41.8061 35.789C44.4826 35.586 47.2257 35.4768 50 35.4768C52.7861 35.4768 55.533 35.586 58.2096 35.789C59.7357 38.0399 61.1809 40.3429 62.5452 42.6978C63.9174 45.0554 65.2113 47.456 66.427 49.8994C65.227 52.3663 63.9383 54.789 62.5609 57.1674C61.1965 59.5302 59.7565 61.8461 58.2409 64.1152C55.5722 64.3104 52.8135 64.4041 50 64.4041C47.1983 64.4041 44.4748 64.3182 41.853 64.1465C40.2983 61.8825 38.8322 59.5627 37.4548 57.1869C36.0826 54.8189 34.8017 52.4066 33.6122 49.9502V49.9541ZM65.8948 59.0878C66.7974 57.5187 67.6661 55.9313 68.5009 54.3258C69.6443 56.9052 70.6526 59.5422 71.5217 62.226C68.7507 62.8463 65.949 63.3219 63.1283 63.6507C64.0778 62.1467 64.9987 60.6244 65.8909 59.0839L65.8948 59.0878ZM68.4617 45.4458C67.6322 43.874 66.7713 42.3179 65.8791 40.7774C64.9974 39.263 64.0843 37.7667 63.14 36.2886C66.0083 36.6516 68.7591 37.1318 71.3457 37.7212C70.5152 40.344 69.5527 42.9196 68.4617 45.4458ZM50.0391 25.3984C51.9118 27.4341 53.6801 29.5628 55.3374 31.7764C51.7948 31.6073 48.2496 31.6073 44.7017 31.7764C46.4509 29.4735 48.2391 27.3345 50.0391 25.3984ZM29.3157 14.4497C32.3287 12.7127 38.9809 15.1913 46.0009 21.4093C46.4509 21.8074 46.9009 22.2212 47.3509 22.6505C44.5873 25.6344 42.0252 28.7978 39.6813 32.1199C35.6435 32.4815 31.6334 33.1034 27.6761 33.9818C27.4465 33.0658 27.2404 32.142 27.0578 31.2105V31.2183C25.3635 22.592 26.4865 16.0891 29.3157 14.4575V14.4497ZM24.9174 61.4571C24.1739 61.2437 23.4357 61.0134 22.7026 60.7662C18.889 59.5695 15.3288 57.6827 12.2 55.2001C11.3047 54.5861 10.5451 53.7955 9.96829 52.8771C9.39148 51.9586 9.00969 50.9319 8.84652 49.8604C8.84652 46.5933 13.73 42.4246 21.877 39.5947C22.9022 39.2356 23.9352 38.9104 24.9761 38.6189C26.1849 42.4895 27.649 46.2762 29.3587 49.9541C27.6274 53.6855 26.145 57.5269 24.9213 61.4532L24.9174 61.4571ZM45.7583 78.9438C42.8144 81.6374 39.3989 83.7676 35.6822 85.2282C34.7032 85.6964 33.6383 85.9594 32.5534 86.001C31.4685 86.0426 30.3865 85.862 29.3743 85.4702C26.5374 83.8308 25.3557 77.5309 26.9639 69.0763C27.157 68.0745 27.3761 67.0804 27.6213 66.0942C31.6205 66.9501 35.6733 67.5344 39.7517 67.8429C42.1146 71.1829 44.695 74.3644 47.4761 77.3669C46.9178 77.9056 46.3465 78.4299 45.7622 78.9399L45.7583 78.9438ZM50.1487 74.6034C48.3252 72.6439 46.5096 70.4737 44.733 68.1395C46.4548 68.2072 48.2104 68.241 50 68.241C51.8339 68.241 53.6443 68.202 55.4313 68.1239C53.7825 70.3723 52.0193 72.535 50.1487 74.6034ZM73.4978 79.9392C73.415 81.0199 73.1107 82.0721 72.6039 83.0309C72.0971 83.9896 71.3985 84.8344 70.5513 85.5131C67.7144 87.1525 61.6491 85.0213 55.1065 79.4083C54.3578 78.7682 53.6039 78.0838 52.8448 77.3552C55.5724 74.3432 58.0929 71.1509 60.3891 67.7999C64.4904 67.4549 68.5631 66.8289 72.5783 65.9264C72.7609 66.6654 72.9226 67.3888 73.0635 68.0966C73.9344 71.9856 74.0803 76.0014 73.4939 79.9431L73.4978 79.9392ZM76.7613 60.7857C76.2644 60.9497 75.7596 61.1058 75.243 61.2541C73.9853 57.3653 72.4635 53.5664 70.6883 49.8838C72.3979 46.2513 73.8621 42.5088 75.0709 38.6814C75.9865 38.9429 76.8826 39.2278 77.7435 39.5206C86.0783 42.3778 91.1574 46.609 91.1574 49.8643C91.1574 53.3382 85.6674 57.8426 76.7574 60.7857H76.7613Z" fill="#61DAFB"/>
<path d="M50 41.8469C51.59 41.8469 53.1443 42.3173 54.4662 43.1986C55.7881 44.0799 56.8183 45.3325 57.4264 46.798C58.0345 48.2634 58.1932 49.8758 57.8824 51.4313C57.5717 52.9867 56.8054 54.4152 55.6806 55.5362C54.5557 56.6571 53.1229 57.4201 51.5633 57.7286C50.0036 58.037 48.3873 57.8771 46.9188 57.2691C45.4503 56.6611 44.1956 55.6323 43.3134 54.3128C42.4312 52.9933 41.9611 51.4425 41.9627 49.8565C41.9658 47.7322 42.8139 45.6959 44.3209 44.1949C45.8279 42.6939 47.8704 41.8469 50 41.8469Z" fill="#61DAFB"/>
</g>
<defs>
<clipPath id="clip0_3207_69">
<rect width="90" height="79.875" fill="white" transform="translate(5 10)"/>
</clipPath>
</defs>
</svg>
