<svg width="100" height="208" viewBox="0 0 100 208" fill="none" xmlns="http://www.w3.org/2000/svg">
<g clip-path="url(#clip0_3242_153)">
<path fill-rule="evenodd" clip-rule="evenodd" d="M49.8659 6C25.0562 6 5 26.2041 5 51.1993C5 71.1793 17.8507 88.0919 35.6781 94.0779C37.9069 94.5279 38.7234 93.1053 38.7234 91.9087C38.7234 90.8608 38.6499 87.2691 38.6499 83.5267C26.1693 86.2212 23.5703 78.1387 23.5703 78.1387C21.5646 72.9003 18.5928 71.554 18.5928 71.554C14.5079 68.7851 18.8903 68.7851 18.8903 68.7851C23.4215 69.0845 25.7992 73.4247 25.7992 73.4247C29.8097 80.3088 36.2722 78.3637 38.8721 77.1661C39.2432 74.2475 40.4324 72.2271 41.6952 71.1049C31.741 70.057 21.268 66.1659 21.268 48.8042C21.268 43.8652 23.0496 39.8244 25.8727 36.6817C25.4272 35.5595 23.8669 30.919 26.319 24.7081C26.319 24.7081 30.1072 23.5105 38.649 29.3477C42.306 28.3583 46.0774 27.855 49.8659 27.8507C53.6542 27.8507 57.5159 28.3751 61.0819 29.3477C69.6246 23.5105 73.4129 24.7081 73.4129 24.7081C75.8649 30.919 74.3037 35.5595 73.8583 36.6817C76.7557 39.8244 78.4639 43.8652 78.4639 48.8042C78.4639 66.1659 67.9908 69.9817 57.9622 71.1049C59.5969 72.5265 61.0075 75.2201 61.0075 79.4859C61.0075 85.5471 60.9341 90.4117 60.9341 91.9078C60.9341 93.1053 61.7514 94.5279 63.9794 94.0788C81.8067 88.091 94.6574 71.1793 94.6574 51.1993C94.7309 26.2041 74.6012 6 49.8659 6Z" fill="#24292F"/>
</g>
<path d="M93.5019 149.309L93.3754 148.986L81.1257 117.016C80.8765 116.39 80.4352 115.858 79.8651 115.498C79.2947 115.144 78.6294 114.973 77.959 115.009C77.2885 115.045 76.6453 115.286 76.1162 115.7C75.5929 116.125 75.2132 116.701 75.029 117.349L66.7578 142.655H33.2656L24.9945 117.349C24.8151 116.697 24.4346 116.118 23.9073 115.695C23.3781 115.282 22.7349 115.041 22.0645 115.005C21.3941 114.969 20.7287 115.139 20.1583 115.493C19.5895 115.855 19.1486 116.386 18.8977 117.012L6.62459 148.967L6.50275 149.29C4.73935 153.898 4.52169 158.954 5.88258 163.696C7.24347 168.438 10.1091 172.609 14.0475 175.58L14.0897 175.613L14.2022 175.692L32.8626 189.666L42.0944 196.654L47.7178 200.899C48.3756 201.399 49.1788 201.669 50.0047 201.669C50.8306 201.669 51.6338 201.399 52.2915 200.899L57.915 196.654L67.1468 189.666L85.9197 175.608L85.9665 175.57C89.8961 172.599 92.7551 168.432 94.1139 163.696C95.4727 158.961 95.258 153.912 93.5019 149.309Z" fill="#E24329"/>
<path d="M93.5017 149.309L93.3752 148.985C87.4063 150.211 81.7817 152.739 76.9032 156.39L49.9998 176.732C59.1613 183.663 67.1372 189.685 67.1372 189.685L85.9101 175.626L85.9569 175.589C89.8921 172.617 92.7555 168.448 94.1162 163.708C95.4769 158.969 95.2613 153.915 93.5017 149.309Z" fill="#FC6D26"/>
<path d="M32.863 189.685L42.0948 196.672L47.7183 200.918C48.3761 201.417 49.1792 201.688 50.0051 201.688C50.831 201.688 51.6342 201.417 52.292 200.918L57.9154 196.672L67.1472 189.685C67.1472 189.685 59.162 183.645 50.0005 176.732C40.8389 183.645 32.863 189.685 32.863 189.685Z" fill="#FCA326"/>
<path d="M23.0919 156.39C18.2173 152.731 12.5939 150.197 6.62459 148.967L6.50275 149.29C4.73935 153.898 4.52169 158.954 5.88258 163.696C7.24347 168.438 10.1091 172.609 14.0475 175.58L14.0897 175.612L14.2022 175.692L32.8626 189.666C32.8626 189.666 40.8291 183.645 50 176.714L23.0919 156.39Z" fill="#FC6D26"/>
<defs>
<clipPath id="clip0_3242_153">
<rect width="90" height="88.1633" fill="white" transform="translate(5 6)"/>
</clipPath>
</defs>
</svg>
