<svg width="100" height="100" viewBox="0 0 100 100" fill="none" xmlns="http://www.w3.org/2000/svg">
<g clip-path="url(#clip0_3207_10)">
<path d="M49.6666 50.0001C49.6666 42.7114 55.5753 36.8025 62.8642 36.8025C70.1529 36.8025 76.0618 42.7114 76.0618 50.0001C76.0618 57.289 70.1529 63.1977 62.8642 63.1977C55.5753 63.1977 49.6666 57.289 49.6666 50.0001Z" fill="#1ABCFE"/>
<path d="M23.2715 76.3951C23.2715 69.1064 29.1802 63.1975 36.4691 63.1975H49.6667V76.3951C49.6667 83.684 43.758 89.5927 36.4691 89.5927C29.1802 89.5927 23.2715 83.684 23.2715 76.3951Z" fill="#0ACF83"/>
<path d="M49.6666 10.4072V36.8023H62.8642C70.1531 36.8023 76.0618 30.8936 76.0618 23.6048C76.0618 16.316 70.1531 10.4072 62.8642 10.4072H49.6666Z" fill="#FF7262"/>
<path d="M23.2715 23.6048C23.2715 30.8936 29.1802 36.8023 36.4691 36.8023H49.6667V10.4072H36.4691C29.1802 10.4072 23.2715 16.316 23.2715 23.6048Z" fill="#F24E1E"/>
<path d="M23.2715 50.0001C23.2715 57.289 29.1802 63.1977 36.4691 63.1977H49.6667V36.8025H36.4691C29.1802 36.8025 23.2715 42.7114 23.2715 50.0001Z" fill="#A259FF"/>
</g>
<defs>
<clipPath id="clip0_3207_10">
<rect width="53.3333" height="80" fill="white" transform="translate(23 10)"/>
</clipPath>
</defs>
</svg>
