<svg width="100" height="100" viewBox="0 0 100 100" fill="none" xmlns="http://www.w3.org/2000/svg">
<g clip-path="url(#clip0_3238_132)">
<path d="M50.0009 5C25.1465 5 5 25.1465 5 49.9993C5 74.8537 25.1465 95 50.0009 95C74.8537 95 95 74.8537 95 49.9993C95 25.1465 74.8537 5 50.0009 5ZM37.8827 40.7033C37.8827 40.7676 37.8551 40.8244 37.8061 40.8643L25.1405 50.283L37.8061 59.7063C37.8551 59.74 37.8827 59.8014 37.8827 59.8627V65.6758C37.8827 65.7479 37.8474 65.8122 37.7892 65.846C37.7632 65.8599 37.7371 65.8688 37.7064 65.8688C37.6726 65.8688 37.6375 65.8565 37.6083 65.8337L19.3673 52.2665C19.3198 52.2312 19.2891 52.1714 19.2891 52.1087V48.4586C19.2891 48.3942 19.3197 48.3345 19.3673 48.2991L37.6083 34.7323C37.6375 34.7093 37.6726 34.6986 37.7064 34.6986C37.737 34.6986 37.7632 34.7063 37.7892 34.7214C37.8475 34.7536 37.8827 34.8181 37.8827 34.8916V40.7033ZM46.9272 68.3523C46.9012 68.4305 46.8368 68.4825 46.76 68.4825H41.6613C41.6031 68.4825 41.5509 68.4518 41.5171 68.3996C41.485 68.3507 41.4757 68.2862 41.4941 68.228L53.0728 31.6447C53.0959 31.5679 53.1632 31.5175 53.2384 31.5175H58.3385C58.3937 31.5175 58.4489 31.5467 58.4811 31.5973C58.5133 31.6479 58.5226 31.7122 58.5041 31.772L46.9272 68.3523ZM80.7079 52.1087C80.7079 52.1714 80.6805 52.2314 80.6313 52.2665L62.3903 65.8335C62.3611 65.8563 62.3275 65.8687 62.2922 65.8687C62.263 65.8687 62.2356 65.8595 62.2094 65.8458C62.1512 65.812 62.1159 65.7477 62.1159 65.6756V59.864C62.1159 59.8012 62.1435 59.7399 62.1925 59.7061L74.8581 50.2828L62.1925 40.8641C62.1437 40.8274 62.1159 40.7692 62.1159 40.7049V34.8916C62.1159 34.8181 62.1512 34.7536 62.2094 34.7214C62.2354 34.7063 62.263 34.6986 62.2922 34.6986C62.3275 34.6986 62.3611 34.7093 62.3903 34.7323L80.6313 48.2991C80.6805 48.3345 80.7079 48.3942 80.7079 48.4586V52.1087Z" fill="#4D3A3B"/>
</g>
<defs>
<clipPath id="clip0_3238_132">
<rect width="90" height="90" fill="white" transform="translate(5 5)"/>
</clipPath>
</defs>
</svg>
