<svg width="100" height="100" viewBox="0 0 100 100" fill="none" xmlns="http://www.w3.org/2000/svg">
<path fill-rule="evenodd" clip-rule="evenodd" d="M49.9999 11.2129L83.5906 30.6065V69.3937L49.9999 88.7872L16.4092 69.3937V30.6065L49.9999 11.2129ZM20.1781 32.7825V61.2727L44.8514 18.5374L20.1781 32.7825ZM49.9999 17.1579L21.5576 66.4212H78.4421L49.9999 17.1579ZM74.6732 70.1902H25.3266L49.9999 84.4353L74.6732 70.1902ZM79.8216 61.2727L55.1483 18.5374L79.8216 32.7825V61.2727Z" fill="#E10098"/>
<path d="M50 21.3269C54.384 21.3269 57.938 17.773 57.938 13.3889C57.938 9.00489 54.384 5.45093 50 5.45093C45.616 5.45093 42.062 9.00489 42.062 13.3889C42.062 17.773 45.616 21.3269 50 21.3269Z" fill="#E10098"/>
<path d="M81.7063 39.6323C86.0903 39.6323 89.6443 36.0784 89.6443 31.6943C89.6443 27.3103 86.0903 23.7563 81.7063 23.7563C77.3223 23.7563 73.7683 27.3103 73.7683 31.6943C73.7683 36.0784 77.3223 39.6323 81.7063 39.6323Z" fill="#E10098"/>
<path d="M81.7063 76.2437C86.0903 76.2437 89.6443 72.6897 89.6443 68.3057C89.6443 63.9216 86.0903 60.3677 81.7063 60.3677C77.3223 60.3677 73.7683 63.9216 73.7683 68.3057C73.7683 72.6897 77.3223 76.2437 81.7063 76.2437Z" fill="#E10098"/>
<path d="M50 94.5491C54.384 94.5491 57.938 90.9951 57.938 86.6111C57.938 82.2271 54.384 78.6731 50 78.6731C45.616 78.6731 42.062 82.2271 42.062 86.6111C42.062 90.9951 45.616 94.5491 50 94.5491Z" fill="#E10098"/>
<path d="M18.2893 76.2437C22.6734 76.2437 26.2273 72.6897 26.2273 68.3057C26.2273 63.9216 22.6734 60.3677 18.2893 60.3677C13.9053 60.3677 10.3513 63.9216 10.3513 68.3057C10.3513 72.6897 13.9053 76.2437 18.2893 76.2437Z" fill="#E10098"/>
<path d="M18.2893 39.6323C22.6734 39.6323 26.2273 36.0784 26.2273 31.6943C26.2273 27.3103 22.6734 23.7563 18.2893 23.7563C13.9053 23.7563 10.3513 27.3103 10.3513 31.6943C10.3513 36.0784 13.9053 39.6323 18.2893 39.6323Z" fill="#E10098"/>
</svg>
