<svg width="100" height="100" viewBox="0 0 100 100" fill="none" xmlns="http://www.w3.org/2000/svg">
<path d="M36.4817 12.3254C49.7613 4.70234 65.1004 2.58165 76.4666 9.71489C95.0539 21.3709 95.9871 53.3324 82.5407 74.753C69.0942 96.1736 46.3567 98.9404 27.7642 87.2844C9.17685 75.6284 1.77843 53.9629 15.2249 32.5423C17.9048 28.2801 21.2052 24.3461 24.9226 20.8707" fill="white"/>
<path d="M50.215 97.4243C42.0449 97.4243 33.6611 94.9232 25.9863 90.1139C15.9341 83.8091 8.92669 74.6854 6.24678 64.4206C3.36875 53.3951 5.49599 41.76 12.3939 30.7709C15.1781 26.3315 18.6296 22.1839 22.6391 18.4323C23.9894 17.1714 26.1011 17.2443 27.3628 18.5939C28.6245 19.9434 28.5516 22.0537 27.2012 23.3146C23.6088 26.6702 20.5327 30.3697 18.0509 34.3193C12.1541 43.7087 10.3084 53.5358 12.7119 62.7324C14.9591 71.3455 20.9342 79.0623 29.537 84.4552C47.9731 96.0174 68.135 91.4061 79.7045 72.9764C85.9402 63.0451 89.032 50.5918 88.1769 38.8108C87.3062 26.7848 82.5147 17.4528 74.6835 12.5444C65.1422 6.5627 51.482 7.56313 38.1398 15.2226C36.5391 16.1397 34.4953 15.5874 33.5777 13.9877C32.6601 12.3881 33.2127 10.3456 34.8134 9.4285C50.3349 0.518464 66.5708 -0.435067 78.2394 6.88576C87.9215 12.956 93.8183 24.1275 94.8454 38.3314C95.7943 51.4933 92.3428 65.4159 85.3667 76.53C78.4688 87.519 68.9066 94.4907 57.7229 96.7C55.2568 97.1846 52.7437 97.4295 50.2098 97.4295L50.215 97.4243Z" fill="#4D3A3B"/>
<path d="M53.0408 47.0225L55.8823 62.0549L71.0128 58.2929L72.0921 72.2207L84.7617 66.9111" fill="white"/>
<path d="M72.0924 75.5604C71.4876 75.5604 70.8828 75.3937 70.351 75.0706C69.4334 74.5131 68.8442 73.5491 68.7608 72.4757L67.9891 62.4819L56.6907 65.2904C55.7992 65.5145 54.8555 65.3581 54.0786 64.8631C53.3018 64.3681 52.77 63.5761 52.5979 62.6695L49.7564 47.6371C49.4122 45.8238 50.6062 44.0782 52.4206 43.7344C54.235 43.3905 55.9817 44.5837 56.3258 46.3969L58.5104 57.9539L70.2102 55.0465C71.1643 54.812 72.1758 55.0048 72.9735 55.5779C73.7713 56.1511 74.277 57.0473 74.35 58.0269L75.0695 67.3434L83.469 63.821C85.1687 63.1072 87.1291 63.9096 87.8434 65.6082C88.5577 67.3069 87.7548 69.266 86.055 69.9799L73.3907 75.2894C72.9736 75.4614 72.5356 75.55 72.0976 75.55L72.0924 75.5604Z" fill="#4D3A3B"/>
</svg>
