<svg width="100" height="100" viewBox="0 0 100 100" fill="none" xmlns="http://www.w3.org/2000/svg">
<g clip-path="url(#clip0_3207_32)">
<mask id="mask0_3207_32" style="mask-type:luminance" maskUnits="userSpaceOnUse" x="5" y="26" width="91" height="48">
<path d="M5.30347 50C5.30347 63.0871 25.4722 73.6965 50.3507 73.6965C75.2291 73.6965 95.3981 63.0871 95.3981 50C95.3981 36.913 75.2291 26.3034 50.3507 26.3034C25.4722 26.3034 5.30347 36.913 5.30347 50Z" fill="white"/>
</mask>
<g mask="url(#mask0_3207_32)">
<path d="M5.30347 50C5.30347 63.0871 25.4722 73.6965 50.3507 73.6965C75.2291 73.6965 95.3981 63.0871 95.3981 50C95.3981 36.913 75.2291 26.3034 50.3507 26.3034C25.4722 26.3034 5.30347 36.913 5.30347 50Z" fill="url(#paint0_radial_3207_32)"/>
</g>
<mask id="mask1_3207_32" style="mask-type:luminance" maskUnits="userSpaceOnUse" x="3" y="23" width="95" height="54">
<path d="M3.42651 23.6051H97.2749V76.3948H3.42651V23.6051Z" fill="white"/>
</mask>
<g mask="url(#mask1_3207_32)">
<path d="M50.3507 71.937C74.2574 71.937 93.6382 62.1154 93.6382 49.9998C93.6382 37.8844 74.2574 28.0626 50.3507 28.0626C26.4439 28.0626 7.06311 37.8844 7.06311 49.9998C7.06311 62.1154 26.4439 71.937 50.3507 71.937Z" fill="#777BB3"/>
</g>
<mask id="mask2_3207_32" style="mask-type:luminance" maskUnits="userSpaceOnUse" x="3" y="23" width="95" height="54">
<path d="M3.42651 23.6051H97.2749V76.3948H3.42651V23.6051Z" fill="white"/>
</mask>
<g mask="url(#mask2_3207_32)">
<path d="M29.7781 52.7197C31.7439 52.7197 33.2114 52.3572 34.1399 51.6426C35.0586 50.9353 35.693 49.7099 36.0255 48.0006C36.3356 46.4029 36.2175 45.2873 35.6746 44.6852C35.1195 44.0703 33.9193 43.7585 32.1075 43.7585H28.9661L27.2245 52.7197H29.7781ZM19.5032 63.7583C19.3574 63.7583 19.2189 63.6931 19.1262 63.5804C19.0333 63.4678 18.9957 63.3195 19.0235 63.1763L23.639 39.4289C23.6837 39.1994 23.8849 39.0335 24.1189 39.0335H34.0665C37.1928 39.0335 39.5198 39.8824 40.9824 41.5568C42.4529 43.24 42.9069 45.5929 42.332 48.55C42.098 49.7547 41.6956 50.8735 41.1359 51.8752C40.5756 52.8781 39.835 53.806 38.9345 54.6337C37.8566 55.6425 36.6365 56.3741 35.3116 56.8046C34.0076 57.2293 32.333 57.4447 30.3344 57.4447H26.3064L25.1561 63.3627C25.1114 63.5924 24.9104 63.7583 24.6764 63.7583H19.5032Z" fill="black"/>
<path d="M29.369 44.2473H32.1076C34.2943 44.2473 35.0539 44.7271 35.312 45.013C35.7401 45.4878 35.821 46.4889 35.5458 47.9078C35.2365 49.4964 34.6633 50.6228 33.8418 51.2553C33.0008 51.9028 31.6335 52.2309 29.7782 52.2309H27.8175L29.369 44.2473ZM34.0665 38.5447H24.1188C23.6508 38.5447 23.2485 38.8764 23.1593 39.3357L18.5437 63.0831C18.488 63.3697 18.5633 63.6661 18.7489 63.8914C18.9346 64.1167 19.2113 64.2471 19.5032 64.2471H24.6763C25.1444 64.2471 25.5467 63.9153 25.636 63.456L26.7094 57.9335H30.3344C32.3844 57.9335 34.1102 57.7099 35.4633 57.2692C36.8549 56.8171 38.1352 56.0505 39.2684 54.9908C40.2056 54.1286 40.9776 53.1607 41.5625 52.1139C42.1476 51.0668 42.5679 49.899 42.8118 48.6431C43.4171 45.5305 42.9254 43.038 41.3505 41.2353C39.7909 39.4499 37.3401 38.5447 34.0665 38.5447ZM26.6315 53.2085H29.7782C31.8639 53.2085 33.4174 52.8157 34.4382 52.0298C35.4591 51.2439 36.1476 49.9321 36.5054 48.0939C36.8478 46.329 36.6918 45.0836 36.0377 44.3581C35.3827 43.6325 34.0729 43.2697 32.1076 43.2697H28.5632L26.6315 53.2085ZM34.0665 39.5223C37.0591 39.5223 39.2422 40.3076 40.6144 41.8784C41.9864 43.4492 42.3996 45.6418 41.8522 48.4568C41.6269 49.6163 41.2458 50.6765 40.7092 51.637C40.172 52.5981 39.4706 53.477 38.6038 54.2739C37.5708 55.2406 36.4233 55.9294 35.1606 56.3397C33.8979 56.7511 32.2896 56.9559 30.3344 56.9559H25.9033L24.6763 63.2695H19.5032L24.1188 39.5223H34.0665Z" fill="white"/>
<path d="M54.1931 57.4448C54.0471 57.4448 53.9088 57.3797 53.8161 57.2669C53.723 57.1543 53.6854 57.0062 53.7133 56.8628L55.755 46.3556C55.9492 45.3563 55.9013 44.6391 55.6202 44.336C55.4482 44.1508 54.9313 43.8401 53.4032 43.8401H49.7043L47.1374 57.0492C47.0927 57.279 46.8915 57.4448 46.6575 57.4448H41.5252C41.3792 57.4448 41.2409 57.3797 41.148 57.2669C41.0551 57.1543 41.0175 57.0061 41.0454 56.8628L45.6609 33.1154C45.7055 32.8859 45.9067 32.72 46.1407 32.72H51.273C51.419 32.72 51.5574 32.7852 51.6502 32.8978C51.7431 33.0105 51.7807 33.1586 51.7529 33.302L50.6391 39.0336H54.6182C57.6495 39.0336 59.7051 39.568 60.9023 40.6675C62.1226 41.7891 62.5034 43.5825 62.0342 45.9984L59.8867 57.0492C59.8421 57.279 59.641 57.4448 59.4069 57.4448H54.1931Z" fill="black"/>
<path d="M51.2731 32.2312H46.1408C45.6727 32.2312 45.2704 32.5629 45.1811 33.0222L40.5656 56.7696C40.5099 57.0562 40.5851 57.3526 40.7709 57.5779C40.9566 57.8032 41.2333 57.9336 41.5253 57.9336H46.6576C47.1255 57.9336 47.528 57.6019 47.6172 57.1426L50.1073 44.3288H53.4033C54.9288 44.3288 55.2489 44.6547 55.2618 44.6687C55.3544 44.7683 55.4761 45.2294 55.2752 46.2623L53.2335 56.7696C53.1778 57.0562 53.253 57.3526 53.4388 57.5779C53.6245 57.8032 53.9012 57.9336 54.1932 57.9336H59.4069C59.8749 57.9336 60.2773 57.6019 60.3666 57.1426L62.5139 46.0918C63.0178 43.4977 62.5867 41.5518 61.2331 40.3077C59.9414 39.1214 57.7776 38.5448 54.6182 38.5448H51.2319L52.2328 33.3953C52.2883 33.1087 52.2132 32.8122 52.0275 32.587C51.8417 32.3617 51.5651 32.2312 51.2731 32.2312ZM51.2731 33.2088L50.0461 39.5224H54.6182C57.4951 39.5224 59.4795 40.0245 60.5716 41.0275C61.6637 42.0312 61.9909 43.6574 61.5544 45.9054L59.4069 56.956H54.1932L56.2348 46.4489C56.4672 45.2536 56.3818 44.4383 55.9784 44.0036C55.5748 43.5689 54.7163 43.3513 53.4033 43.3513H49.3013L46.6576 56.956H41.5253L46.1408 33.2088H51.2731Z" fill="white"/>
<path d="M70.155 52.7197C72.1208 52.7197 73.5883 52.3572 74.5169 51.6426C75.4355 50.9355 76.0699 49.71 76.4026 48.0006C76.7127 46.4029 76.5946 45.2873 76.0515 44.6852C75.4964 44.0703 74.2963 43.7585 72.4845 43.7585H69.343L67.6014 52.7197H70.155ZM59.8803 63.7583C59.7345 63.7583 59.596 63.6931 59.5033 63.5804C59.4104 63.4678 59.3726 63.3195 59.4004 63.1763L64.016 39.4289C64.0608 39.1994 64.2618 39.0335 64.496 39.0335H74.4434C77.5699 39.0335 79.8967 39.8824 81.3595 41.5568C82.83 43.2399 83.2839 45.5928 82.7091 48.55C82.4748 49.7547 82.0725 50.8735 81.5128 51.8752C80.9525 52.8781 80.212 53.806 79.3115 54.6337C78.2335 55.6425 77.0135 56.3741 75.6885 56.8046C74.3846 57.2293 72.71 57.4447 70.7113 57.4447H66.6831L65.5333 63.3627C65.4885 63.5924 65.2875 63.7583 65.0533 63.7583H59.8803Z" fill="black"/>
<path d="M69.746 44.2473H72.4845C74.6712 44.2473 75.4308 44.7271 75.6889 45.013C76.1172 45.4878 76.198 46.4889 75.9227 47.9077C75.6134 49.4964 75.0401 50.6228 74.2187 51.2553C73.3777 51.9028 72.0104 52.2309 70.1551 52.2309H68.1945L69.746 44.2473ZM74.4434 38.5447H64.4958C64.0279 38.5447 63.6256 38.8764 63.5363 39.3357L58.9208 63.0831C58.8651 63.3697 58.9404 63.6661 59.1259 63.8914C59.3117 64.1167 59.5883 64.2471 59.8803 64.2471H65.0534C65.5213 64.2471 65.9238 63.9153 66.013 63.456L67.0863 57.9335H70.7113C72.7613 57.9335 74.4871 57.7099 75.8402 57.2692C77.2318 56.8171 78.5125 56.0503 79.6457 54.9905C80.5828 54.1284 81.3545 53.1607 81.9394 52.1139C82.5245 51.0668 82.9449 49.899 83.1888 48.6431C83.7941 45.5303 83.3023 43.0378 81.7274 41.2352C80.1679 39.4499 77.7172 38.5447 74.4434 38.5447ZM67.0086 53.2085H70.1551C72.2408 53.2085 73.7943 52.8157 74.8151 52.0298C75.8362 51.2439 76.5246 49.9321 76.8823 48.0939C77.2248 46.329 77.0689 45.0836 76.4146 44.3581C75.7596 43.6325 74.4498 43.2697 72.4845 43.2697H68.9401L67.0086 53.2085ZM74.4434 39.5223C77.436 39.5223 79.6191 40.3076 80.9913 41.8784C82.3635 43.4492 82.7765 45.6418 82.2291 48.4568C82.0038 49.6163 81.6227 50.6765 81.0861 51.637C80.549 52.5981 79.8475 53.477 78.9807 54.2739C77.9478 55.2406 76.8002 55.9294 75.5375 56.3397C74.2748 56.7511 72.6665 56.9559 70.7113 56.9559H66.2803L65.0534 63.2695H59.8803L64.4958 39.5223H74.4434Z" fill="white"/>
</g>
</g>
<defs>
<radialGradient id="paint0_radial_3207_32" cx="0" cy="0" r="1" gradientUnits="userSpaceOnUse" gradientTransform="translate(32.35 34.6344) scale(59.1535)">
<stop stop-color="#AEB2D5"/>
<stop offset="0.3" stop-color="#AEB2D5"/>
<stop offset="0.75" stop-color="#484C89"/>
<stop offset="1" stop-color="#484C89"/>
</radialGradient>
<clipPath id="clip0_3207_32">
<rect width="92.7015" height="50" fill="white" transform="translate(4 25)"/>
</clipPath>
</defs>
</svg>
